<?xml version="1.0" standalone="no"?>
<!DOCTYPE svg PUBLIC "-//W3C//DTD SVG 20010904//EN"
 "http://www.w3.org/TR/2001/REC-SVG-20010904/DTD/svg10.dtd">
<svg version="1.0" xmlns="http://www.w3.org/2000/svg"
 width="400.000000pt" height="400.000000pt" viewBox="0 0 400.000000 400.000000"
 preserveAspectRatio="xMidYMid meet">

<g transform="translate(0.000000,400.000000) scale(0.100000,-0.100000)"
fill="#000000" stroke="none">
<path d="M0 3375 c0 -410 3 -625 10 -625 6 0 10 -7 10 -15 0 -8 -4 -15 -10
-15 -5 0 -10 -20 -10 -44 0 -39 3 -45 30 -56 17 -7 44 -31 60 -53 30 -40 30
-42 29 -161 -1 -67 -5 -134 -9 -151 -6 -24 -8 -26 -9 -7 -1 23 -15 29 -26 12
-4 -6 -2 -17 5 -25 14 -17 3 -24 -33 -20 -22 3 -30 -2 -37 -21 -13 -33 -13
-1717 0 -1709 5 3 8 11 6 18 -1 7 -1 8 2 4 2 -4 10 -3 18 4 25 20 15 -7 -11
-31 l-25 -23 0 -229 0 -228 161 0 c150 0 161 1 154 18 -4 9 -9 49 -12 87 -3
59 3 99 40 249 36 148 45 173 50 146 4 -18 7 -53 7 -79 0 -60 -34 -261 -49
-289 -6 -11 -11 -39 -11 -61 0 -78 -57 -71 617 -71 l606 0 -6 38 c-15 96 -48
634 -60 992 -15 415 -17 528 -9 555 l8 29 91 -86 c130 -123 239 -170 386 -167
58 2 56 2 -28 10 -153 13 -267 67 -361 172 -71 79 -96 135 -70 156 12 10 28
-2 83 -56 138 -138 310 -191 478 -148 100 26 180 69 245 132 33 33 60 55 60
50 0 -4 4 -5 10 -2 6 4 7 -1 3 -12 -6 -15 -4 -16 9 -6 8 7 17 10 21 7 11 -11
-38 -79 -103 -144 -68 -69 -137 -109 -230 -135 -54 -15 -55 -15 -10 -10 82 10
183 70 271 159 44 44 77 73 74 64 -4 -9 1 -30 10 -47 11 -22 14 -46 11 -79 -3
-26 -8 -72 -11 -102 -5 -55 -29 -220 -44 -295 -4 -26 -2 -59 6 -90 17 -64 9
-428 -12 -560 -8 -49 -18 -117 -22 -150 -7 -52 -11 -60 -31 -63 -12 -2 -27
-12 -33 -23 -10 -20 -10 -20 -27 1 -11 13 -22 17 -30 11 -11 -6 -9 -15 7 -42
12 -19 21 -49 21 -66 0 -26 4 -33 20 -33 16 0 20 7 20 34 0 20 9 44 21 57 18
22 20 22 15 4 -2 -11 -7 -50 -11 -87 l-7 -68 836 0 835 0 0 283 0 282 -24 30
c-14 17 -25 25 -25 19 0 -6 9 -19 20 -29 11 -10 18 -21 15 -23 -6 -6 -65 48
-65 59 0 16 50 3 64 -16 14 -18 15 67 13 835 l-2 855 -126 1 c-69 0 -131 4
-138 8 -11 7 -9 22 7 64 3 8 -1 13 -9 12 -8 -1 -25 -1 -39 0 -18 1 -8 7 33 20
32 10 64 26 71 36 8 11 18 14 26 9 10 -6 12 -4 7 9 -4 10 -7 20 -7 22 0 2 -7
4 -15 4 -11 0 -15 11 -15 39 0 83 103 121 167 62 l31 -28 6 30 c3 16 6 342 6
723 l0 694 -2000 0 -2000 0 0 -625z m1909 537 c-2 -32 -3 -33 -6 -8 -3 18 -12
30 -26 34 -20 5 -20 6 -1 12 28 11 34 3 33 -38z m125 17 c9 -46 7 -79 -4 -79
-5 0 -10 20 -10 45 0 38 -3 45 -20 45 -11 0 -20 5 -20 10 0 6 11 10 24 10 18
0 25 -7 30 -31z m149 13 c-12 -9 -24 -30 -26 -47 -3 -21 -4 -16 -6 18 -1 45 0
47 27 47 l27 0 -22 -18z m-444 -19 c0 -25 -1 -25 -8 -8 -5 11 -7 23 -4 28 8
14 13 7 12 -20z m-126 -35 c3 -21 1 -40 -4 -43 -5 -4 -9 7 -9 22 0 16 -5 34
-11 40 -6 6 -8 17 -4 23 11 17 22 0 28 -42z m742 -13 c-3 -31 -9 -54 -12 -51
-3 3 -2 30 2 61 3 31 9 54 12 51 3 -3 2 -30 -2 -61z m-804 -20 l3 -60 -48 -9
c-26 -4 -49 -7 -51 -5 -2 2 -7 31 -10 65 l-7 60 48 10 c27 6 52 7 56 4 3 -3 8
-32 9 -65z m640 34 c-9 -23 -10 -22 -10 11 -1 23 2 31 9 24 7 -7 7 -19 1 -35z
m275 -21 c-4 -29 -11 -60 -17 -68 -7 -11 -8 -1 -3 35 3 28 8 59 9 70 3 28 4
29 11 22 4 -3 3 -30 0 -59z m118 26 c20 -3 39 -10 42 -15 6 -10 -23 -119 -32
-119 -3 0 -25 5 -50 11 -48 12 -49 15 -33 89 8 36 15 50 24 46 8 -3 30 -8 49
-12z m-1219 -65 c5 -32 13 -53 23 -56 13 -6 13 -8 -4 -14 -33 -13 -48 -11 -35
5 11 13 9 32 -5 87 -3 11 -12 15 -24 12 -27 -7 -25 6 3 16 31 12 34 8 42 -50z
m476 5 c108 -55 149 -90 149 -125 0 -24 -12 -24 -30 0 -7 11 -17 18 -22 15 -5
-3 -7 0 -6 6 2 7 -33 32 -77 57 -72 39 -153 103 -132 103 5 0 58 -25 118 -56z
m825 -16 l-11 -53 -5 40 c-3 22 -2 46 3 53 19 25 24 10 13 -40z m-926 16 c0
-8 -4 -12 -10 -9 -5 3 -10 13 -10 21 0 8 5 12 10 9 6 -3 10 -13 10 -21z m216
11 c24 -10 39 -25 50 -51 20 -48 12 -54 -14 -10 -12 20 -36 45 -54 56 -39 24
-31 26 18 5z m-737 -38 c24 -82 24 -85 -15 -102 -20 -8 -42 -15 -49 -15 -13 0
-48 107 -40 121 3 4 19 10 35 14 17 4 30 11 30 15 0 22 30 -5 39 -33z m-754 5
c47 -18 85 -41 85 -52 0 -4 -25 6 -55 21 -103 52 -218 46 -309 -16 -20 -14
-39 -25 -43 -25 -13 0 24 33 63 56 77 45 170 51 259 16z m2358 12 c51 -17 58
-35 35 -91 -6 -15 -11 -31 -10 -34 2 -11 -33 -7 -80 9 -27 9 -48 19 -48 22 0
26 33 110 44 110 7 0 33 -7 59 -16z m-979 -67 c70 -11 76 -41 9 -40 l-38 1 40
-13 c22 -8 34 -14 27 -14 -7 -1 -11 -5 -8 -10 4 -5 -8 -13 -26 -16 -18 -4 -64
-32 -102 -61 -38 -30 -75 -54 -82 -54 -7 0 -16 -5 -20 -12 -4 -7 -3 -8 4 -4 7
4 12 2 12 -5 0 -6 20 7 46 30 72 68 167 104 218 85 13 -5 12 -9 -7 -25 l-22
-19 38 6 c50 7 50 -17 1 -60 -90 -77 -100 -88 -46 -50 63 44 80 39 23 -6 -22
-18 -38 -37 -35 -41 3 -5 -2 -9 -10 -9 -18 0 -26 -11 -31 -47 -2 -16 -7 -37
-11 -48 -12 -33 1 -14 37 54 32 61 99 134 158 173 36 25 40 23 31 -15 -7 -32
-6 -33 25 -29 30 4 34 1 43 -30 17 -51 34 -225 27 -260 -6 -27 -5 -29 8 -17 8
8 13 17 10 22 -2 4 -1 12 3 18 4 8 9 7 16 -2 7 -10 8 -8 3 7 -4 15 0 24 10 28
12 4 14 14 9 43 -4 21 -10 43 -15 48 -4 6 -6 23 -5 38 3 23 0 26 -20 23 -17
-3 -21 -1 -17 11 4 11 8 12 14 2 5 -8 10 1 14 25 9 44 -1 59 -21 32 -14 -19
-14 -19 -14 2 0 12 -4 22 -10 22 -5 0 -10 9 -10 20 0 11 -9 25 -20 32 -61 38
43 32 125 -7 71 -34 119 -116 169 -290 l14 -50 1 53 c1 30 -6 66 -14 83 -9 16
-13 35 -9 41 4 6 3 8 -3 5 -6 -4 -14 0 -17 8 -4 12 0 14 22 10 22 -4 24 -4 7
4 -11 5 -14 10 -7 10 8 1 -1 13 -19 29 -19 15 -47 42 -63 60 -16 18 -48 43
-70 54 -23 12 -35 23 -28 25 6 3 10 8 8 12 -3 4 3 7 13 6 22 -1 63 -27 90 -56
11 -12 24 -18 29 -15 12 7 35 -18 25 -27 -9 -10 28 -48 40 -40 6 3 7 1 3 -5
-4 -7 -2 -12 4 -12 6 0 9 -4 6 -9 -3 -5 1 -14 8 -21 8 -6 18 -26 21 -43 4 -18
16 -47 27 -64 11 -18 16 -38 12 -44 -4 -7 -3 -9 3 -6 10 6 35 -57 39 -101 2
-12 10 -36 18 -52 26 -53 2 -31 -33 30 -19 32 -40 61 -47 64 -12 4 -11 0 1
-24 8 -16 21 -63 28 -105 7 -42 15 -74 17 -71 3 2 4 -24 3 -59 -1 -47 2 -65
13 -69 8 -3 14 -19 14 -36 0 -18 -4 -29 -10 -25 -5 3 -10 -3 -10 -14 0 -11 -9
-22 -19 -26 -16 -5 -18 -12 -14 -46 5 -35 4 -39 -12 -33 -15 6 -16 4 -7 -12
11 -21 -9 -84 -27 -84 -6 0 -8 -7 -5 -15 4 -8 1 -15 -6 -15 -6 0 -8 -5 -4 -12
5 -7 3 -8 -6 -3 -10 6 -12 4 -7 -8 3 -9 -1 -21 -11 -29 -15 -11 -15 -11 -5 3
7 9 10 19 6 22 -3 4 -1 12 4 19 6 7 9 21 8 31 -2 9 0 15 3 13 4 -2 6 35 6 82
-2 103 -17 334 -20 312 -2 -8 -8 -54 -14 -102 -8 -59 -16 -88 -25 -88 -16 0
-25 22 -25 64 0 36 -44 218 -60 244 -7 13 -9 6 -7 -28 1 -25 5 -48 10 -51 9
-7 37 -149 37 -190 0 -52 -25 -31 -66 54 -21 45 -38 88 -38 94 1 7 -2 11 -6 8
-4 -3 -11 12 -15 32 -9 50 -21 27 -29 -56 -16 -168 -37 -133 -30 53 2 72 2
127 -1 124 -3 -3 -10 -34 -16 -69 -13 -89 -39 -170 -52 -162 -6 3 -7 1 -3 -5
9 -15 -21 -85 -33 -78 -5 3 -7 -2 -5 -11 5 -20 -77 -170 -115 -211 l-25 -27
-7 30 c-11 45 -18 193 -9 170 5 -12 9 39 9 127 1 81 5 149 11 153 5 3 19 20
31 38 12 18 -12 -3 -53 -45 -42 -43 -81 -78 -87 -78 -8 0 -10 -9 -7 -22 3 -13
3 -17 0 -10 -3 6 -10 10 -15 6 -12 -7 -11 8 2 43 16 40 58 187 55 191 -2 1
-15 -31 -31 -70 -48 -125 -55 -141 -60 -136 -3 3 1 31 10 63 8 32 13 60 11 62
-2 2 -16 -30 -31 -72 -15 -41 -47 -109 -72 -150 -36 -61 -48 -75 -68 -75 -24
0 -25 2 -20 43 27 205 60 307 123 382 39 46 -77 -73 -131 -135 l-49 -55 6 35
c2 19 7 51 10 70 3 19 -3 1 -14 -40 -30 -112 -23 -121 34 -50 27 34 50 59 51
58 2 -2 -7 -40 -20 -84 -30 -103 -36 -146 -37 -249 0 -45 -4 -89 -9 -96 -7
-11 -9 -10 -9 4 0 11 -5 15 -11 11 -8 -4 -9 -35 -5 -95 5 -56 3 -89 -3 -89
-11 0 -72 124 -75 155 -1 11 -5 25 -8 30 -13 20 -28 132 -28 199 0 67 22 159
54 231 7 17 17 44 20 60 7 29 6 29 -8 9 -8 -11 -38 -58 -65 -104 -68 -111 -68
-58 0 75 l21 40 -31 -35 c-17 -19 -33 -43 -36 -52 -4 -10 -11 -18 -17 -18 -7
0 -6 -5 1 -14 10 -12 9 -14 -6 -11 -10 1 -24 -3 -32 -9 -22 -17 -7 34 40 133
31 68 35 81 18 65 -29 -26 -109 -130 -109 -142 0 -5 -9 -17 -20 -27 -11 -10
-20 -24 -20 -30 0 -7 -7 -18 -15 -25 -21 -17 -20 -13 24 82 23 49 66 118 103
162 34 43 70 87 78 99 14 20 13 20 -20 -3 -19 -13 -55 -41 -80 -63 -98 -85
-105 -68 -10 25 l95 94 -45 -7 c-25 -3 -54 -3 -65 2 -19 7 -19 8 2 8 32 1 102
34 158 76 48 35 49 36 18 30 -65 -13 -38 4 111 70 l49 22 -49 7 c-86 12 -94
20 -29 28 33 4 107 16 165 26 58 10 107 16 110 12 3 -4 23 -10 44 -13z m-835
-48 c23 -56 25 -69 13 -69 -4 0 -14 21 -21 46 -8 25 -20 48 -27 51 -18 7 -18
23 0 23 7 0 23 -23 35 -51z m2616 12 c18 -36 13 -52 -25 -75 -39 -22 -38 -12
0 21 17 13 27 29 24 35 -4 5 -15 1 -28 -11 -17 -16 -25 -18 -34 -9 -8 8 -16 8
-29 -3 -20 -15 24 38 47 58 22 18 28 16 45 -16z m-539 -30 c1 -18 -1 -28 -5
-22 -5 7 -12 2 -19 -14 -17 -36 -15 -53 6 -58 14 -4 14 -5 -3 -6 -42 -2 -47
12 -21 64 23 45 24 49 8 62 -15 12 -15 13 8 11 20 -3 25 -9 26 -37z m-2461
-32 c24 -54 27 -71 23 -133 -13 -198 -181 -352 -345 -316 -62 14 -153 59 -153
77 0 8 16 3 48 -16 124 -76 244 -62 339 42 65 70 86 119 91 214 4 74 2 87 -22
132 -29 55 -30 61 -17 61 4 0 21 -28 36 -61z m282 0 c20 -49 20 -55 5 -66 -9
-7 -23 -13 -31 -13 -13 1 -13 3 3 15 24 18 15 58 -20 90 -17 16 -21 25 -12 28
24 10 32 1 55 -54z m-544 24 c-7 -2 -21 -2 -30 0 -10 3 -4 5 12 5 17 0 24 -2
18 -5z m2844 -28 c23 -14 43 -28 43 -31 0 -11 -51 -104 -57 -104 -10 0 -93 50
-93 57 0 9 53 103 58 103 3 0 25 -11 49 -25z m-2773 -24 c9 -10 19 -32 22 -49
7 -33 2 -36 -43 -35 -26 1 -12 -28 16 -33 17 -4 38 -15 48 -26 18 -20 17 -21
-35 -69 -29 -27 -59 -49 -65 -49 -17 0 -117 90 -117 105 0 6 20 20 45 31 48
19 58 34 25 34 -16 0 -20 7 -20 33 0 48 34 84 76 79 18 -2 40 -12 48 -21z
m369 -26 c30 -61 31 -65 18 -65 -4 0 -18 23 -29 51 -19 45 -24 50 -44 43 -20
-6 -21 -5 -9 10 22 27 35 19 64 -39z m-259 -1 c3 -8 2 -12 -4 -9 -6 3 -10 10
-10 16 0 14 7 11 14 -7z m2951 -42 c-3 -3 -11 0 -18 7 -9 10 -8 11 6 5 10 -3
15 -9 12 -12z m-2243 -92 c17 -6 18 -9 6 -9 -15 -1 -15 -5 -6 -32 13 -38 3
-51 -13 -15 -7 14 -16 26 -21 26 -28 0 -168 -87 -168 -104 0 -6 16 -35 35 -63
31 -46 38 -51 58 -44 14 6 21 16 20 30 -2 18 0 20 16 9 15 -9 23 -9 36 2 9 7
14 19 11 26 -3 7 2 15 10 18 22 8 17 -20 -14 -83 -16 -31 -42 -85 -60 -121
-18 -37 -57 -90 -89 -124 -46 -47 -53 -57 -33 -51 26 8 128 64 167 91 22 16
22 15 -4 -45 -14 -33 -29 -59 -32 -58 -3 1 -16 -7 -29 -18 l-23 -20 23 -7 c20
-5 19 -6 -8 -7 -38 -1 -93 -49 -72 -63 9 -5 7 -8 -8 -8 -17 0 -64 -47 -64 -64
0 -3 17 -7 38 -9 35 -3 35 -4 -9 -5 -25 -1 -48 -4 -51 -7 -3 -3 -2 -25 2 -50
6 -38 4 -45 -10 -45 -13 0 -16 6 -12 25 5 27 -12 35 -22 9 -3 -9 -6 -29 -6
-46 0 -22 -4 -29 -14 -25 -17 7 -56 -61 -56 -98 0 -14 -4 -25 -9 -25 -12 0
-44 -107 -39 -128 3 -10 -2 -24 -9 -31 -13 -11 -13 -15 -1 -22 8 -5 8 -9 2 -9
-7 0 -14 -9 -17 -21 -4 -16 0 -23 14 -26 16 -5 18 -8 7 -14 -8 -5 8 -9 41 -9
40 0 57 5 67 18 8 10 13 12 14 5 0 -20 20 -15 20 5 0 18 18 42 32 42 4 0 11
-15 16 -32 10 -41 39 -48 63 -17 10 13 19 18 19 12 0 -20 38 -15 45 5 6 20 51
46 65 37 4 -3 8 25 9 62 0 67 10 86 41 80 10 -1 16 -17 18 -47 2 -25 9 -48 15
-52 7 -5 1 -8 -14 -8 -15 0 -29 -7 -33 -15 -5 -14 6 -19 42 -18 15 1 16 -14 1
-19 -7 -2 -9 -13 -5 -26 5 -15 15 -22 33 -22 24 0 25 2 19 48 -3 26 -3 41 0
35 3 -7 13 -13 21 -13 10 0 13 -6 9 -16 -13 -34 3 -54 43 -54 41 0 67 20 58
44 -4 9 4 16 26 20 34 7 47 -4 47 -41 0 -33 19 -38 26 -6 3 15 7 32 8 38 1 5
8 -12 15 -39 13 -54 13 -55 -19 -61 -30 -6 -36 -13 -22 -27 9 -9 12 -8 13 7 0
11 3 14 6 8 2 -7 13 -13 23 -13 10 0 20 -8 23 -17 3 -15 6 -14 15 7 6 14 14
39 19 55 6 25 8 17 13 -45 6 -77 7 -78 33 -10 3 8 6 -6 6 -32 l1 -47 -56 -11
c-31 -7 -65 -9 -76 -7 -11 3 -27 -2 -38 -13 -11 -11 -22 -15 -25 -10 -4 6 -22
10 -41 10 -25 0 -34 -4 -35 -17 -1 -17 -2 -17 -6 0 -7 27 -43 22 -43 -7 0 -25
-34 -43 -46 -25 -3 6 -11 5 -20 -2 -8 -6 -17 -9 -20 -6 -3 3 -14 -3 -25 -14
-25 -25 -49 -24 -56 1 -6 24 -13 25 -38 6 -10 -7 -16 -20 -12 -29 3 -8 3 -18
-1 -21 -3 -4 -11 8 -16 25 -11 31 -14 32 -68 35 l-58 3 0 -40 c0 -35 -3 -39
-25 -39 -23 0 -25 4 -25 43 -1 39 -2 41 -15 23 -13 -17 -15 -18 -15 -3 0 12
-9 17 -27 18 l-28 2 28 4 c21 3 27 10 28 31 l2 27 4 -27 c4 -27 6 -28 69 -28
49 0 66 4 71 15 8 23 1 26 -56 27 -47 0 -51 2 -51 24 0 17 -6 24 -20 24 -11 0
-20 6 -20 14 0 10 -19 15 -67 18 -38 3 -70 4 -72 2 -10 -8 0 -118 11 -126 10
-6 10 -8 1 -8 -15 0 -18 -73 -3 -99 13 -26 114 -29 129 -4 10 17 10 17 11 1 0
-11 8 -18 21 -18 13 0 18 4 13 13 -6 9 -4 9 7 0 7 -7 23 -13 36 -13 27 0 31
-18 6 -28 -14 -5 -18 -19 -18 -52 0 -38 -3 -45 -20 -45 -16 0 -21 8 -23 43 -2
23 -7 42 -13 42 -5 0 -9 -5 -9 -10 0 -6 -6 -5 -14 2 -10 9 -11 15 -2 20 6 4
-9 8 -34 8 -28 0 -40 -3 -32 -9 10 -6 8 -10 -10 -16 -12 -4 -27 -7 -31 -6 -11
2 3 -42 16 -50 5 -4 7 -11 3 -17 -9 -15 19 -22 95 -22 l69 0 -12 -25 c-10 -22
-17 -25 -69 -25 l-59 0 11 -27 c6 -16 18 -36 26 -46 23 -25 1 -61 -57 -95 -25
-14 -64 -39 -87 -54 -24 -16 -49 -28 -55 -27 -17 3 -68 -22 -68 -33 0 -4 -4
-8 -9 -8 -5 0 -8 12 -8 26 -1 16 2 21 7 14 10 -17 61 16 53 35 -4 12 -12 11
-44 -5 -21 -11 -39 -16 -39 -11 0 5 9 13 20 16 11 3 20 11 20 16 0 6 5 7 12 3
7 -4 8 -3 4 4 -4 7 -2 12 4 12 6 0 8 5 4 12 -6 9 -9 9 -12 0 -2 -7 -8 -10 -13
-6 -5 3 -9 0 -9 -7 0 -7 -3 -10 -6 -6 -6 6 -93 -28 -107 -42 -9 -9 6 -48 40
-103 23 -37 30 -68 16 -68 -5 0 -26 33 -48 73 -35 63 -44 72 -65 68 -35 -5
-232 -99 -227 -108 3 -5 -8 -8 -24 -9 -17 -1 -29 4 -29 11 0 7 6 12 13 12 6
-1 61 22 120 51 60 28 112 52 115 52 4 0 15 7 25 15 18 13 18 17 -13 97 -18
46 -38 110 -45 143 l-12 60 -37 -2 c-30 -2 -36 1 -36 17 0 17 5 19 25 14 33
-8 40 11 25 80 l-11 56 -40 0 c-21 0 -39 -3 -39 -7 0 -15 -46 -28 -88 -25 -37
3 -42 6 -42 28 0 14 -4 22 -10 19 -20 -12 -10 8 16 31 28 27 77 31 120 12 23
-11 28 -10 45 11 l19 23 0 -21 c0 -13 4 -19 11 -16 7 5 10 51 9 129 -1 66 1
129 5 138 4 10 5 38 3 63 -2 25 0 45 4 45 10 0 10 37 1 43 -5 2 -2 2 4 1 7 -2
13 3 13 10 0 7 14 62 31 121 28 97 29 110 16 120 -9 6 -69 29 -133 51 -65 21
-110 40 -100 42 9 2 65 -13 123 -33 147 -51 137 -51 164 8 74 160 178 313 303
445 67 72 85 96 92 130 5 26 14 25 14 -2 0 -27 1 -26 68 27 89 71 143 107 223
148 40 21 64 39 61 47 -3 10 -7 10 -18 1 -11 -9 -14 -8 -14 8 0 10 6 25 13 32
10 11 10 13 0 7 -8 -4 -13 -1 -13 7 0 31 14 25 31 -13 10 -22 28 -44 41 -50z
m2179 80 c26 -14 27 -85 1 -99 -19 -10 -92 -11 -92 0 0 3 -3 20 -6 37 -11 53
46 89 97 62z m-2872 -44 c-9 -8 -10 -7 -5 7 3 10 7 24 7 30 1 7 3 4 6 -7 3
-10 -1 -23 -8 -30z m3011 18 c0 -2 -9 0 -20 6 -11 6 -20 13 -20 16 0 2 9 0 20
-6 11 -6 20 -13 20 -16z m-898 -46 c51 -23 122 -59 157 -80 l64 -40 23 29 c26
31 31 22 10 -17 -13 -23 -12 -26 16 -47 17 -12 35 -20 39 -17 5 3 9 -1 9 -8 1
-7 16 -25 35 -39 165 -125 347 -358 442 -566 21 -45 44 -83 51 -83 7 0 53 16
102 35 87 34 124 44 105 27 -6 -5 -54 -25 -107 -46 -54 -21 -98 -43 -98 -48 0
-6 9 -41 19 -77 11 -36 29 -118 41 -181 14 -75 27 -119 37 -127 16 -12 15 -13
0 -13 -15 0 -17 -13 -17 -106 0 -120 7 -134 64 -134 27 0 36 4 37 18 1 16 2
16 6 0 3 -14 15 -18 54 -18 49 0 91 -21 69 -35 -5 -3 -10 -17 -10 -30 0 -31
-5 -33 -67 -22 -60 10 -69 24 -20 30 17 2 -2 5 -44 5 -54 2 -78 -2 -81 -10
-11 -31 -9 -122 3 -129 10 -6 6 -15 -14 -35 -24 -24 -26 -29 -12 -36 9 -6 15
-23 15 -45 0 -32 -2 -35 -24 -31 -15 3 -27 0 -30 -8 -3 -8 1 -14 9 -14 21 0
45 -29 45 -54 0 -20 14 -28 105 -62 58 -21 105 -45 105 -51 0 -15 -16 -17 -24
-4 -4 5 -27 16 -52 25 -45 15 -46 15 -52 -7 -3 -12 -25 -60 -48 -106 l-43 -85
59 -39 60 -39 -27 -46 c-38 -67 -38 -67 -77 -42 -26 15 -36 18 -37 8 0 -7 -4
-3 -9 10 -9 20 -25 27 -57 23 -16 -2 -17 21 -2 36 17 17 28 80 16 92 -17 17
-1 24 23 11 18 -10 24 -8 36 7 15 20 18 42 7 44 -5 1 -18 3 -31 4 -28 3 -28 3
-35 42 -8 43 12 60 50 41 21 -10 29 -22 33 -48 5 -35 5 -35 39 38 19 41 30 77
25 82 -5 5 -21 12 -36 15 -22 6 -28 4 -28 -9 0 -22 -51 -21 -76 2 -18 18 -20
16 -72 -90 -30 -59 -58 -108 -63 -108 -16 0 -10 18 31 99 22 43 47 97 55 121
14 40 14 42 -2 29 -12 -10 -15 -10 -9 -1 5 8 -4 17 -29 28 -41 17 -69 9 -40
-13 16 -11 16 -13 3 -13 -12 0 -15 -8 -14 -30 3 -36 -2 -36 -48 -9 -20 12 -36
19 -37 17 -6 -30 -4 -38 11 -43 10 -3 24 -12 30 -20 11 -13 7 -13 -24 0 -35
15 -38 15 -54 -5 -17 -21 -17 -21 -107 38 -118 78 -119 79 -95 127 29 57 26
65 -20 65 -31 0 -40 -4 -41 -17 -1 -17 -2 -17 -6 0 -2 9 -12 17 -21 17 -15 1
-15 2 1 11 25 15 21 29 -10 30 -23 1 -25 2 -8 7 17 6 20 16 20 60 0 50 -1 52
-28 52 -16 0 -26 4 -23 9 4 5 0 12 -6 14 -7 3 1 6 17 6 17 1 36 6 43 13 9 9
12 9 12 -1 0 -18 149 -9 161 10 5 8 8 32 7 54 l-3 40 -79 3 -78 2 4 -40 c2
-28 0 -40 -9 -40 -7 0 -12 10 -12 23 0 12 -2 32 -6 45 -7 21 -5 22 51 23 142
2 134 -2 134 54 0 34 -1 35 -42 37 l-43 1 43 4 c48 5 53 22 9 34 -20 5 -27 4
-27 -7 0 -8 -7 -14 -15 -14 -8 0 -14 6 -12 13 1 7 -8 12 -23 12 -34 0 -45 -6
-29 -16 12 -7 11 -9 -1 -10 -8 0 -4 -5 10 -9 l25 -8 -24 -1 c-19 -1 -23 -5
-19 -26 5 -25 5 -25 -68 -25 -67 0 -74 -2 -74 -20 0 -17 7 -20 48 -22 l47 -1
-42 -4 -43 -4 0 -45 c0 -44 -5 -49 -34 -38 -11 4 -16 19 -16 45 0 32 -4 39
-19 39 -15 0 -21 -8 -23 -32 l-4 -33 -11 25 c-9 18 -12 20 -12 8 -1 -18 -21
-26 -21 -8 0 5 -7 7 -15 4 -9 -4 -15 0 -15 9 0 18 -57 32 -93 23 -13 -3 -36
-1 -52 4 -30 10 -30 10 -2 6 15 -2 27 0 27 3 0 3 38 4 85 2 81 -3 85 -2 85 18
0 20 -5 21 -80 21 -57 0 -80 -4 -80 -12 0 -10 -2 -10 -9 0 -5 9 -37 12 -118
11 -83 -1 -117 3 -141 15 -17 9 -38 13 -46 10 -13 -5 -16 3 -16 52 1 54 2 57
15 40 8 -11 15 -30 15 -43 0 -13 4 -23 10 -23 5 0 10 33 12 73 l3 72 22 -75
c19 -66 21 -70 22 -37 1 42 -7 40 129 37 60 -1 92 2 92 9 0 12 -21 13 -137 12
-70 -1 -73 0 -73 22 0 13 6 32 14 43 14 18 15 18 21 -8 9 -36 21 -28 29 20 l6
39 97 -2 98 -1 -3 -32 c-3 -29 -1 -32 22 -32 21 0 26 5 26 24 0 34 14 40 97
39 83 -1 93 -5 93 -39 0 -21 5 -24 35 -24 28 0 37 5 45 24 17 45 42 42 54 -6
5 -21 13 -28 30 -28 25 0 36 17 36 56 0 13 4 24 9 24 4 0 6 -10 4 -22 -2 -13
3 -32 11 -43 14 -18 16 -19 31 -4 15 15 15 23 0 100 -8 46 -24 102 -35 124
-11 23 -20 45 -20 50 0 5 -9 28 -21 52 -17 36 -25 43 -50 43 -16 0 -29 5 -29
10 0 6 5 10 10 10 6 0 10 4 10 9 0 5 -9 7 -20 4 -23 -6 -25 0 -8 26 16 25 -7
81 -33 81 -11 0 -16 5 -13 13 3 8 -21 41 -53 75 -45 50 -63 62 -87 62 -27 1
-29 2 -12 11 17 10 16 14 -18 43 -30 26 -76 106 -61 106 2 0 33 -15 67 -34
111 -60 121 -57 52 15 -33 35 -78 91 -100 124 -59 88 -60 89 -41 82 10 -4 24
-10 33 -13 11 -5 6 9 -15 42 -16 27 -27 51 -24 54 3 3 8 -1 10 -7 9 -25 44
-14 55 18 6 16 12 28 14 26 2 -2 -1 -18 -7 -36 -9 -24 -8 -35 2 -47 12 -15 16
-13 42 17 l28 34 -16 -38 c-16 -38 -13 -63 7 -51 5 3 26 31 45 62 l36 56 -29
23 c-16 13 -64 41 -107 64 -63 33 -81 38 -93 29 -7 -7 -14 -19 -14 -26 0 -8
-5 -14 -10 -14 -7 0 -8 13 -5 34 6 28 4 35 -13 40 -19 7 -51 36 -38 36 3 0 48
-19 98 -42z m-2130 -70 c-6 -6 -15 -8 -19 -4 -4 4 -1 11 7 16 19 12 27 3 12
-12z m3346 -15 c-10 -2 -28 -2 -40 0 -13 2 -5 4 17 4 22 1 32 -1 23 -4z m-85
-21 c-10 -10 -20 -17 -22 -15 -3 2 -13 -9 -23 -24 -10 -16 -18 -22 -18 -15 0
8 14 27 31 43 34 32 60 40 32 11z m86 -22 c23 0 51 -44 51 -80 0 -46 -35 -80
-82 -80 -37 0 -82 45 -74 75 3 11 6 28 6 38 0 20 59 59 78 52 8 -3 17 -5 21
-5z m86 -26 c0 -14 -3 -28 -8 -31 -4 -2 -7 11 -5 31 2 40 11 40 13 0z m-3688
-16 c-3 -8 -6 -5 -6 6 -1 11 2 17 5 13 3 -3 4 -12 1 -19z m147 8 c-3 -8 -12
-12 -21 -9 -12 5 -12 7 -1 14 20 13 28 11 22 -5z m-94 -16 c0 -5 -4 -10 -10
-10 -5 0 -10 5 -10 10 0 6 5 10 10 10 6 0 10 -4 10 -10z m40 -4 c0 -3 -4 -8
-10 -11 -5 -3 -10 -1 -10 4 0 6 5 11 10 11 6 0 10 -2 10 -4z m3357 -33 c-3
-10 -5 -4 -5 12 0 17 2 24 5 18 2 -7 2 -21 0 -30z m-537 -2 c0 -9 -9 -22 -19
-28 -16 -10 -22 -9 -32 3 -9 11 -8 18 6 34 19 21 45 16 45 -9z m784 14 c-7
-16 -24 -21 -24 -6 0 8 7 13 27 20 1 1 0 -6 -3 -14z m-204 -90 c13 -14 21 -25
18 -25 -2 0 -15 11 -28 25 -13 14 -21 25 -18 25 2 0 15 -11 28 -25z m-30 -20
c19 -23 8 -68 -20 -82 -33 -17 -64 3 -68 45 -5 51 56 76 88 37z m123 -22 c-7
-2 -19 -2 -25 0 -7 3 -2 5 12 5 14 0 19 -2 13 -5z m-3263 -60 c0 -11 -7 -9
-30 7 -17 12 -28 26 -25 31 8 12 55 -20 55 -38z m706 5 c1 -21 -1 -26 -7 -17
-11 17 -12 65 -2 55 4 -4 8 -21 9 -38z m2051 -15 c-14 -15 -30 -23 -34 -19 -4
4 5 19 21 32 37 32 48 21 13 -13z m-1491 -35 c-13 -142 -30 -238 -40 -235 -14
5 -26 66 -14 73 5 3 4 12 -3 20 -20 24 -5 131 22 160 32 34 40 30 35 -18z
m-688 5 c-12 -13 -23 -21 -25 -19 -2 2 -16 -7 -30 -20 -14 -13 -29 -21 -32
-18 -3 3 10 19 29 36 19 16 34 33 33 37 -1 4 9 7 23 7 l24 0 -22 -23z m12
-138 c-43 -97 -55 -97 -16 1 36 92 51 119 54 103 1 -8 -16 -54 -38 -104z
m2281 84 c-13 -10 -28 -19 -35 -19 -6 0 3 11 19 24 17 13 32 22 35 19 3 -2 -6
-13 -19 -24z m-3002 -39 c20 -14 22 -20 12 -38 -7 -12 -16 -22 -22 -22 -20 0
-98 63 -92 74 22 40 33 38 102 -14z m1280 -12 l-22 -23 19 33 c10 18 20 28 22
23 2 -6 -7 -21 -19 -33z m486 -8 c30 -59 32 -80 6 -80 -10 0 -33 -3 -51 -6
-30 -7 -31 -6 -27 22 4 26 38 114 44 114 2 0 14 -22 28 -50z m-116 -34 c12
-65 10 -70 -33 -80 -24 -6 -27 -4 -22 9 4 10 2 14 -6 9 -6 -4 -2 11 10 32 11
21 23 52 27 68 8 37 11 32 24 -38z m-423 18 c-3 -9 -9 -27 -12 -40 -3 -13 -11
-24 -18 -24 -15 0 -44 20 -29 20 6 0 20 14 30 30 18 31 40 42 29 14z m1014
-29 c0 -5 -5 -3 -10 5 -5 8 -10 20 -10 25 0 6 5 3 10 -5 5 -8 10 -19 10 -25z
m-975 6 c-3 -6 -11 -11 -16 -11 -5 0 -4 6 3 14 14 16 24 13 13 -3z m-1362 -35
c16 -13 15 -46 -3 -46 -13 0 -100 41 -100 47 0 4 7 14 16 24 15 16 19 17 43 4
14 -8 34 -21 44 -29z m3242 15 c-10 -17 -95 -60 -100 -51 -3 4 14 20 38 34 42
25 73 34 62 17z m-1840 -21 c3 -5 2 -10 -4 -10 -5 0 -13 5 -16 10 -3 6 -2 10
4 10 5 0 13 -4 16 -10z m594 -95 c0 -5 -4 -3 -9 5 -5 8 -9 22 -9 30 0 16 17
-16 18 -35z m-2069 12 c38 -18 46 -32 31 -55 -7 -11 -17 -11 -60 4 -54 20 -57
24 -41 54 11 20 21 19 70 -3z m3348 12 c-5 -14 -88 -50 -88 -38 0 5 19 19 43
29 50 23 50 23 45 9z m-3608 -49 c0 -11 -4 -20 -10 -20 -5 0 -10 9 -10 20 0
11 5 20 10 20 6 0 10 -9 10 -20z m3790 10 c8 -5 11 -12 7 -16 -4 -4 -15 0 -24
9 -18 18 -8 23 17 7z m90 -2 c0 6 8 12 17 12 12 0 14 -3 6 -11 -14 -14 -73
-23 -73 -10 0 14 34 19 42 6 5 -6 8 -6 8 3z m-3845 -8 c-3 -5 -11 -10 -16 -10
-6 0 -7 5 -4 10 3 6 11 10 16 10 6 0 7 -4 4 -10z m1955 -25 c-7 -8 -8 -15 -2
-15 5 0 15 7 22 15 7 9 19 14 27 11 7 -3 13 -1 13 5 0 6 4 8 9 4 10 -6 7 -37
-5 -56 -3 -6 7 -4 24 5 29 15 31 15 53 -12 13 -15 21 -23 17 -18 -11 14 -10
46 2 46 5 0 13 -7 18 -16 6 -11 11 -13 16 -5 8 12 46 16 46 4 0 -3 -8 -16 -17
-27 -10 -12 -4 -9 13 7 17 15 40 29 52 32 35 6 26 -18 -18 -48 -15 -11 -19
-17 -9 -17 17 0 58 26 77 48 20 26 15 -66 -8 -139 -10 -35 -18 -65 -16 -67 2
-2 13 7 24 19 l21 22 -2 -22 c-1 -11 -5 -21 -10 -21 -4 0 -6 -4 -2 -10 15 -24
-104 -228 -126 -215 -5 4 -8 1 -7 -7 2 -7 -3 -12 -9 -10 -7 1 -13 -2 -13 -7 0
-13 -83 -91 -97 -91 -6 0 -21 -12 -33 -27 -12 -16 -18 -21 -14 -13 5 8 -9 2
-30 -14 -31 -23 -50 -30 -92 -31 -30 -1 -54 2 -54 5 0 4 -18 19 -40 34 -22 14
-40 23 -40 20 0 -4 -13 7 -30 24 -16 18 -30 29 -30 25 0 -3 -11 4 -25 17 -14
13 -25 30 -25 37 0 8 -4 12 -8 9 -9 -5 -91 83 -90 97 0 5 -12 21 -26 36 -17
18 -24 34 -20 44 3 10 1 17 -6 17 -6 0 -8 4 -5 10 3 5 1 19 -6 31 -10 19 -9
21 5 16 20 -8 20 -4 1 34 -9 16 -17 46 -19 66 l-3 37 32 -37 c41 -47 50 -47
26 1 -10 20 -22 53 -26 72 l-7 35 21 -22 c12 -13 28 -23 36 -23 8 0 1 12 -17
30 -31 32 -33 52 -5 56 11 1 23 -9 32 -26 18 -35 35 -47 28 -20 -6 22 3 25 27
10 10 -6 20 -4 31 6 19 17 35 4 24 -18 -4 -7 2 -3 12 8 18 20 21 20 47 7 28
-15 28 -16 24 -91 l-5 -77 23 53 c13 28 26 52 30 52 3 0 3 -19 -1 -42 l-7 -43
39 51 c45 60 63 78 83 82 18 4 40 22 38 30 -2 12 14 43 20 38 3 -3 -1 -12 -8
-21z m-744 -32 c-10 -26 -18 -8 -9 23 5 21 8 24 11 11 2 -10 1 -25 -2 -34z
m28 -14 c-8 -16 -16 -29 -17 -29 -1 0 -1 18 1 40 3 33 7 39 18 29 11 -9 11
-16 -2 -40z m-255 -21 c-1 -55 -2 -59 -10 -33 -5 17 -7 38 -5 47 2 10 0 21 -6
24 -8 5 6 23 20 24 1 0 2 -28 1 -62z m153 23 c-3 -29 -1 -33 14 -27 13 5 14 4
6 -7 -7 -8 -22 -13 -34 -12 -17 1 -24 9 -26 29 -5 38 5 58 25 54 14 -3 17 -12
15 -37z m1490 -31 c6 0 8 11 6 25 -3 13 -1 22 3 19 5 -3 9 -16 9 -30 0 -17 -5
-24 -20 -24 -17 0 -20 6 -18 43 l1 42 4 -37 c2 -21 9 -38 15 -38z m86 28 c10
-37 10 -38 -16 -37 -15 0 -21 3 -14 6 6 2 12 21 12 41 0 42 4 40 18 -10z m82
2 c0 -22 -3 -40 -7 -40 -5 0 -7 17 -6 37 2 44 2 43 8 43 3 0 5 -18 5 -40z
m-1753 -27 c-3 -10 -5 -4 -5 12 0 17 2 24 5 18 2 -7 2 -21 0 -30z m113 -58 c0
-14 4 -25 8 -25 5 0 7 -14 6 -30 -1 -20 4 -35 18 -44 18 -13 16 -14 -22 -18
-47 -4 -62 8 -54 43 3 13 6 29 7 34 2 6 6 16 11 23 4 7 5 19 2 27 -3 9 1 15 9
15 9 0 15 -10 15 -25z m1535 15 c3 -5 1 -10 -4 -10 -6 0 -11 5 -11 10 0 6 2
10 4 10 3 0 8 -4 11 -10z m102 -6 c-3 -3 -12 -4 -19 -1 -8 3 -5 6 6 6 11 1 17
-2 13 -5z m-1899 -42 c-13 -3 -18 -12 -17 -35 2 -30 2 -31 6 -4 6 38 25 34 21
-5 -3 -31 -6 -33 -40 -33 -23 0 -38 5 -38 12 0 7 7 10 15 7 11 -5 15 1 15 19
0 30 27 60 43 50 8 -5 6 -9 -5 -11z m92 -22 c0 -22 0 -43 1 -47 0 -4 -5 -9
-11 -11 -8 -3 -11 7 -9 30 2 18 0 38 -4 44 -3 6 -4 14 0 18 15 15 23 3 23 -34z
m98 -43 c16 -4 16 -4 0 -12 -24 -10 -58 3 -39 14 7 5 12 21 11 37 -3 47 3 53
7 7 3 -29 9 -43 21 -46z m350 58 c-3 -3 -9 2 -12 12 -6 14 -5 15 5 6 7 -7 10
-15 7 -18z m1022 -4 c-37 -52 -61 -71 -88 -70 l-27 0 30 15 c17 9 40 30 52 48
11 18 28 33 36 33 14 0 13 -4 -3 -26z m190 -9 c0 -46 4 -52 32 -44 17 4 19 11
15 43 -3 22 -1 39 4 39 5 0 9 -16 9 -35 0 -22 6 -38 15 -41 35 -14 10 -24 -60
-24 -43 0 -75 4 -75 10 0 6 7 10 16 10 13 0 15 7 10 33 -7 35 -1 47 21 47 8 0
13 -13 13 -38z m150 -18 c0 -40 -2 -44 -25 -44 -20 0 -25 5 -25 24 0 41 18 76
35 70 10 -4 15 -20 15 -50z m130 5 c0 -47 -2 -50 -22 -47 -19 2 -23 9 -21 37
2 45 10 61 28 61 11 0 15 -12 15 -51z m-2775 29 c26 -11 33 -40 16 -67 -10
-16 -61 -7 -61 10 0 8 5 7 15 -1 8 -7 22 -10 30 -6 22 8 18 43 -6 56 -24 14
-24 14 -43 -30 -18 -41 -21 -27 -5 19 12 34 17 36 54 19z m3491 -24 c5 -26 3
-39 -7 -45 -27 -17 -47 -9 -58 23 -13 36 -13 34 19 47 37 15 39 14 46 -25z
m-2393 -21 c4 -19 2 -33 -3 -33 -6 0 -10 17 -10 37 0 43 5 41 13 -4z m110 7
c9 -11 23 -20 31 -20 7 0 19 -6 25 -14 10 -12 9 -14 -6 -11 -10 2 -23 4 -30 4
-13 1 -59 61 -46 61 5 0 16 -9 26 -20z m1167 0 c0 -11 7 -20 16 -20 8 0 13 -4
10 -9 -8 -12 -116 -13 -116 -1 0 5 9 14 20 20 14 7 20 7 20 0 0 -5 9 -10 21
-10 16 0 19 4 14 20 -4 11 -2 20 4 20 6 0 11 -9 11 -20z m-1200 -24 c0 -2 -11
-6 -25 -8 -14 -3 -25 -1 -25 3 0 5 11 9 25 9 14 0 25 -2 25 -4z m1359 -93 c1
37 21 34 21 -4 0 -27 18 -59 34 -59 3 0 6 19 8 43 2 35 7 43 26 45 20 3 22 -1
22 -41 0 -56 -4 -58 -187 -56 -122 1 -136 2 -118 15 14 10 18 24 17 49 -2 19
2 35 8 35 5 0 10 -13 10 -29 0 -53 8 -61 61 -61 l49 0 0 44 c0 34 4 45 18 48
12 3 19 -5 23 -27 l6 -30 2 28z m-1798 -10 c1 -21 1 -41 0 -45 0 -5 17 -8 40
-8 l41 0 -4 45 c-2 31 1 45 9 45 9 0 13 -16 13 -45 0 -41 2 -45 24 -45 18 0
25 7 29 30 4 16 4 37 1 45 -4 8 -1 15 5 15 6 0 11 -15 11 -34 0 -19 5 -36 12
-38 6 -2 9 -9 5 -15 -4 -6 -60 -11 -139 -12 -82 -1 -128 2 -119 8 7 4 22 6 32
4 17 -5 19 0 19 41 0 55 19 63 21 9z m359 8 c0 -17 5 -33 10 -36 6 -4 8 -10 5
-15 -3 -5 14 -11 37 -13 29 -2 20 -4 -28 -5 l-71 -2 5 28 c3 15 7 21 9 15 10
-28 25 -11 21 22 -2 19 0 35 4 35 4 0 8 -13 8 -29z m1670 2 c0 -16 3 -37 6
-48 4 -16 0 -20 -21 -21 -25 -2 -25 -1 -9 17 11 13 15 28 11 49 -4 17 -2 30 3
30 6 0 10 -12 10 -27z m-1501 -40 c1 -21 -4 -25 -25 -22 -4 0 -11 -5 -15 -13
-7 -10 -9 -9 -9 5 0 9 7 17 15 17 11 0 15 11 16 38 0 30 2 33 9 17 5 -11 9
-30 9 -42z m991 5 c0 -16 17 -23 43 -19 4 0 7 -3 7 -9 0 -5 -20 -10 -45 -10
-33 0 -45 4 -45 15 0 8 5 15 10 15 6 0 10 12 10 28 0 21 2 24 10 12 5 -8 10
-23 10 -32z m-2285 -6 l40 -10 -42 -1 c-31 -1 -43 -6 -46 -18 -3 -10 -5 0 -6
22 0 22 3 35 7 29 4 -6 25 -16 47 -22z m2915 -28 c0 -2 -12 -4 -26 -4 -14 0
-23 4 -20 9 6 8 46 4 46 -5z m-2203 -66 c-3 -7 -5 -2 -5 12 0 14 2 19 5 13 2
-7 2 -19 0 -25z m153 16 c0 -8 -4 -12 -10 -9 -5 3 -10 10 -10 16 0 5 5 9 10 9
6 0 10 -7 10 -16z m-880 -34 c43 0 58 -9 53 -31 -3 -10 -10 -19 -15 -19 -5 0
-16 -7 -25 -16 -9 -8 -22 -13 -30 -10 -8 3 -23 6 -34 6 -14 0 -19 7 -19 27 0
26 32 69 38 52 2 -5 16 -9 32 -9z m107 -16 c-3 -3 -12 -4 -19 -1 -8 3 -5 6 6
6 11 1 17 -2 13 -5z m3 -36 c0 -18 -2 -20 -9 -8 -6 8 -7 18 -5 22 9 14 14 9
14 -14z m0 -68 c0 -5 -8 -10 -17 -10 -15 0 -16 2 -3 10 19 12 20 12 20 0z m-6
-35 c-4 -8 -10 -12 -15 -9 -11 6 -2 24 11 24 5 0 7 -7 4 -15z m-46 -29 c-3
-19 -9 -21 -63 -21 -54 0 -60 2 -63 22 -3 19 2 22 35 25 68 5 94 -2 91 -26z
m1459 -8 c-3 -7 -5 -2 -5 12 0 14 2 19 5 13 2 -7 2 -19 0 -25z m535 -220 c-6
-6 -17 13 -27 49 -10 32 -22 63 -27 70 -6 8 2 33 24 72 l33 60 3 -121 c1 -67
-1 -125 -6 -130z m1742 205 c-4 -21 -7 -46 -6 -55 0 -10 -4 -18 -9 -18 -11 0
-7 79 4 98 14 22 18 13 11 -25z m-889 7 c3 -5 1 -10 -4 -10 -6 0 -11 5 -11 10
0 6 2 10 4 10 3 0 8 -4 11 -10z m-1532 -32 c-17 -13 -54 -50 -81 -83 -70 -84
-152 -162 -152 -144 0 20 22 51 92 131 61 69 70 85 41 70 -10 -5 -61 -21 -113
-36 -135 -38 -290 -96 -292 -110 -1 -10 -3 -58 -7 -161 -1 -36 -5 -43 -46 -67
-27 -17 -52 -42 -65 -67 -13 -27 -27 -41 -40 -41 -34 0 -32 19 8 68 48 57 71
102 106 210 16 47 35 86 45 92 38 20 300 103 382 121 47 10 97 23 110 28 41
16 45 12 12 -11z m164 -30 c-3 -7 -5 -2 -5 12 0 14 2 19 5 13 2 -7 2 -19 0
-25z m-907 7 c0 -8 -4 -15 -10 -15 -5 0 -7 7 -4 15 4 8 8 15 10 15 2 0 4 -7 4
-15z m1050 -30 c0 -2 -5 -7 -12 -11 -6 -4 -8 -3 -5 3 4 5 -5 16 -18 23 -14 7
-25 17 -25 22 0 5 14 0 30 -12 17 -12 30 -23 30 -25z m-83 19 c-3 -3 -12 -4
-19 -1 -8 3 -5 6 6 6 11 1 17 -2 13 -5z m2193 -31 c0 -5 -5 -15 -10 -23 -8
-12 -10 -11 -10 8 0 12 5 22 10 22 6 0 10 -3 10 -7z m-2251 -52 c0 -10 -2 -12
-6 -3 -2 6 -9 10 -14 6 -5 -3 -9 5 -9 17 0 18 2 19 15 9 8 -7 15 -20 14 -29z
m-10 -61 c0 -10 -3 -8 -9 5 -12 27 -12 43 0 25 5 -8 9 -22 9 -30z m270 31 c10
-7 7 -9 -12 -8 -14 1 -23 5 -20 10 6 9 15 9 32 -2z m81 5 c0 -2 -7 -7 -16 -10
-8 -3 -12 -2 -9 4 6 10 25 14 25 6z m1912 -143 c2 -46 0 -73 -7 -73 -6 0 -11
40 -11 103 -2 115 12 92 18 -30z m-2182 85 c0 -4 -4 -10 -10 -13 -5 -3 -10
-11 -10 -17 0 -7 5 -6 15 2 8 6 18 9 24 6 5 -3 11 -3 14 1 2 5 2 2 0 -5 -3
-12 39 -54 73 -75 7 -4 31 -3 53 2 29 6 41 6 41 -2 0 -6 6 -3 14 8 7 11 13 24
12 28 -2 17 34 29 50 16 12 -10 13 -9 9 3 -8 21 21 31 39 13 7 -8 16 -12 19
-9 3 3 8 1 11 -5 4 -6 -2 -8 -14 -6 -13 3 -23 -2 -26 -13 -3 -9 -17 -38 -30
-64 -18 -34 -21 -48 -12 -51 8 -3 6 -6 -4 -6 -10 -1 -18 -6 -18 -12 0 -5 5 -7
10 -4 6 3 10 2 10 -2 0 -5 10 -9 23 -10 12 0 16 1 10 4 -14 5 -18 24 -5 21 14
-4 52 13 47 21 -2 5 8 6 23 4 23 -3 24 -2 7 6 l-20 10 20 1 20 1 -20 10 c-16
8 -15 8 8 4 16 -3 26 -2 24 3 -3 4 3 9 14 9 11 1 17 -2 14 -7 -3 -5 0 -12 6
-16 7 -4 9 -3 5 4 -3 6 -2 13 3 16 5 4 12 2 16 -4 3 -5 12 -10 18 -10 7 0 6 4
-3 10 -12 7 -8 11 17 16 25 5 31 10 28 30 -3 26 23 42 32 18 15 -41 -81 -149
-170 -189 -155 -71 -289 -72 -439 -3 -57 27 -151 104 -143 118 3 5 -1 10 -7
12 -7 3 24 4 69 4 45 0 76 -4 70 -8 -8 -5 -7 -8 4 -8 9 0 22 7 29 15 7 9 15
13 18 10 3 -3 -3 -12 -14 -19 -10 -8 -16 -18 -12 -22 4 -4 14 -1 23 6 13 10
19 10 33 -2 30 -26 42 -30 36 -14 -3 9 -10 13 -15 10 -5 -3 -9 2 -9 10 0 9 -8
16 -17 17 -16 0 -16 1 1 8 14 5 16 10 8 15 -7 4 -10 10 -8 14 6 10 -16 37 -36
45 -11 4 -15 12 -12 22 3 8 1 15 -6 15 -6 0 -9 4 -6 8 6 10 46 10 46 0z
m-1559 -46 c6 -29 3 -35 -17 -44 -13 -6 -24 -18 -24 -25 0 -8 -5 -11 -10 -8
-6 4 -18 1 -27 -7 -10 -8 -14 -8 -10 -1 5 7 -1 13 -15 15 -14 2 -23 10 -23 20
0 9 -3 20 -7 24 -8 7 9 45 26 57 6 4 31 6 56 5 41 -3 45 -5 51 -36z m1486 16
c-3 -8 -6 -5 -6 6 -1 11 2 17 5 13 3 -3 4 -12 1 -19z m2077 -8 c13 -13 16 -24
11 -37 -5 -10 -9 -21 -9 -25 -2 -12 -16 -22 -16 -11 0 14 -62 12 -72 -2 -4 -5
-8 2 -8 17 0 14 6 29 13 32 9 5 9 7 0 12 -8 4 -7 10 5 24 19 21 48 17 76 -10z
m-1483 3 c13 -17 13 -17 -6 -3 -11 8 -22 16 -24 17 -2 2 0 3 6 3 6 0 17 -8 24
-17z m-426 -8 c28 3 29 3 11 -11 -18 -12 -15 -19 7 -15 4 0 7 -3 7 -9 0 -5 -5
-10 -12 -10 -15 0 -58 40 -58 54 0 7 3 7 8 0 4 -7 21 -10 37 -9z m-95 -36 c0
-6 -4 -7 -10 -4 -5 3 -10 11 -10 16 0 6 5 7 10 4 6 -3 10 -11 10 -16z m-1594
-114 c4 -25 11 -35 25 -35 23 0 24 -9 4 -24 -13 -10 -13 -17 0 -60 21 -69 20
-89 -5 -81 -12 4 -20 2 -20 -5 0 -6 -4 -8 -10 -5 -5 3 -20 -1 -32 -9 -27 -20
-48 -20 -48 -3 0 13 16 24 76 48 24 10 30 17 26 36 -2 12 -8 20 -13 17 -5 -2
-11 6 -15 20 -5 22 -8 24 -32 13 -15 -6 -33 -18 -39 -26 -11 -12 -13 -2 -12
55 1 70 2 72 14 20 l6 -28 19 23 c16 18 20 19 20 6 0 -10 5 -17 10 -17 7 0 8
18 4 52 -8 59 11 61 22 3z m-176 31 c0 -3 -4 -8 -10 -11 -5 -3 -10 -1 -10 4 0
6 5 11 10 11 6 0 10 -2 10 -4z m3708 -24 c22 -17 22 -19 7 -62 -12 -35 -13
-45 -3 -52 7 -4 9 -8 3 -8 -5 0 -20 -3 -32 -6 -21 -6 -22 -4 -17 24 4 17 1 32
-5 36 -6 4 -11 12 -11 17 0 6 5 7 10 4 6 -4 10 8 10 29 0 41 5 43 38 18z
m-3652 -35 c21 8 17 -15 -5 -27 -28 -15 -31 -13 -31 18 0 35 14 52 18 24 2
-14 8 -19 18 -15z m-56 -102 c0 -8 -4 -15 -10 -15 -5 0 -10 7 -10 15 0 8 5 15
10 15 6 0 10 -7 10 -15z m37 -7 c-3 -8 -6 -5 -6 6 -1 11 2 17 5 13 3 -3 4 -12
1 -19z m798 12 c-4 -6 -37 -26 -74 -44 -50 -26 -84 -53 -135 -110 -84 -94 -97
-131 -100 -284 -1 -66 -7 -116 -13 -120 -6 -4 -14 -18 -18 -31 -6 -19 -9 -21
-17 -10 -6 9 -7 -2 -2 -31 15 -88 12 -105 -18 -108 -16 -2 -28 -9 -29 -15 -1
-7 -7 8 -14 33 l-14 45 4 -65 c16 -247 13 -367 -8 -333 -17 28 -35 215 -26
271 45 280 134 564 198 636 37 40 134 114 195 147 52 29 82 37 71 19z m3024
-45 c1 -14 -5 -21 -19 -21 -23 0 -25 13 -9 53 10 26 12 27 19 8 5 -11 9 -29 9
-40z m51 29 c0 -8 -4 -12 -10 -9 -5 3 -10 -3 -10 -14 0 -12 -4 -21 -10 -21
-12 0 -12 0 1 38 11 32 29 35 29 6z m40 -8 c0 -2 -7 -7 -16 -10 -8 -3 -12 -2
-9 4 6 10 25 14 25 6z m-3683 -68 c-3 -7 -5 -2 -5 12 0 14 2 19 5 13 2 -7 2
-19 0 -25z m3008 7 c17 -14 26 -25 20 -25 -5 1 -23 12 -40 25 -16 14 -25 25
-20 25 6 -1 24 -12 40 -25z m-3238 -27 c-3 -8 -6 -5 -6 6 -1 11 2 17 5 13 3
-3 4 -12 1 -19z m236 -70 c5 -37 -1 -61 -13 -53 -4 3 -21 -2 -36 -10 -16 -8
-35 -15 -41 -15 -26 0 -12 17 33 39 39 20 45 27 41 47 -2 13 -1 24 3 24 4 0
10 -15 13 -32z m3402 11 c50 -23 61 -34 45 -44 -12 -8 -100 41 -100 55 0 14 4
13 55 -11z m-3638 -21 c-3 -8 -6 -5 -6 6 -1 11 2 17 5 13 3 -3 4 -12 1 -19z
m53 8 c0 -3 -4 -8 -10 -11 -5 -3 -10 -1 -10 4 0 6 5 11 10 11 6 0 10 -2 10 -4z
m320 -152 c0 -20 -104 -93 -129 -91 -14 1 -24 10 -28 27 -3 14 -10 31 -16 38
-18 22 -17 60 2 58 11 -1 16 7 16 27 -1 15 3 27 7 27 4 0 8 -7 8 -15 0 -21 10
-18 45 10 l29 24 33 -46 c18 -26 33 -52 33 -59z m-403 -66 c-3 -8 -6 -5 -6 6
-1 11 2 17 5 13 3 -3 4 -12 1 -19z m412 -78 c-10 -26 -14 -29 -21 -17 -6 11
-3 22 9 35 24 25 25 22 12 -18z m3088 -2 c-3 -8 -6 -5 -6 6 -1 11 2 17 5 13 3
-3 4 -12 1 -19z m-680 -205 c-3 -10 -5 -4 -5 12 0 17 2 24 5 18 2 -7 2 -21 0
-30z m34 -18 c-9 -30 -9 -30 -10 10 -1 25 2 36 9 29 6 -6 6 -21 1 -39z m-131
10 c0 -16 -6 -25 -15 -25 -15 0 -21 31 -8 43 13 14 23 6 23 -18z m80 6 c0 -11
-4 -23 -10 -26 -6 -4 -10 5 -10 19 0 14 5 26 10 26 6 0 10 -9 10 -19z m-63
-13 c-3 -8 -6 -5 -6 6 -1 11 2 17 5 13 3 -3 4 -12 1 -19z m140 -10 c-3 -7 -5
-2 -5 12 0 14 2 19 5 13 2 -7 2 -19 0 -25z m-69 -119 c-18 -12 -23 16 -6 35
11 12 13 11 16 -6 2 -12 -2 -25 -10 -29z m-98 26 c0 -8 -4 -15 -10 -15 -5 0
-7 7 -4 15 4 8 8 15 10 15 2 0 4 -7 4 -15z m127 -37 c-2 -13 -4 -5 -4 17 -1
22 1 32 4 23 2 -10 2 -28 0 -40z m40 5 c-3 -10 -5 -2 -5 17 0 19 2 27 5 18 2
-10 2 -26 0 -35z m120 -60 c-2 -21 -4 -4 -4 37 0 41 2 58 4 38 2 -21 2 -55 0
-75z m-140 60 c-3 -10 -5 -4 -5 12 0 17 2 24 5 18 2 -7 2 -21 0 -30z m995 -24
c13 -6 31 -21 41 -35 l18 -24 -30 0 c-30 0 -61 29 -61 57 0 16 3 16 32 2z
m-1137 -9 c-3 -5 -10 -10 -16 -10 -5 0 -9 5 -9 10 0 6 7 10 16 10 8 0 12 -4 9
-10z m162 -42 c-3 -7 -5 -2 -5 12 0 14 2 19 5 13 2 -7 2 -19 0 -25z m-50 -55
c-3 -10 -5 -4 -5 12 0 17 2 24 5 18 2 -7 2 -21 0 -30z m-27 7 c0 -11 -4 -20
-10 -20 -5 0 -10 9 -10 20 0 11 5 20 10 20 6 0 10 -9 10 -20z m158 13 c-16 -2
-40 -2 -55 0 -16 2 -3 4 27 4 30 0 43 -2 28 -4z m-2923 -22 c-3 -6 2 -14 10
-19 21 -11 3 -27 -37 -34 -35 -6 -35 -1 -1 34 27 28 39 36 28 19z m2675 -106
c0 -8 -4 -15 -10 -15 -5 0 -7 7 -4 15 4 8 8 15 10 15 2 0 4 -7 4 -15z m97 -37
c-3 -8 -6 -5 -6 6 -1 11 2 17 5 13 3 -3 4 -12 1 -19z m20 -10 c-3 -7 -5 -2 -5
12 0 14 2 19 5 13 2 -7 2 -19 0 -25z m50 -10 c-3 -7 -5 -2 -5 12 0 14 2 19 5
13 2 -7 2 -19 0 -25z m1036 -25 c-13 -2 -33 -2 -45 0 -13 2 -3 4 22 4 25 0 35
-2 23 -4z m-123 -188 c-7 -8 -17 -12 -23 -8 -6 4 -3 9 9 14 27 11 28 11 14 -6z"/>
<path d="M1456 3892 c-2 -4 -2 -27 1 -50 6 -41 7 -43 37 -40 29 3 31 5 34 51
l3 47 -35 0 c-19 0 -37 -4 -40 -8z"/>
<path d="M2524 3845 c-3 -25 -4 -48 -2 -50 2 -3 18 -8 35 -11 30 -6 32 -4 42
32 15 52 15 51 -20 63 -46 16 -47 15 -55 -34z"/>
<path d="M1160 3809 c-33 -14 -33 -12 -19 -58 11 -36 39 -58 39 -30 0 6 9 8
20 4 21 -7 24 3 14 42 -4 14 -11 20 -22 16 -12 -5 -14 -1 -10 15 4 12 5 22 5
21 -1 0 -13 -5 -27 -10z m40 -49 c0 -5 -5 -10 -11 -10 -5 0 -7 5 -4 10 3 6 8
10 11 10 2 0 4 -4 4 -10z"/>
<path d="M2751 3789 c-16 -47 -14 -56 19 -68 35 -12 57 -6 64 17 2 10 7 27 11
38 5 18 0 24 -26 33 -48 16 -56 14 -68 -20z"/>
<path d="M1770 3710 c-13 -8 -12 -10 3 -10 9 0 17 5 17 10 0 12 -1 12 -20 0z"/>
<path d="M1689 3695 c-52 -14 -139 -51 -139 -59 0 -3 19 4 43 14 23 11 67 20
97 21 30 1 44 4 30 6 l-25 5 30 13 c37 17 24 16 -36 0z"/>
<path d="M2220 3626 c0 -2 7 -6 15 -10 8 -3 15 -1 15 4 0 6 -7 10 -15 10 -8 0
-15 -2 -15 -4z"/>
<path d="M1800 3580 c-8 -5 -10 -10 -5 -10 6 0 17 5 25 10 8 5 11 10 5 10 -5
0 -17 -5 -25 -10z"/>
<path d="M1714 3540 c-29 -16 -54 -27 -56 -25 -2 3 -18 -9 -34 -26 l-29 -31
45 24 c63 34 146 88 134 88 -5 0 -32 -13 -60 -30z"/>
<path d="M2350 3560 c0 -5 5 -10 11 -10 5 0 7 5 4 10 -3 6 -8 10 -11 10 -2 0
-4 -4 -4 -10z"/>
<path d="M1759 3353 l-24 -28 28 24 c25 23 32 31 24 31 -2 0 -14 -12 -28 -27z"/>
<path d="M2446 3364 c-4 -10 -2 -22 4 -28 8 -8 9 -5 5 9 -7 20 -6 20 9 1 19
-24 21 -8 2 17 -13 16 -14 16 -20 1z"/>
<path d="M2491 3265 c0 -5 6 -19 14 -29 8 -11 15 -15 15 -10 0 6 -7 19 -15 30
-8 10 -14 15 -14 9z"/>
<path d="M2411 3214 c0 -11 3 -14 6 -6 3 7 2 16 -1 19 -3 4 -6 -2 -5 -13z"/>
<path d="M2526 2895 c-9 -26 -7 -32 5 -12 6 10 9 21 6 23 -2 3 -7 -2 -11 -11z"/>
<path d="M2455 2679 c-4 -6 -5 -12 -2 -15 2 -3 7 2 10 11 7 17 1 20 -8 4z"/>
<path d="M3575 3710 c-16 -17 -16 -20 -3 -15 9 4 19 13 22 21 7 19 2 18 -19
-6z"/>
<path d="M3140 3620 c-24 -47 -22 -54 20 -69 29 -10 31 -8 50 29 21 41 19 45
-27 69 -20 10 -24 8 -43 -29z"/>
<path d="M963 3286 c-32 -24 -69 -56 -82 -69 l-23 -26 20 -28 c31 -43 81 -87
89 -79 4 4 2 16 -5 26 -7 11 -8 20 -3 20 5 0 12 -7 15 -16 6 -15 8 -15 26 1
11 10 17 22 13 28 -4 6 0 8 10 4 20 -8 21 -3 6 26 -11 21 -10 21 7 5 16 -16
19 -16 42 10 13 15 21 21 17 13 -6 -10 -4 -12 4 -7 9 6 6 16 -9 39 -12 18 -28
47 -37 65 -9 17 -20 32 -24 32 -4 0 -33 -20 -66 -44z m45 -121 c-3 -3 -9 2
-12 12 -6 14 -5 15 5 6 7 -7 10 -15 7 -18z m-67 -12 c13 -16 12 -17 -3 -4 -10
7 -18 15 -18 17 0 8 8 3 21 -13z"/>
<path d="M778 3122 c-70 -72 -154 -175 -172 -211 -15 -27 -14 -28 47 -68 68
-45 98 -46 48 -1 -37 33 -34 35 13 7 32 -19 37 -19 42 -5 4 10 -2 26 -12 38
-19 21 -19 21 4 9 42 -22 57 8 20 41 l-23 20 27 -16 c26 -15 29 -15 48 1 25
21 25 40 3 67 -17 20 -17 20 0 7 14 -11 17 -11 17 0 1 10 5 8 15 -5 8 -11 18
-16 22 -13 3 4 -4 19 -18 34 -17 20 -18 23 -3 10 11 -9 24 -14 29 -10 4 5 5 2
1 -4 -4 -7 -2 -13 3 -13 6 0 11 7 11 16 0 8 5 12 10 9 6 -3 10 4 10 15 0 24
-30 72 -65 107 l-22 21 -55 -56z m69 -4 c-3 -8 -6 -5 -6 6 -1 11 2 17 5 13 3
-3 4 -12 1 -19z"/>
<path d="M563 2851 c-6 -10 -32 -57 -58 -105 -41 -75 -45 -89 -34 -103 12 -15
12 -16 -3 -10 -10 3 -18 2 -18 -3 0 -21 125 -66 136 -49 3 5 2 8 -3 7 -4 -1
-26 8 -48 20 -22 13 -31 20 -20 18 97 -24 103 -24 113 0 10 20 8 24 -20 33
-17 6 -29 13 -26 16 3 3 18 0 32 -7 23 -10 29 -9 37 3 14 22 11 27 -21 44 -35
18 -44 19 -34 3 4 -7 3 -8 -5 -4 -6 4 -9 12 -6 17 4 5 -5 14 -19 21 -14 6 -26
15 -26 20 0 11 18 10 25 -2 4 -6 28 -20 53 -32 26 -12 50 -23 53 -24 3 -2 11
8 17 21 10 23 8 26 -49 61 -38 23 -58 41 -55 50 8 21 -9 25 -21 5z m67 -81
c19 -17 26 -26 15 -21 -30 16 -71 51 -60 51 6 0 26 -14 45 -30z"/>
<path d="M602 2848 c5 -16 100 -79 107 -72 6 6 -27 34 -77 64 -21 13 -32 15
-30 8z"/>
<path d="M436 2591 c-18 -29 -67 -221 -81 -314 -8 -58 7 -77 60 -77 32 0 36 3
33 23 -3 19 1 22 25 19 22 -3 27 1 27 17 0 13 -7 21 -17 21 -10 0 -25 5 -33
10 -11 6 -2 9 29 7 30 -1 45 2 49 12 3 10 0 12 -12 8 -9 -4 -16 -2 -16 3 0 5
-10 11 -22 13 -13 3 -5 5 17 4 30 -2 41 2 43 15 2 9 -5 18 -15 21 -17 4 -17 5
0 6 28 2 21 38 -10 50 -26 10 -26 11 10 6 29 -5 37 -3 37 10 0 9 -7 18 -15 21
-8 4 -13 10 -10 15 3 4 12 6 20 2 10 -3 15 2 15 17 0 11 -4 18 -10 15 -5 -3
-10 -1 -10 4 0 6 -8 12 -17 12 -10 1 -4 4 12 8 l30 6 -45 22 c-61 29 -87 36
-94 24z m57 -208 c-7 -2 -19 -2 -25 0 -7 3 -2 5 12 5 14 0 19 -2 13 -5z"/>
<path d="M1167 2240 c3 -11 7 -20 9 -20 2 0 4 9 4 20 0 11 -4 20 -9 20 -5 0
-7 -9 -4 -20z"/>
<path d="M961 2224 c0 -11 3 -14 6 -6 3 7 2 16 -1 19 -3 4 -6 -2 -5 -13z"/>
<path d="M470 2216 c0 -9 7 -16 16 -16 17 0 14 22 -4 28 -7 2 -12 -3 -12 -12z"/>
<path d="M363 2173 c-21 -8 -14 -32 11 -39 42 -10 81 -1 78 19 -2 9 2 17 8 17
5 0 10 -9 10 -21 0 -11 5 -19 11 -17 6 2 11 8 11 13 0 6 4 16 10 23 8 9 -4 12
-58 11 -38 0 -75 -3 -81 -6z"/>
<path d="M786 2155 c-18 -14 -14 -15 42 -15 34 0 65 -1 70 -2 4 -1 8 6 10 15
3 14 -5 17 -50 17 -31 -1 -61 -7 -72 -15z"/>
<path d="M920 2155 c0 -12 14 -15 66 -15 48 0 65 3 62 12 -3 8 -28 14 -66 15
-50 2 -62 0 -62 -12z"/>
<path d="M1076 2163 c-16 -17 -1 -23 56 -23 38 0 58 4 53 9 -12 12 -100 23
-109 14z"/>
<path d="M1244 2148 c-3 -4 6 -8 20 -8 14 0 26 4 26 9 0 11 -39 10 -46 -1z"/>
<path d="M1300 2149 c0 -4 38 -9 85 -11 78 -3 104 2 73 15 -21 8 -158 5 -158
-4z"/>
<path d="M799 2117 c5 -5 30 -7 57 -5 l49 3 -57 5 c-31 3 -53 1 -49 -3z"/>
<path d="M370 2104 c0 -8 -4 -12 -10 -9 -18 11 -21 -39 -11 -166 11 -132 17
-162 32 -153 5 3 6 -14 3 -38 -2 -24 0 -50 5 -58 13 -19 89 -19 102 1 7 11 9
11 9 1 0 -22 32 -9 41 17 8 20 7 22 -8 16 -39 -16 -57 -16 -28 1 40 22 40 22
26 38 -9 10 -21 12 -49 5 -48 -11 -54 -11 -47 1 3 6 16 11 28 11 18 1 16 3 -8
10 -24 7 -21 7 15 3 24 -3 41 -2 37 2 -4 4 -1 14 6 22 9 13 9 14 0 8 -8 -4
-13 -2 -13 4 0 8 -14 10 -42 6 l-43 -5 48 16 c32 11 47 22 47 34 0 15 -7 17
-37 14 l-38 -5 38 11 c58 17 47 46 -15 40 -10 -1 -18 2 -18 8 0 5 12 11 27 13
17 2 29 10 31 21 3 13 -3 17 -27 17 -30 0 -41 13 -21 25 16 10 12 25 -6 25
-14 0 -14 3 -4 15 22 26 -3 65 -40 65 -20 0 -30 -5 -30 -16z"/>
<path d="M980 2099 c0 -15 8 -19 36 -19 29 0 34 3 25 13 -6 8 -9 16 -7 18 2 2
-9 4 -25 5 -22 1 -29 -3 -29 -17z"/>
<path d="M926 2095 c-3 -9 0 -15 9 -15 9 0 12 6 9 15 -4 8 -7 15 -9 15 -2 0
-5 -7 -9 -15z"/>
<path d="M1070 2095 c0 -9 9 -15 25 -15 18 0 23 4 19 15 -4 8 -15 15 -25 15
-10 0 -19 -7 -19 -15z"/>
<path d="M1256 2095 c4 -8 10 -15 15 -15 5 0 9 7 9 15 0 8 -7 15 -15 15 -9 0
-12 -6 -9 -15z"/>
<path d="M1407 2096 c-5 -12 0 -16 21 -15 16 0 21 3 12 6 -8 3 -18 10 -21 15
-3 5 -9 3 -12 -6z"/>
<path d="M1590 2090 c0 -5 5 -10 11 -10 5 0 7 5 4 10 -3 6 -8 10 -11 10 -2 0
-4 -4 -4 -10z"/>
<path d="M470 2074 c0 -8 5 -12 10 -9 6 3 10 10 10 16 0 5 -4 9 -10 9 -5 0
-10 -7 -10 -16z"/>
<path d="M980 2062 c0 -15 24 -32 47 -32 16 0 23 6 23 20 0 16 -7 20 -35 20
-19 0 -35 -4 -35 -8z"/>
<path d="M1076 2063 c-14 -15 -4 -33 19 -33 17 0 23 4 19 14 -6 16 -29 28 -38
19z"/>
<path d="M1268 2059 c-10 -5 -18 -14 -18 -19 0 -16 57 -12 63 4 10 26 -14 34
-45 15z"/>
<path d="M1350 2060 c-16 -10 -8 -23 15 -26 8 -1 15 4 15 11 0 19 -13 25 -30
15z"/>
<path d="M1505 2060 c-3 -5 1 -10 9 -10 9 0 16 5 16 10 0 6 -4 10 -9 10 -6 0
-13 -4 -16 -10z"/>
<path d="M1155 2051 c-3 -5 -1 -12 5 -16 12 -7 30 2 30 16 0 12 -27 12 -35 0z"/>
<path d="M1400 2045 c0 -16 9 -19 34 -9 20 8 11 24 -15 24 -10 0 -19 -7 -19
-15z"/>
<path d="M470 2025 c0 -8 7 -15 15 -15 8 0 15 7 15 15 0 8 -7 15 -15 15 -8 0
-15 -7 -15 -15z"/>
<path d="M1070 1999 c0 -17 8 -19 60 -19 53 0 60 2 60 19 0 18 -7 20 -60 20
-52 -1 -60 -3 -60 -20z"/>
<path d="M1220 2000 c0 -18 6 -20 55 -18 45 2 55 5 55 20 0 15 -9 18 -55 18
-48 0 -55 -2 -55 -20z"/>
<path d="M962 1930 c0 -19 2 -27 5 -17 2 9 2 25 0 35 -3 9 -5 1 -5 -18z"/>
<path d="M962 1765 c0 -16 2 -22 5 -12 2 9 2 23 0 30 -3 6 -5 -1 -5 -18z"/>
<path d="M832 1688 c6 -18 78 -23 78 -6 0 10 2 10 9 -1 10 -15 41 -8 41 9 0 6
-27 10 -66 10 -48 0 -65 -3 -62 -12z"/>
<path d="M419 1643 c-11 -3 -15 -11 -12 -24 5 -18 13 -20 67 -17 50 2 61 6 64
22 3 16 0 18 -22 12 -14 -3 -26 -3 -26 1 0 9 -46 12 -71 6z"/>
<path d="M424 1567 c3 -13 15 -44 26 -71 18 -40 24 -46 43 -40 28 8 109 53
122 66 7 8 6 9 -2 4 -6 -3 -13 -1 -15 6 -4 10 -10 10 -31 1 -22 -10 -27 -10
-27 1 0 8 9 16 20 19 11 3 20 13 20 24 0 14 -2 15 -9 4 -5 -7 -14 -11 -20 -7
-6 4 -20 2 -32 -4 -24 -13 -41 -4 -19 10 11 7 0 10 -34 10 -45 0 -48 -1 -42
-23z"/>
<path d="M3360 3525 c-19 -23 2 -65 32 -64 l23 0 -22 9 c-16 6 -23 18 -23 35
0 21 4 26 23 23 15 -2 24 -12 28 -33 5 -26 7 -27 14 -11 18 40 -46 76 -75 41z"/>
<path d="M2855 3263 l-38 -57 28 -23 28 -24 29 33 c19 21 24 24 14 8 -26 -41
-29 -51 -18 -62 8 -8 16 -7 29 3 16 13 17 12 4 -3 -12 -16 -10 -20 10 -37 l24
-19 6 34 c3 19 12 40 19 47 13 12 13 8 -7 -40 -4 -11 -3 -14 5 -9 8 4 10 2 6
-7 -11 -29 14 -26 45 5 49 50 50 67 5 105 -21 19 -44 31 -52 28 -7 -2 -11 -1
-7 4 6 10 -63 71 -81 71 -6 0 -28 -26 -49 -57z"/>
<path d="M3074 3126 c-54 -62 -64 -76 -64 -86 0 -15 37 11 49 35 11 19 11 19
5 -2 -4 -19 -2 -22 12 -16 14 5 13 0 -6 -24 -21 -29 -21 -61 1 -48 5 3 6 -1 3
-9 -9 -23 2 -20 44 11 l37 27 -33 -36 c-40 -42 -27 -60 18 -28 37 26 39 17 4
-14 -24 -20 -25 -24 -13 -44 17 -27 29 -28 62 -2 14 11 28 20 31 20 11 0 -29
-42 -47 -49 -15 -6 -16 -9 -4 -25 14 -19 15 -19 43 1 51 35 60 35 21 1 -47
-42 -38 -55 15 -22 52 33 61 24 11 -10 -20 -14 -33 -26 -28 -26 6 0 4 -4 -4
-9 -7 -5 -10 -14 -6 -21 4 -7 10 -8 14 -4 3 5 32 23 64 39 32 17 61 34 64 38
7 12 -74 133 -147 217 -59 68 -109 120 -115 120 -2 0 -16 -15 -31 -34z"/>
<path d="M3330 2783 c-58 -34 -80 -53 -80 -70 0 -18 25 -17 58 3 25 15 26 15
7 -1 -11 -9 -26 -20 -34 -24 -11 -7 -10 -14 4 -45 10 -20 27 -43 39 -51 13 -9
15 -15 7 -15 -8 0 -12 -3 -8 -6 8 -9 147 46 147 58 0 14 -82 178 -89 178 -3 0
-26 -12 -51 -27z m1 -124 c-18 -11 -35 -18 -38 -15 -5 5 46 35 62 36 6 0 -5
-9 -24 -21z"/>
<path d="M3420 2587 c-26 -12 -39 -22 -30 -24 21 -5 90 24 90 37 0 13 -7 12
-60 -13z"/>
<path d="M3422 2544 c-87 -44 -101 -86 -18 -54 17 6 26 6 26 0 0 -6 -8 -10
-17 -10 -28 -1 -53 -24 -43 -40 7 -11 14 -12 36 -2 14 7 29 10 32 7 3 -3 -9
-10 -26 -16 -37 -13 -45 -49 -12 -49 11 0 20 3 20 8 0 4 11 8 26 8 22 2 23 1
8 -11 -11 -8 -15 -20 -11 -34 4 -17 1 -21 -19 -21 -18 0 -24 -5 -24 -21 0 -20
4 -21 43 -16 40 6 33 -1 -15 -17 -10 -3 -18 -13 -18 -22 0 -14 7 -16 42 -11
27 4 37 2 27 -4 -7 -5 -24 -9 -37 -9 -15 0 -22 -5 -19 -12 2 -9 28 -14 75 -15
68 -1 72 0 72 21 0 34 -37 223 -57 294 l-18 62 -73 -36z"/>
<path d="M3348 2533 c7 -3 16 -2 19 1 4 3 -2 6 -13 5 -11 0 -14 -3 -6 -6z"/>
<path d="M3408 2373 c-25 -6 -23 -33 2 -33 13 0 20 7 20 20 0 11 -1 19 -2 19
-2 -1 -11 -3 -20 -6z"/>
<path d="M2500 2251 c0 -24 13 -38 29 -34 25 6 15 43 -10 43 -11 0 -19 -4 -19
-9z"/>
<path d="M2570 2238 c0 -12 3 -18 7 -14 11 10 12 36 2 36 -5 0 -9 -10 -9 -22z"/>
<path d="M2740 2244 c0 -8 5 -12 10 -9 6 3 10 10 10 16 0 5 -4 9 -10 9 -5 0
-10 -7 -10 -16z"/>
<path d="M2807 2253 c-14 -13 -7 -42 8 -37 8 4 15 15 15 25 0 19 -11 25 -23
12z"/>
<path d="M3426 2163 c-4 -9 -1 -20 6 -25 21 -13 43 -4 40 16 -2 12 2 17 15 14
10 -2 18 -10 18 -18 0 -8 10 -16 23 -18 14 -2 22 -10 22 -23 0 -14 -7 -19 -30
-19 -30 0 -42 -21 -20 -35 15 -10 12 -35 -5 -35 -8 0 -15 5 -15 10 0 12 -37
14 -44 2 -9 -15 9 -30 39 -35 28 -4 28 -4 -6 -6 -63 -2 -57 -41 7 -41 13 0 24
-5 24 -11 0 -7 -10 -9 -24 -5 -14 3 -32 3 -40 0 -30 -11 -16 -33 27 -43 l42
-11 -42 4 c-29 3 -43 0 -47 -10 -6 -16 23 -34 53 -34 23 0 26 -7 11 -30 -8
-13 -10 -12 -10 3 0 11 -8 17 -25 17 -34 0 -32 -28 3 -36 43 -9 50 -14 15 -11
-18 2 -30 0 -27 -5 3 -4 13 -8 22 -8 9 0 24 -5 32 -11 11 -8 0 -9 -42 -5 -47
5 -58 3 -58 -8 0 -8 16 -20 35 -27 36 -13 39 -19 29 -57 -6 -19 -11 -22 -34
-17 -16 3 -31 2 -34 -4 -8 -12 24 -30 42 -24 6 3 12 0 12 -6 0 -13 56 -15 64
-2 3 4 8 42 11 82 6 90 12 110 29 103 9 -4 16 7 20 31 9 48 17 322 9 340 -8
23 -139 21 -147 -2z m111 -335 c-3 -8 -6 -5 -6 6 -1 11 2 17 5 13 3 -3 4 -12
1 -19z"/>
<path d="M2853 2162 c-46 -2 -83 -7 -83 -12 0 -6 77 -10 195 -10 169 0 194 2
189 15 -7 18 -35 20 -51 4 -7 -7 -17 -8 -25 -3 -14 9 -85 11 -225 6z"/>
<path d="M2610 2151 c0 -7 29 -11 75 -11 41 0 75 4 75 9 0 4 -34 9 -75 10 -47
1 -75 -2 -75 -8z"/>
<path d="M3458 2113 c6 -2 18 -2 25 0 6 3 1 5 -13 5 -14 0 -19 -2 -12 -5z"/>
<path d="M2648 2103 c6 -2 18 -2 25 0 6 3 1 5 -13 5 -14 0 -19 -2 -12 -5z"/>
<path d="M2800 2097 c0 -10 8 -17 18 -17 9 0 13 4 7 8 -5 4 -13 11 -17 16 -5
5 -8 2 -8 -7z"/>
<path d="M2898 2103 c12 -2 30 -2 40 0 9 3 -1 5 -23 4 -22 0 -30 -2 -17 -4z"/>
<path d="M2653 2083 c9 -2 23 -2 30 0 6 3 -1 5 -18 5 -16 0 -22 -2 -12 -5z"/>
<path d="M2898 2083 c12 -2 32 -2 45 0 12 2 2 4 -23 4 -25 0 -35 -2 -22 -4z"/>
<path d="M3436 2075 c-4 -11 1 -15 18 -15 13 0 23 6 23 15 0 8 -8 15 -18 15
-9 0 -19 -7 -23 -15z"/>
<path d="M2510 2060 c-13 -9 -13 -11 0 -20 24 -16 39 -12 33 10 -6 22 -11 24
-33 10z"/>
<path d="M2880 2050 c0 -17 7 -20 40 -20 33 0 40 3 40 20 0 17 -7 20 -40 20
-33 0 -40 -3 -40 -20z"/>
<path d="M2400 2050 c0 -5 11 -10 25 -10 14 0 25 5 25 10 0 6 -11 10 -25 10
-14 0 -25 -4 -25 -10z"/>
<path d="M2653 2053 c9 -2 23 -2 30 0 6 3 -1 5 -18 5 -16 0 -22 -2 -12 -5z"/>
<path d="M2575 2040 c-3 -5 -1 -10 4 -10 6 0 11 5 11 10 0 6 -2 10 -4 10 -3 0
-8 -4 -11 -10z"/>
<path d="M2653 2033 c9 -2 23 -2 30 0 6 3 -1 5 -18 5 -16 0 -22 -2 -12 -5z"/>
<path d="M2798 2033 c6 -2 18 -2 25 0 6 3 1 5 -13 5 -14 0 -19 -2 -12 -5z"/>
<path d="M2780 2000 c0 -17 6 -20 43 -19 23 0 36 3 30 6 -7 2 -13 9 -13 14 0
6 5 7 12 3 7 -4 8 -3 4 4 -4 7 -23 12 -42 12 -27 0 -34 -4 -34 -20z"/>
<path d="M2852 1920 c0 -14 2 -19 5 -12 2 6 2 18 0 25 -3 6 -5 1 -5 -13z"/>
<path d="M3008 1763 l4 -53 48 0 c47 0 49 1 60 35 14 42 7 70 -16 61 -9 -3
-21 -3 -27 1 -7 5 -25 8 -42 8 -30 0 -30 0 -27 -52z"/>
<path d="M3384 1702 c2 -8 13 -22 25 -31 22 -14 23 -13 19 9 -1 12 -13 26 -25
31 -16 6 -21 4 -19 -9z"/>
<path d="M3000 1685 c0 -11 11 -15 40 -15 29 0 40 4 40 15 0 11 -11 15 -40 15
-29 0 -40 -4 -40 -15z"/>
<path d="M3410 1580 c0 -6 7 -10 15 -10 8 0 15 2 15 4 0 2 -7 6 -15 10 -8 3
-15 1 -15 -4z"/>
<path d="M3450 1570 c0 -5 5 -10 11 -10 5 0 7 5 4 10 -3 6 -8 10 -11 10 -2 0
-4 -4 -4 -10z"/>
<path d="M3343 1559 c14 -8 22 -8 30 0 8 8 3 11 -18 11 -26 -1 -28 -2 -12 -11z"/>
<path d="M3560 1550 c0 -5 5 -10 11 -10 5 0 7 5 4 10 -3 6 -8 10 -11 10 -2 0
-4 -4 -4 -10z"/>
<path d="M3317 1529 c-4 -14 3 -24 25 -35 29 -15 29 -15 26 12 -4 35 -43 53
-51 23z"/>
<path d="M3550 1485 c0 -8 5 -15 10 -15 6 0 10 7 10 15 0 8 -4 15 -10 15 -5 0
-10 -7 -10 -15z"/>
<path d="M3555 1360 c-3 -5 -1 -10 4 -10 6 0 11 5 11 10 0 6 -2 10 -4 10 -3 0
-8 -4 -11 -10z"/>
<path d="M3531 1344 c0 -11 3 -14 6 -6 3 7 2 16 -1 19 -3 4 -6 -2 -5 -13z"/>
<path d="M3582 1158 c2 -34 7 -43 20 -42 10 1 16 -2 13 -6 -3 -4 2 -10 10 -14
15 -6 35 21 35 48 0 15 -40 44 -40 29 0 -4 -5 0 -11 10 -18 30 -30 19 -27 -25z"/>
<path d="M3833 3322 c-7 -4 -12 -28 -11 -55 1 -54 18 -65 18 -11 0 21 4 33 10
29 6 -4 8 -11 5 -16 -4 -5 -2 -9 4 -9 17 0 24 22 10 31 -9 7 -4 8 16 4 17 -3
24 -2 18 1 -7 3 -13 12 -13 20 0 15 -37 19 -57 6z"/>
<path d="M3890 3253 c0 -18 2 -33 4 -33 9 0 13 39 5 51 -6 10 -9 4 -9 -18z"/>
<path d="M3850 3230 c0 -19 11 -26 23 -14 8 8 -3 34 -14 34 -5 0 -9 -9 -9 -20z"/>
<path d="M3169 3253 c-13 -16 -12 -17 4 -4 16 13 21 21 13 21 -2 0 -10 -8 -17
-17z"/>
<path d="M1169 3043 c-13 -16 -12 -17 4 -4 9 7 17 15 17 17 0 8 -8 3 -21 -13z"/>
<path d="M395 2969 c-4 -6 -5 -11 -4 -13 32 -23 79 -45 83 -37 6 9 -1 16 -46
44 -18 11 -29 13 -33 6z"/>
<path d="M310 2865 c0 -6 56 -35 67 -35 13 1 -41 40 -54 40 -7 0 -13 -2 -13
-5z"/>
<path d="M260 2760 c0 -14 58 -42 65 -31 6 11 -1 16 -39 30 -16 7 -26 7 -26 1z"/>
<path d="M1863 2253 c15 -2 39 -2 55 0 15 2 2 4 -28 4 -30 0 -43 -2 -27 -4z"/>
<path d="M2023 2253 c15 -2 37 -2 50 0 12 2 0 4 -28 4 -27 0 -38 -2 -22 -4z"/>
<path d="M1202 2655 c0 -16 2 -22 5 -12 2 9 2 23 0 30 -3 6 -5 -1 -5 -18z"/>
<path d="M2712 2510 c0 -19 2 -27 5 -17 2 9 2 25 0 35 -3 9 -5 1 -5 -18z"/>
<path d="M2850 2510 c0 -16 3 -30 8 -30 4 0 8 14 8 30 1 17 -2 30 -7 30 -5 0
-9 -13 -9 -30z"/>
<path d="M2982 2505 c0 -16 2 -22 5 -12 2 9 2 23 0 30 -3 6 -5 -1 -5 -18z"/>
<path d="M3677 2523 c-13 -12 -7 -44 9 -50 20 -7 33 12 27 38 -5 19 -24 25
-36 12z"/>
<path d="M2730 2384 c0 -8 5 -12 10 -9 6 3 10 10 10 16 0 5 -4 9 -10 9 -5 0
-10 -7 -10 -16z"/>
<path d="M2852 2370 c0 -19 2 -27 5 -17 2 9 2 25 0 35 -3 9 -5 1 -5 -18z"/>
<path d="M2761 2334 c0 -11 3 -14 6 -6 3 7 2 16 -1 19 -3 4 -6 -2 -5 -13z"/>
<path d="M210 2050 c0 -5 5 -10 10 -10 6 0 10 5 10 10 0 6 -4 10 -10 10 -5 0
-10 -4 -10 -10z"/>
<path d="M153 2043 c9 -2 23 -2 30 0 6 3 -1 5 -18 5 -16 0 -22 -2 -12 -5z"/>
<path d="M2046 1734 c-4 -10 -1 -14 6 -12 15 5 23 28 10 28 -5 0 -13 -7 -16
-16z"/>
<path d="M2337 1720 c-3 -11 -1 -20 4 -20 5 0 9 9 9 20 0 11 -2 20 -4 20 -2 0
-6 -9 -9 -20z"/>
<path d="M1940 1670 c8 -5 20 -10 25 -10 6 0 3 5 -5 10 -8 5 -19 10 -25 10 -5
0 -3 -5 5 -10z"/>
<path d="M1620 1660 c0 -5 7 -7 15 -4 8 4 15 8 15 10 0 2 -7 4 -15 4 -8 0 -15
-4 -15 -10z"/>
<path d="M1704 1657 c10 -7 33 -22 52 -34 20 -13 31 -16 28 -8 -3 7 0 15 8 18
7 2 5 3 -5 1 -11 -1 -33 6 -50 17 -34 20 -65 26 -33 6z"/>
<path d="M3711 1524 c0 -11 3 -14 6 -6 3 7 2 16 -1 19 -3 4 -6 -2 -5 -13z"/>
<path d="M350 1192 c-9 -9 -26 -24 -39 -32 -21 -14 -22 -18 -10 -38 17 -26 29
-28 29 -4 1 16 2 16 13 1 11 -15 15 -15 40 5 l28 23 -18 31 c-20 36 -22 37
-43 14z"/>
<path d="M0 2582 c0 -8 28 -25 65 -41 6 -2 -3 8 -18 23 -28 26 -47 33 -47 18z"/>
<path d="M0 2478 c0 -9 5 -20 10 -23 13 -8 13 5 0 25 -8 13 -10 13 -10 -2z"/>
<path d="M3961 2473 l-20 -18 24 -18 25 -18 0 36 c0 40 -1 41 -29 18z"/>
<path d="M15 2250 c-4 -6 5 -10 19 -10 14 0 26 5 26 10 0 6 -9 10 -19 10 -11
0 -23 -4 -26 -10z"/>
<path d="M1910 1033 c-34 -7 -49 -20 -45 -41 2 -9 4 -21 4 -27 1 -6 40 -10 96
-10 l95 0 0 32 c0 17 -4 34 -9 37 -13 9 -113 15 -141 9z"/>
<path d="M1795 992 c-119 -66 -195 -193 -195 -324 0 -194 164 -358 357 -358
90 0 113 11 113 55 0 34 -1 35 -27 28 -31 -9 -127 -10 -158 -3 -15 4 -21 -2
-26 -25 l-8 -30 2 30 c2 25 -5 35 -45 62 -52 36 -99 98 -118 157 -18 54 -8
171 18 221 19 38 94 117 119 126 14 5 21 71 8 75 -5 2 -24 -5 -40 -14z"/>
<path d="M2090 972 c0 -31 5 -41 26 -53 73 -39 134 -150 134 -244 0 -86 -27
-143 -101 -218 -68 -68 -84 -102 -54 -113 21 -9 98 39 137 85 126 147 120 372
-13 501 -37 35 -105 80 -124 80 -3 0 -5 -17 -5 -38z"/>
<path d="M1913 923 c-13 -2 -23 -10 -23 -16 0 -9 23 -13 75 -13 50 0 75 4 75
12 0 19 -69 28 -127 17z"/>
<path d="M1823 881 c-48 -35 -60 -51 -44 -60 14 -9 95 63 89 79 -2 7 -20 -1
-45 -19z"/>
<path d="M2055 900 c-7 -12 76 -91 88 -83 18 11 4 34 -37 63 -28 18 -47 26
-51 20z"/>
<path d="M1813 808 c-24 -26 -43 -69 -43 -99 0 -17 7 -19 58 -19 53 0 60 2 70
26 14 29 7 46 -35 87 l-29 27 -21 -22z"/>
<path d="M2051 789 c-30 -35 -33 -44 -25 -67 9 -25 14 -27 72 -30 69 -3 70 -2
48 61 -14 37 -43 78 -55 76 -3 0 -21 -19 -40 -40z"/>
<path d="M1741 779 c-13 -38 -15 -89 -2 -89 7 0 34 77 35 104 2 25 -23 13 -33
-15z"/>
<path d="M2154 788 c3 -13 9 -40 12 -60 4 -24 12 -38 22 -38 12 0 13 8 8 41
-4 23 -11 50 -17 60 -14 27 -33 24 -25 -3z"/>
<path d="M1744 634 c9 -44 35 -95 54 -102 19 -6 14 16 -13 56 -14 20 -25 44
-25 54 0 9 -5 20 -11 24 -9 5 -10 -4 -5 -32z"/>
<path d="M1770 660 c0 -31 77 -140 99 -140 5 0 11 -8 14 -19 5 -21 48 -29 117
-23 32 3 43 9 50 28 5 12 18 28 29 34 23 12 71 89 71 113 0 15 -20 17 -190 17
-125 0 -190 -4 -190 -10z"/>
<path d="M2170 650 c0 -5 1 -11 2 -12 1 -2 -12 -24 -29 -49 -29 -42 -33 -59
-12 -59 4 0 16 15 27 33 25 40 38 97 23 97 -6 0 -11 -4 -11 -10z"/>
<path d="M1814 518 c-4 -6 4 -19 17 -29 30 -24 39 -24 39 -1 0 23 -46 47 -56
30z"/>
<path d="M2077 515 c-10 -7 -17 -21 -15 -30 3 -16 5 -15 28 3 30 24 17 50 -13
27z"/>
<path d="M1897 453 c9 -7 40 -13 68 -13 28 0 59 6 68 13 14 10 3 12 -68 12
-71 0 -82 -2 -68 -12z"/>
<path d="M1605 203 c-45 -12 -60 -82 -26 -121 20 -24 45 -27 86 -12 22 8 24
12 13 24 -8 7 -25 13 -38 12 -21 -1 -25 3 -25 29 0 25 5 31 29 35 37 6 44 25
14 34 -13 3 -25 5 -28 5 -3 -1 -14 -4 -25 -6z"/>
<path d="M1690 190 c0 -13 7 -20 20 -20 18 0 20 -7 20 -56 0 -47 3 -55 18 -52
13 2 18 15 20 56 3 45 6 52 23 52 14 0 19 5 17 18 -3 13 -15 17 -61 19 -51 2
-57 0 -57 -17z"/>
<path d="M1824 197 c-3 -8 -4 -41 -2 -73 2 -45 7 -60 19 -62 11 -2 18 7 22 28
5 24 12 30 32 30 16 0 25 6 25 15 0 9 -9 15 -25 15 -14 0 -25 5 -25 10 0 6 14
10 31 10 24 0 30 4 27 18 -4 23 -95 31 -104 9z"/>
<path d="M1972 194 c-16 -11 -22 -25 -22 -52 0 -47 9 -60 48 -71 52 -15 72 -5
72 40 0 37 -2 39 -30 39 -30 0 -43 -24 -17 -33 6 -2 9 -8 5 -12 -15 -16 -39 5
-36 32 2 23 8 29 36 31 51 5 37 42 -17 42 -9 0 -27 -7 -39 -16z"/>
<path d="M2097 203 c-11 -10 -8 -92 3 -113 14 -26 57 -34 86 -15 21 13 24 23
24 76 0 52 -2 60 -17 57 -13 -2 -19 -15 -21 -48 -6 -83 -42 -77 -42 8 0 40
-14 55 -33 35z"/>
</g>
</svg>
