<?xml version="1.0" standalone="no"?>
<!DOCTYPE svg PUBLIC "-//W3C//DTD SVG 20010904//EN"
 "http://www.w3.org/TR/2001/REC-SVG-20010904/DTD/svg10.dtd">
<svg version="1.0" xmlns="http://www.w3.org/2000/svg"
 width="400.000000pt" height="400.000000pt" viewBox="0 0 400.000000 400.000000"
 preserveAspectRatio="xMidYMid meet">
<metadata>
Created by potrace 1.16, written by Peter Selinger 2001-2019
</metadata>
<g transform="translate(0.000000,400.000000) scale(0.100000,-0.100000)"
fill="#000000" stroke="none">
<path d="M0 3375 c0 -410 3 -625 10 -625 6 0 10 -7 10 -15 0 -8 -4 -15 -10
-15 -5 0 -10 -20 -10 -44 0 -37 4 -46 21 -51 12 -4 38 -23 58 -43 34 -35 36
-39 41 -126 7 -124 -6 -236 -28 -237 -10 -1 -24 -3 -32 -4 -8 -1 -23 -3 -34
-4 -12 0 -16 -6 -12 -16 3 -8 1 -15 -4 -15 -5 0 -9 -191 -9 -465 -1 -333 2
-465 10 -465 8 0 8 -4 1 -13 -7 -9 -11 -135 -11 -386 0 -369 0 -373 19 -356
11 10 17 23 13 29 -3 6 0 5 7 -1 12 -11 9 -18 -13 -41 l-27 -28 0 -180 c0
-127 4 -184 12 -192 9 -9 9 -12 0 -12 -7 0 -12 -14 -12 -35 l0 -35 161 0 c150
0 161 1 154 18 -4 9 -9 49 -12 87 -3 59 3 99 40 249 36 148 45 173 50 146 15
-72 -7 -272 -38 -353 -15 -38 -20 -103 -9 -131 6 -14 68 -16 608 -16 l602 0
-3 33 c-1 17 -7 82 -13 142 -5 61 -13 180 -16 265 -3 85 -10 227 -15 315 -23
441 -31 836 -17 851 4 4 48 -31 96 -78 127 -122 237 -170 385 -167 58 2 56 2
-28 10 -107 9 -185 34 -260 85 -60 39 -142 125 -171 179 -16 30 -16 37 -4 59
15 29 40 35 40 10 0 -26 110 -127 176 -161 158 -84 318 -82 488 4 56 28 190
155 178 169 -4 5 5 -2 20 -15 l27 -24 -22 -39 c-12 -22 -53 -73 -92 -112 -73
-75 -137 -113 -235 -141 -54 -15 -55 -15 -10 -10 82 10 183 70 271 159 44 44
77 73 73 63 -3 -10 1 -28 10 -42 20 -30 15 -127 -16 -309 -11 -65 -20 -150
-19 -190 0 -39 2 -143 3 -231 4 -223 -5 -392 -27 -513 -18 -93 -21 -102 -42
-102 -12 0 -27 -9 -33 -20 l-11 -21 -17 21 c-11 13 -22 17 -30 11 -11 -6 -9
-15 7 -42 12 -19 21 -49 21 -66 0 -26 4 -33 20 -33 16 0 20 7 20 34 0 20 8 44
21 57 l20 24 -6 -50 c-3 -27 -8 -67 -11 -87 l-6 -38 836 0 836 0 0 50 c0 28
-4 50 -10 50 -5 0 -10 7 -10 16 0 8 4 13 8 10 5 -3 9 11 10 30 1 31 -1 34 -13
24 -13 -11 -15 -9 -12 9 2 12 9 27 15 33 15 15 16 32 2 23 -6 -3 -10 -1 -10 4
0 6 5 11 10 11 6 0 10 58 10 154 0 127 -3 156 -16 166 -8 8 -19 21 -25 31 -7
14 -5 17 10 16 10 0 17 -6 14 -13 -2 -7 0 -15 6 -18 7 -5 10 159 11 519 0 497
-1 526 -17 523 -16 -3 -18 8 -20 107 -1 70 1 101 7 85 4 -14 8 -57 9 -97 1
-40 6 -75 12 -79 8 -5 10 83 6 317 -3 178 -6 324 -6 324 -17 3 -132 -2 -136
-6 -3 -3 -33 0 -67 6 -65 12 -69 16 -54 63 6 17 4 23 -6 21 -7 -1 -24 0 -38 1
-18 1 -8 7 33 20 32 10 64 26 71 36 8 11 18 14 26 9 10 -6 12 -4 7 9 -4 10 -7
20 -7 22 0 2 -7 4 -15 4 -11 0 -15 11 -15 39 0 32 6 44 31 65 32 27 101 36
114 15 4 -6 14 -8 22 -5 8 3 12 2 9 -2 -2 -4 2 -15 9 -25 11 -15 13 -13 19 20
3 21 6 347 6 725 l0 688 -2000 0 -2000 0 0 -625z m1909 537 c-2 -32 -3 -33 -6
-8 -3 18 -12 30 -26 34 -20 5 -20 6 -1 12 28 11 34 3 33 -38z m125 17 c9 -46
7 -79 -4 -79 -5 0 -10 20 -10 45 0 38 -3 45 -20 45 -11 0 -20 5 -20 10 0 6 11
10 24 10 18 0 25 -7 30 -31z m166 22 c0 -5 -9 -11 -20 -14 -16 -4 -20 -11 -16
-30 2 -13 0 -30 -5 -38 -6 -9 -9 4 -9 39 0 49 1 52 25 52 14 0 25 -4 25 -9z
m-461 -28 c0 -25 -1 -25 -8 -8 -5 11 -7 23 -4 28 8 14 13 7 12 -20z m-125 -40
c4 -27 2 -43 -4 -43 -5 0 -10 13 -10 28 0 15 -5 33 -11 39 -6 6 -8 17 -4 23
11 18 22 0 29 -47z m741 -8 c-3 -31 -9 -54 -12 -51 -3 3 -2 30 2 61 3 31 9 54
12 51 3 -3 2 -30 -2 -61z m-804 -20 l3 -60 -48 -9 c-26 -4 -49 -6 -51 -4 -3 3
-8 32 -11 64 l-6 60 48 10 c27 6 52 7 56 4 3 -3 8 -32 9 -65z m640 34 c-9 -23
-10 -22 -10 11 -1 23 2 31 9 24 7 -7 7 -19 1 -35z m275 -21 c-10 -81 -28 -97
-20 -18 4 36 9 69 11 73 11 19 15 -6 9 -55z m142 21 c12 -5 22 -12 22 -17 0
-16 -31 -112 -36 -112 -3 0 -25 5 -50 11 -48 12 -49 15 -33 88 10 49 11 50 42
44 18 -3 42 -10 55 -14z m-1242 -60 c4 -32 13 -53 22 -57 13 -4 12 -7 -4 -13
-33 -13 -48 -11 -35 5 11 13 9 32 -5 87 -3 11 -12 15 -24 12 -27 -7 -25 6 3
16 31 12 36 7 43 -50z m473 6 c117 -60 137 -76 151 -124 10 -37 0 -40 -25 -8
-12 16 -26 23 -44 22 -39 -3 -41 -4 -35 -20 4 -8 1 -15 -6 -15 -6 0 -9 -4 -6
-9 4 -5 -8 -13 -26 -16 -18 -4 -64 -32 -102 -61 -38 -30 -75 -54 -82 -54 -7 0
-16 -5 -20 -12 -4 -7 -3 -8 4 -4 7 4 12 2 12 -5 0 -6 20 7 46 30 81 76 185
110 230 76 10 -8 27 -15 36 -15 9 0 20 -4 23 -10 3 -5 0 -7 -8 -4 -10 3 -17
-3 -21 -20 -3 -13 -28 -40 -55 -60 -26 -20 -55 -43 -62 -53 -8 -9 10 1 39 22
63 45 81 41 23 -5 -22 -18 -38 -37 -35 -41 3 -5 -2 -9 -11 -9 -9 0 -13 -4 -10
-10 3 -5 2 -10 -4 -10 -6 0 -7 -7 -4 -17 4 -9 2 -14 -3 -10 -5 3 -10 -2 -10
-11 -1 -9 -4 -26 -8 -37 -4 -11 8 7 25 40 18 33 33 62 34 66 0 3 33 35 74 72
71 64 102 79 116 57 4 -6 1 -9 -6 -8 -6 2 -15 -8 -19 -22 -7 -24 -5 -25 25
-22 30 4 34 1 43 -30 15 -46 36 -223 29 -248 -3 -11 -1 -20 5 -20 7 0 8 39 4
113 -7 129 -17 188 -31 188 -5 0 -9 7 -7 16 2 8 -1 12 -7 8 -6 -3 -11 -4 -11
-1 0 2 -3 13 -6 23 -5 15 -4 15 5 3 8 -11 11 -11 11 -2 0 7 -7 15 -15 18 -33
13 -14 26 28 20 75 -12 116 -28 148 -60 39 -37 91 -147 116 -242 17 -67 18
-68 21 -30 4 48 -56 201 -101 259 -16 21 -51 49 -77 62 -27 14 -52 30 -56 36
-5 8 -8 8 -13 0 -5 -8 -14 -6 -29 8 l-22 19 42 10 c28 7 46 8 54 1 7 -5 18 -8
25 -7 8 2 13 -2 12 -9 -1 -6 13 -23 32 -37 37 -29 45 -31 45 -15 0 5 -6 7 -12
3 -7 -4 -10 -4 -6 1 5 5 -2 13 -14 19 -12 6 -23 17 -24 24 -1 7 0 8 2 3 3 -6
13 -7 22 -4 15 4 15 3 2 -6 -13 -9 -12 -11 5 -12 11 -1 24 -1 28 0 5 1 5 -4 1
-10 -5 -9 -2 -10 10 -6 9 4 15 3 11 -2 -3 -5 1 -11 7 -14 10 -3 10 -7 1 -18
-6 -8 -9 -19 -5 -25 8 -13 44 -15 36 -2 -3 5 -9 6 -14 3 -5 -3 -11 -1 -15 5
-10 16 22 12 39 -6 17 -17 22 -39 7 -30 -11 7 -8 -21 4 -31 4 -4 5 -3 2 3 -4
7 0 17 8 24 12 10 13 8 10 -9 -2 -12 0 -19 6 -16 16 10 30 -5 20 -23 -6 -12 1
-39 21 -87 36 -84 118 -315 118 -329 -1 -6 -8 3 -17 19 -21 41 -83 135 -89
135 -9 0 -3 -20 12 -34 11 -11 14 -25 9 -46 -4 -19 -3 -30 4 -30 6 0 11 -12
11 -26 0 -14 4 -23 8 -20 5 3 9 0 9 -7 0 -7 3 -64 7 -127 4 -75 3 -108 -3 -95
l-10 20 -1 -20 c-2 -57 -86 -249 -103 -238 -6 4 -8 0 -4 -10 3 -8 0 -20 -7
-26 -10 -8 -11 -4 -8 19 2 17 7 30 11 30 9 0 10 53 3 260 l-5 185 -14 -100
c-8 -54 -16 -101 -18 -103 -2 -3 -11 -2 -20 1 -10 4 -15 20 -15 47 0 42 -45
233 -61 260 -10 17 -9 8 15 -101 9 -37 18 -97 22 -133 6 -56 4 -66 -9 -66 -16
0 -117 197 -117 229 -1 39 -18 -17 -23 -74 -3 -33 -10 -71 -15 -85 l-10 -25
-7 28 c-4 16 -4 83 0 150 4 67 5 120 2 117 -3 -3 -12 -47 -21 -98 -11 -65 -30
-121 -61 -190 -59 -124 -146 -272 -161 -272 -7 0 -15 12 -18 28 -10 55 -18
224 -10 219 5 -3 10 44 11 105 1 92 5 114 20 132 54 62 38 51 -37 -24 -47 -48
-83 -92 -82 -101 3 -20 -57 -149 -69 -149 -10 0 -11 12 -3 34 3 9 11 13 17 9
6 -3 7 -1 3 6 -4 6 2 27 13 45 12 19 19 41 15 49 -3 9 4 46 16 84 44 137 50
156 46 160 -1 2 -22 -45 -45 -104 -23 -60 -48 -117 -56 -127 -19 -25 -19 -21
4 39 20 55 37 135 21 100 -5 -11 -19 -45 -30 -75 -11 -30 -39 -89 -62 -130
-36 -63 -48 -76 -72 -78 l-29 -4 7 61 c4 33 11 73 16 88 5 16 16 62 25 104 10
49 28 94 50 130 l35 54 -52 -55 c-28 -30 -69 -77 -91 -105 l-40 -50 6 40 c3
22 8 56 11 75 3 19 -3 1 -14 -40 -30 -112 -23 -121 34 -50 27 34 50 59 53 57
2 -3 -3 -24 -11 -48 -15 -44 -34 -122 -42 -169 -2 -14 -4 -62 -4 -107 0 -45
-4 -92 -9 -105 -9 -21 -10 -21 -11 -3 0 16 -2 17 -9 5 -9 -17 1 -179 13 -198
4 -7 3 -12 -3 -12 -19 0 -90 163 -112 255 -30 129 -28 218 11 330 16 50 32 97
34 105 2 8 7 24 11 35 7 19 7 19 -8 -1 -9 -11 -39 -58 -68 -105 -47 -77 -51
-81 -46 -46 3 20 20 64 37 98 34 67 28 71 -14 10 -16 -23 -25 -45 -20 -52 5
-9 2 -10 -11 -5 -15 5 -16 4 -6 -8 8 -10 9 -16 1 -21 -5 -3 -10 -21 -10 -39 0
-42 -19 -98 -31 -90 -5 3 -6 -3 -2 -12 5 -13 3 -16 -10 -11 -11 4 -17 -1 -19
-16 -2 -12 -7 -20 -12 -19 -5 2 -13 -2 -17 -10 -6 -9 -9 -9 -9 -1 0 7 8 16 17
22 10 5 15 12 13 15 -12 11 -29 -12 -58 -79 -37 -82 -43 -66 -8 21 37 94 48
114 63 114 7 0 13 6 14 13 0 6 2 19 5 27 2 8 8 35 13 60 9 45 29 96 69 179 15
29 16 39 6 30 -24 -19 -114 -136 -114 -147 0 -5 -6 -15 -14 -21 -8 -7 -13 -20
-11 -29 2 -9 4 -20 4 -24 1 -4 8 -5 16 -2 25 10 -47 -66 -92 -98 -24 -16 -43
-26 -43 -22 0 16 66 79 82 78 10 -1 18 3 18 8 0 6 -6 8 -14 5 -43 -17 41 163
125 267 98 121 101 125 59 96 -19 -13 -55 -41 -80 -63 -98 -85 -105 -68 -10
25 l95 94 -45 -7 c-25 -3 -54 -3 -65 2 -19 7 -19 8 2 8 32 1 102 34 158 76 48
35 49 36 18 30 -65 -13 -38 4 111 70 l49 22 -49 7 c-86 12 -94 20 -29 28 33 4
107 16 165 26 78 14 109 16 119 8 12 -9 13 -8 6 4 -8 13 -7 13 8 1 9 -7 17
-11 17 -7 0 3 18 -1 40 -10 69 -28 54 -9 -29 36 -69 37 -149 100 -127 100 4 0
56 -25 115 -55z m827 -17 l-11 -53 -5 40 c-3 22 -2 46 3 53 19 25 24 10 13
-40z m-926 16 c0 -8 -4 -12 -10 -9 -5 3 -10 13 -10 21 0 8 5 12 10 9 6 -3 10
-13 10 -21z m216 11 c24 -10 39 -25 50 -51 20 -48 12 -54 -14 -10 -12 20 -36
45 -54 56 -39 24 -31 26 18 5z m-737 -38 c24 -82 24 -85 -15 -102 -20 -8 -42
-15 -49 -15 -13 0 -48 107 -40 121 3 4 19 10 35 14 17 4 30 11 30 15 0 22 30
-5 39 -33z m-754 5 c49 -19 85 -41 85 -52 0 -5 -27 6 -61 23 -52 27 -72 31
-133 31 -72 0 -161 -29 -187 -60 -6 -8 -16 -14 -21 -14 -18 0 14 30 58 56 77
45 170 51 259 16z m2358 12 c51 -17 58 -35 35 -91 -6 -15 -11 -31 -10 -34 2
-11 -33 -7 -80 9 -27 9 -48 19 -48 22 0 26 33 110 44 110 7 0 33 -7 59 -16z
m-1814 -113 c22 -53 26 -71 13 -71 -4 0 -14 21 -21 46 -8 25 -20 48 -27 51
-18 7 -18 23 0 23 7 0 23 -22 35 -49z m2616 9 c21 -40 20 -45 -17 -68 -43 -28
-48 -19 -9 14 17 14 28 30 25 36 -4 5 -15 1 -28 -11 -17 -16 -25 -18 -34 -9
-8 8 -16 8 -29 -3 -20 -15 24 38 47 58 22 18 28 16 45 -17z m-540 -3 c3 -7 -4
-30 -15 -52 -25 -48 -25 -62 -2 -68 14 -4 14 -5 -3 -6 -42 -2 -47 12 -21 64
23 45 24 49 8 61 -15 12 -15 13 6 14 12 0 25 -6 27 -13z m-2460 -58 c24 -54
27 -71 23 -133 -13 -202 -184 -354 -353 -315 -59 14 -145 59 -145 76 0 8 19 1
48 -16 124 -76 244 -62 339 42 65 70 86 119 91 214 4 74 2 87 -22 132 -29 55
-30 61 -17 61 4 0 21 -28 36 -61z m282 0 c20 -49 20 -55 5 -66 -9 -7 -23 -13
-31 -13 -14 1 -13 3 2 14 21 16 21 28 1 68 -11 21 -18 27 -24 19 -5 -9 -9 -7
-13 8 -5 19 8 32 28 27 5 -1 19 -27 32 -57z m-549 24 c-10 -2 -26 -2 -35 0
-10 3 -2 5 17 5 19 0 27 -2 18 -5z m2849 -28 c23 -14 43 -28 43 -31 0 -9 -50
-104 -56 -104 -11 0 -83 40 -89 50 -6 10 43 110 53 110 3 0 25 -11 49 -25z
m-2957 1 c0 -2 -8 -10 -17 -17 -16 -13 -17 -12 -4 4 13 16 21 21 21 13z m184
-25 c9 -10 19 -32 22 -49 7 -33 2 -36 -43 -35 -26 1 -12 -28 16 -33 17 -4 38
-15 48 -26 18 -20 17 -21 -35 -69 -57 -52 -72 -58 -92 -34 -11 13 -15 13 -21
3 -7 -10 -9 -8 -9 5 0 10 -13 30 -30 44 -17 13 -30 30 -30 37 0 7 20 21 45 32
44 18 64 41 25 29 -18 -6 -20 -2 -20 32 0 54 32 90 76 85 18 -2 40 -12 48 -21z
m369 -26 c30 -61 31 -65 18 -65 -4 0 -18 23 -29 51 -19 45 -24 50 -44 43 -20
-6 -21 -5 -9 10 22 27 35 19 64 -39z m1300 38 c-7 -2 -19 -2 -25 0 -7 3 -2 5
12 5 14 0 19 -2 13 -5z m-1549 -72 c-7 -7 -12 3 -19 34 l-6 30 14 -30 c8 -16
13 -32 11 -34z m2926 4 c14 -8 21 -14 15 -14 -5 0 -21 6 -35 14 -14 8 -20 14
-15 14 6 0 21 -6 35 -14z m-2268 -55 c9 -23 27 -44 40 -49 17 -7 18 -10 6 -10
-15 -1 -16 -5 -8 -27 12 -32 13 -44 1 -44 -5 0 -12 11 -15 25 -4 14 -11 25
-17 25 -25 0 -169 -86 -169 -101 0 -5 14 -31 31 -59 20 -32 38 -50 50 -50 10
0 19 5 19 11 0 5 5 7 11 3 8 -4 9 1 4 15 -6 20 -5 21 13 10 16 -10 23 -10 36
0 8 7 13 18 10 25 -3 8 2 16 10 19 24 9 20 -18 -12 -82 -16 -31 -42 -85 -60
-121 -18 -37 -57 -90 -89 -124 -46 -47 -53 -57 -33 -51 26 8 128 64 167 91 22
16 22 15 -4 -45 -14 -33 -30 -58 -34 -55 -14 8 -29 -32 -17 -44 9 -9 5 -12
-18 -12 -29 0 -74 -30 -74 -50 0 -5 8 -11 18 -13 9 -3 3 -5 -14 -6 -21 -1 -37
-10 -52 -31 -12 -16 -22 -31 -22 -34 0 -3 21 -7 48 -9 l47 -3 -56 -2 c-31 -1
-58 -4 -61 -7 -3 -3 -2 -25 2 -50 6 -38 4 -45 -10 -45 -13 0 -16 6 -12 25 2
15 0 25 -7 25 -6 0 -12 -3 -12 -7 -9 -61 -6 -69 24 -64 5 1 6 -3 3 -8 -3 -5
-19 -8 -36 -7 -26 2 -33 -4 -50 -36 -21 -40 -27 -84 -11 -73 5 3 12 1 16 -5 3
-5 -3 -10 -14 -10 -24 0 -48 -40 -57 -98 -5 -34 -3 -41 12 -45 16 -4 16 -5 -2
-6 -27 -1 -41 -31 -16 -31 15 -1 15 -2 -2 -15 -31 -24 -13 -45 41 -47 l48 -1
-50 -7 -50 -7 56 -1 c44 -2 58 2 63 14 10 26 7 54 -6 55 -10 0 -10 2 0 6 21 8
13 33 -10 34 -21 1 -21 2 -3 6 11 3 23 10 27 17 6 8 8 7 8 -1 0 -7 7 -13 15
-13 11 0 15 12 15 45 0 25 5 45 10 45 6 0 10 -13 10 -29 0 -48 9 -61 45 -61
32 0 33 1 33 43 1 61 1 62 11 52 6 -6 11 -29 12 -53 3 -37 6 -42 23 -40 17 2
22 11 24 46 4 50 22 57 22 8 0 -22 6 -36 16 -40 29 -11 34 -6 34 30 0 43 19
66 43 52 11 -6 17 -22 17 -47 0 -31 4 -40 21 -44 20 -5 21 -3 16 36 -5 41 -5
41 5 10 6 -18 15 -33 20 -33 12 0 6 53 -7 62 -6 5 -2 8 8 8 12 0 17 -8 17 -28
0 -36 25 -59 70 -65 22 -2 12 -4 -27 -5 -51 -2 -63 -5 -63 -18 0 -10 6 -14 15
-10 8 3 15 2 15 -2 0 -11 94 -11 108 0 8 7 12 7 12 0 0 -5 9 -8 20 -5 15 4 20
-1 25 -23 13 -56 15 -60 25 -44 6 8 10 26 10 40 l1 25 10 -25 c6 -14 12 -41
14 -60 2 -19 8 -46 13 -60 l10 -25 10 25 c6 14 14 39 19 55 6 25 8 17 13 -45
6 -77 7 -78 33 -10 3 8 6 -6 6 -32 1 -51 7 -47 -94 -64 -22 -4 -46 -11 -52
-17 -9 -6 -13 -5 -13 4 -1 10 -4 8 -11 -3 -5 -10 -17 -18 -25 -18 -8 0 -13 3
-11 8 3 4 -10 8 -29 9 -27 2 -34 -1 -34 -15 -1 -16 -1 -16 -11 1 -16 27 -42
22 -37 -8 4 -20 1 -25 -16 -26 -11 -1 -25 -1 -29 0 -4 1 -31 -9 -59 -21 -47
-20 -52 -20 -63 -5 -19 26 -45 21 -45 -7 0 -36 -17 -40 -24 -6 -7 38 -46 44
-47 8 0 -23 0 -23 -9 -2 -5 14 -20 23 -39 26 -30 4 -31 3 -31 -34 0 -26 -4
-38 -14 -38 -8 0 -13 -8 -12 -17 2 -12 12 -18 30 -18 14 1 26 -4 26 -11 0 -14
-24 -36 -34 -29 -3 3 -2 0 2 -5 5 -6 6 -27 3 -48 -5 -28 -11 -37 -26 -37 -16
0 -21 8 -25 45 -4 40 -6 43 -17 25 -11 -18 -12 -18 -13 -2 0 13 -9 17 -40 17
-23 0 -40 -5 -40 -11 0 -6 -8 -9 -18 -7 -15 4 -18 1 -14 -18 2 -13 8 -22 12
-19 4 3 11 -7 14 -21 6 -23 11 -25 49 -24 23 1 57 1 74 1 31 -1 32 -2 21 -26
-6 -14 -19 -25 -30 -25 -14 0 -18 -8 -20 -37 l-1 -38 -4 38 c-4 32 -8 37 -29
37 -35 0 -41 -26 -14 -62 20 -27 21 -33 9 -55 -7 -14 -34 -36 -59 -51 -25 -14
-64 -39 -87 -54 -24 -16 -49 -28 -55 -26 -7 2 -27 -7 -45 -20 -39 -28 -43 -28
-43 3 0 14 -4 25 -10 25 -5 0 -10 10 -10 22 0 12 3 18 6 15 4 -4 20 1 35 10
29 17 38 33 19 33 -5 0 -10 -5 -10 -11 0 -5 -4 -7 -10 -4 -5 3 -10 2 -10 -3 0
-5 -6 -9 -12 -9 -21 -1 -108 -42 -108 -50 0 -4 16 -37 35 -73 19 -35 35 -70
35 -77 0 -27 -16 -11 -50 52 -19 36 -37 60 -39 54 -2 -6 -12 -3 -23 8 -15 13
-22 15 -25 5 -3 -6 -9 -10 -14 -7 -4 3 -29 -3 -53 -15 l-45 -20 3 -68 c2 -37
4 -71 5 -75 0 -4 16 4 35 18 l34 26 31 -49 c17 -27 31 -54 31 -60 0 -6 -24
-29 -53 -51 -59 -45 -94 -50 -103 -14 -4 13 -9 23 -13 23 -4 0 -8 6 -9 13 -1
6 -5 30 -8 52 -6 38 -5 39 10 20 8 -11 16 -18 17 -15 2 9 5 80 3 80 -1 0 -15
-7 -30 -15 -50 -26 -60 -18 -54 39 1 15 -3 17 -24 12 -19 -5 -26 -3 -26 9 0 8
3 14 8 13 15 -5 92 37 92 50 0 19 -19 52 -30 52 -6 0 -10 -15 -11 -32 -1 -28
-2 -30 -7 -10 -4 13 -10 23 -14 22 -21 -2 -36 -13 -34 -23 1 -7 1 -9 -1 -4 -3
4 -13 7 -24 7 -10 0 -19 3 -19 6 0 15 47 49 63 46 14 -3 17 5 17 52 0 54 -1
56 -20 44 -11 -7 -20 -22 -21 -33 -1 -17 -2 -16 -9 5 -7 26 -13 20 -23 -25 -3
-11 -6 0 -7 25 l-3 45 -6 -35 -7 -35 -5 33 c-4 23 -2 35 8 39 7 3 13 20 13 41
0 19 3 32 7 28 8 -8 9 -12 12 -48 2 -22 3 -22 11 -3 5 11 9 16 10 10 1 -5 5
-1 10 10 8 19 9 19 9 -3 1 -13 5 -20 11 -17 5 3 7 25 3 50 -7 57 12 61 22 5 5
-30 11 -40 26 -40 23 0 25 -16 3 -24 -11 -4 -13 -10 -6 -19 5 -6 15 -49 22
-95 13 -87 30 -104 41 -41 6 30 7 31 8 7 0 -16 3 -28 6 -28 3 0 32 13 65 30
61 31 82 50 56 50 -9 0 -16 2 -16 4 0 2 -3 13 -6 23 -5 16 -4 16 10 -1 20 -25
20 -17 0 34 -9 22 -20 38 -24 35 -4 -3 -8 5 -8 18 0 12 -6 54 -14 92 l-15 70
-36 -2 -35 -2 4 74 c2 48 0 75 -7 75 -6 0 -7 4 -4 10 3 5 -3 10 -14 10 -12 0
-21 -4 -21 -10 0 -5 -7 -10 -15 -10 -8 0 -15 -5 -15 -11 0 -6 -9 -8 -20 -4
-11 3 -20 2 -20 -3 0 -6 -11 -7 -28 -3 -20 5 -28 15 -30 34 -2 15 -8 25 -13
22 -5 -4 -9 0 -9 7 0 35 97 62 138 39 21 -11 26 -10 42 6 13 14 15 24 8 36 -7
13 -5 17 7 17 8 0 14 -3 14 -7 -4 -27 3 -63 11 -58 13 8 13 235 0 235 -5 0
-10 -4 -10 -10 0 -5 -7 -10 -16 -10 -9 0 -14 7 -12 18 2 9 11 17 20 17 9 0 20
4 24 8 4 4 -9 7 -30 7 -23 0 -39 -5 -42 -15 -4 -8 -11 -15 -16 -15 -6 0 -16
-7 -23 -16 -15 -21 -85 -11 -85 11 0 8 -5 15 -11 15 -7 0 -1 10 13 23 14 13
28 30 31 38 4 10 6 10 6 -3 1 -23 31 -24 31 -1 0 14 3 13 21 -6 17 -18 30 -21
67 -19 l47 3 -2 60 c-2 41 1 55 7 45 8 -12 10 -10 10 8 0 13 -4 20 -10 17 -5
-3 -10 -1 -10 4 0 6 6 11 13 11 8 0 26 45 46 117 29 103 31 118 17 128 -8 6
-67 29 -130 50 -64 21 -116 42 -116 46 0 8 38 -2 150 -41 129 -44 125 -44 151
14 75 162 184 321 306 447 48 50 75 86 77 103 4 39 26 58 26 23 l0 -27 55 44
c77 63 159 118 237 158 52 26 65 37 58 48 -7 10 -10 11 -10 3 0 -7 -4 -13 -10
-13 -14 0 -12 33 3 49 10 11 10 13 0 7 -9 -5 -13 0 -13 13 0 33 13 24 32 -19z
m2219 30 c26 -14 27 -85 1 -99 -19 -10 -92 -11 -92 0 0 3 -3 20 -6 37 -11 53
46 89 97 62z m-3294 -32 c-3 -7 -5 -2 -5 12 0 14 2 19 5 13 2 -7 2 -19 0 -25z
m424 -11 c-8 -8 -11 -5 -11 9 0 27 14 41 18 19 2 -9 -1 -22 -7 -28z m3018 17
c14 -12 -19 -1 -35 12 -18 14 -18 14 6 3 14 -6 27 -13 29 -15z m-3459 -4 c0
-5 -2 -10 -4 -10 -3 0 -8 5 -11 10 -3 6 -1 10 4 10 6 0 11 -4 11 -10z m2552
-42 c51 -23 121 -59 156 -80 l63 -38 24 27 c27 31 32 22 11 -17 -13 -23 -12
-26 16 -47 17 -12 35 -20 39 -17 5 3 9 -2 9 -10 0 -9 4 -16 8 -16 15 0 169
-145 231 -216 78 -90 189 -263 238 -371 21 -45 44 -83 51 -83 7 0 53 16 102
35 87 34 124 44 105 27 -6 -4 -37 -19 -70 -31 -58 -23 -126 -52 -133 -57 -2
-1 6 -35 17 -76 11 -40 30 -125 42 -188 14 -74 27 -119 38 -127 15 -11 15 -12
-1 -13 -15 0 -17 -11 -13 -102 4 -131 7 -138 56 -138 33 0 39 3 40 23 l2 22 4
-22 c4 -19 11 -23 44 -23 30 0 39 4 40 18 0 13 2 14 6 2 4 -8 14 -21 23 -27
16 -11 16 -17 5 -50 -13 -38 -14 -38 -62 -34 -54 3 -83 19 -61 32 8 5 -5 9
-34 9 -39 0 -48 -4 -53 -21 -12 -36 -12 -93 -1 -117 7 -17 6 -26 -3 -32 -10
-5 -14 -31 -14 -81 0 -143 -2 -135 48 -151 l44 -15 7 31 c4 19 2 32 -5 34 -13
4 -14 26 -2 50 5 9 12 26 16 37 6 19 7 19 16 3 6 -10 17 -18 26 -18 11 0 14
-6 9 -22 -3 -13 -6 -42 -6 -66 0 -23 -3 -41 -7 -41 -5 1 -17 1 -28 0 -19 -1
-19 -1 0 -15 11 -7 37 -19 58 -27 20 -7 37 -19 37 -26 0 -16 -1 -16 -37 2 -49
24 -93 30 -93 12 0 -8 -20 -55 -45 -103 -41 -82 -43 -89 -26 -96 11 -3 22 -11
26 -17 3 -6 11 -11 16 -11 6 0 7 5 3 12 -4 7 -3 8 5 4 6 -4 9 -12 6 -17 -4 -5
5 -14 19 -21 31 -13 32 -20 8 -56 -10 -15 -23 -36 -28 -47 -7 -12 -22 -20 -37
-20 -14 -1 -24 2 -21 7 2 4 -4 12 -15 17 -16 9 -20 7 -24 -7 -4 -13 -5 -13 -6
4 -1 21 -30 38 -58 35 -15 -2 -17 21 -4 35 15 15 30 83 20 90 -15 9 -10 34 6
28 11 -5 15 1 15 22 0 15 -3 24 -7 20 -4 -4 -13 12 -20 36 -14 48 -7 58 39 58
31 0 57 -39 51 -75 -4 -26 47 70 58 108 7 24 5 29 -17 37 -35 14 -44 12 -44
-5 0 -16 -9 -19 -49 -15 -13 1 -28 -4 -32 -12 -6 -9 -9 -6 -9 10 0 14 -4 21
-11 17 -6 -4 -8 -14 -5 -22 3 -8 2 -12 -3 -9 -4 3 -27 -33 -50 -79 -23 -47
-46 -85 -51 -85 -17 0 -12 15 40 121 28 56 50 108 50 115 0 18 -40 44 -69 44
-19 0 -22 -3 -13 -12 17 -17 15 -28 -5 -22 -15 5 -15 3 1 -10 18 -15 19 -16 2
-16 -12 0 -16 -5 -12 -15 8 -21 -11 -19 -50 6 -19 11 -35 18 -35 15 -5 -24 -1
-33 24 -49 38 -23 28 -33 -12 -13 -37 20 -41 20 -41 2 0 -8 15 -26 33 -40 39
-32 27 -34 -16 -4 -17 13 -36 23 -42 23 -13 0 -177 108 -192 126 -10 12 -8 24
8 57 25 49 19 62 -27 62 -28 0 -34 -4 -35 -22 l-2 -23 -4 23 c-3 14 -12 22
-26 23 l-22 0 23 9 c31 13 28 30 -5 31 -23 1 -25 2 -8 7 17 6 20 16 20 58 0
46 -2 50 -24 52 -37 3 -47 26 -14 30 30 4 52 27 47 51 -14 75 -12 72 -57 67
-23 -3 -43 -5 -44 -5 -2 -1 -3 -19 -3 -41 0 -40 -5 -45 -34 -34 -11 4 -16 19
-16 45 0 32 -4 39 -19 39 -15 0 -21 -8 -23 -32 l-4 -33 -11 25 c-9 18 -12 20
-12 8 -1 -10 -5 -18 -11 -18 -5 0 -10 8 -11 18 0 10 -3 12 -6 5 -7 -18 -23
-16 -23 1 0 14 -58 27 -105 24 -11 -1 -33 0 -50 1 l-30 3 30 7 c17 3 31 14 33
24 3 16 -6 17 -110 15 -74 -1 -121 3 -136 11 -12 6 -27 9 -32 6 -6 -3 -10 -2
-10 4 0 6 -7 8 -15 5 -12 -5 -15 4 -15 51 0 61 15 67 26 10 10 -58 23 -40 26
38 l3 72 20 -75 c20 -74 20 -75 25 -35 4 31 10 41 30 46 24 7 24 7 3 8 -27 1
-30 31 -9 70 l14 25 7 -32 c8 -41 21 -34 29 17 l6 39 82 0 c88 1 108 -7 108
-43 0 -18 4 -21 25 -17 14 2 25 11 25 19 0 8 -4 11 -10 8 -5 -3 -10 2 -10 13
0 18 9 19 148 18 81 0 128 -2 104 -4 -40 -3 -43 -5 -40 -30 2 -22 9 -28 35
-30 26 -3 34 2 45 25 8 16 21 27 31 27 9 -1 17 2 17 7 0 5 5 9 11 9 8 0 8 -5
-1 -15 -14 -16 -6 -65 11 -65 6 0 7 5 3 11 -4 8 0 8 15 0 18 -10 21 -8 26 11
2 13 4 32 2 43 -2 17 3 19 29 17 23 -2 31 1 31 13 0 11 -9 15 -31 15 -17 -1
-172 -1 -343 0 -269 0 -313 2 -313 15 0 8 4 15 9 15 5 0 11 12 14 28 l4 27 8
-32 c4 -20 14 -33 24 -33 9 0 25 -3 36 -5 32 -8 49 10 47 49 -2 20 2 36 8 36
5 0 10 -14 10 -31 0 -42 21 -60 67 -57 37 3 38 5 41 45 2 31 8 42 23 46 16 4
19 0 20 -26 2 -28 2 -29 6 -7 8 43 23 47 23 6 0 -32 17 -66 34 -66 3 0 6 19 8
43 2 35 7 43 26 45 20 3 22 -1 22 -36 0 -43 10 -52 60 -52 37 0 54 22 46 60
-3 17 -1 30 4 30 6 0 10 -16 10 -35 0 -19 5 -35 11 -35 5 0 7 -4 4 -10 -4 -6
8 -10 29 -10 28 0 36 4 36 18 1 16 1 16 11 0 11 -20 39 -24 39 -7 0 30 -34
121 -46 126 -9 3 -13 12 -10 19 7 19 -33 106 -48 105 -36 -4 -76 1 -76 9 0 5
3 9 8 9 20 -3 42 2 42 10 0 5 -9 7 -20 4 -23 -6 -26 9 -6 27 13 10 13 16 -1
46 -13 27 -23 34 -47 35 -17 1 -23 3 -13 6 22 6 21 9 -4 44 -15 21 -29 29 -52
30 -18 1 -24 3 -14 6 9 2 17 8 17 12 0 15 -37 41 -66 47 -17 3 -31 12 -31 19
0 8 7 11 16 7 9 -3 -1 10 -21 30 -34 32 -78 108 -62 108 4 0 21 -9 39 -20 18
-11 59 -31 91 -46 l59 -26 -66 69 c-36 37 -83 95 -105 128 -59 88 -60 89 -41
82 10 -4 24 -10 33 -13 10 -5 5 11 -16 45 -31 50 -37 79 -10 46 19 -23 36 -18
50 15 16 40 22 33 10 -10 -13 -45 5 -70 30 -43 9 10 22 27 28 38 17 30 14 -1
-3 -36 -15 -29 -12 -55 5 -44 4 3 25 30 46 62 l37 56 -28 23 c-15 12 -64 41
-107 64 -64 33 -82 39 -94 30 -7 -7 -14 -19 -14 -26 0 -8 -5 -14 -10 -14 -7 0
-8 13 -5 34 6 28 4 35 -13 40 -19 7 -51 36 -38 36 3 0 48 -19 98 -42z m-202
-20 c0 -18 -2 -20 -9 -8 -6 8 -7 18 -5 22 9 14 14 9 14 -14z m1070 -8 c0 -5
-5 -10 -11 -10 -5 0 -7 5 -4 10 3 6 8 10 11 10 2 0 4 -4 4 -10z m-2998 -42
c-6 -6 -15 -8 -19 -4 -4 4 -1 11 7 16 19 12 27 3 12 -12z m3346 -15 c-10 -2
-28 -2 -40 0 -13 2 -5 4 17 4 22 1 32 -1 23 -4z m-85 -21 c-10 -10 -20 -17
-22 -15 -3 2 -13 -9 -23 -24 -10 -16 -18 -22 -18 -15 0 16 54 72 69 72 6 0 3
-8 -6 -18z m-1116 -14 c-3 -8 -6 -5 -6 6 -1 11 2 17 5 13 3 -3 4 -12 1 -19z
m1285 -28 c-2 -14 0 -20 7 -16 17 11 13 0 -5 -15 -15 -13 -17 -11 -12 20 4 27
1 35 -14 39 -10 2 -18 9 -18 14 0 6 10 4 23 -5 14 -9 21 -22 19 -37z m-83 20
c22 0 51 -44 51 -77 0 -77 -84 -112 -135 -57 -28 30 -28 29 -19 74 7 34 58 74
82 65 8 -3 17 -5 21 -5z m-2745 -26 c3 -8 2 -12 -4 -9 -6 3 -10 10 -10 16 0
14 7 11 14 -7z m-854 -10 c0 -8 -5 -12 -10 -9 -6 4 -8 11 -5 16 9 14 15 11 15
-7z m144 2 c-3 -8 -12 -12 -21 -9 -12 5 -12 7 -1 14 20 13 28 11 22 -5z m-94
-16 c0 -5 -4 -10 -10 -10 -5 0 -10 5 -10 10 0 6 5 10 10 10 6 0 10 -4 10 -10z
m40 -10 c0 -5 -4 -10 -10 -10 -5 0 -10 5 -10 10 0 6 5 10 10 10 6 0 10 -4 10
-10z m3357 -27 c-3 -10 -5 -4 -5 12 0 17 2 24 5 18 2 -7 2 -21 0 -30z m-553
21 c22 -8 20 -37 -3 -51 -27 -17 -47 7 -31 36 12 23 12 23 34 15z m797 -18
c-7 -8 -10 -24 -6 -35 3 -10 1 -22 -5 -26 -6 -4 -10 9 -10 34 0 22 5 41 13 44
18 6 21 -1 8 -17z m-1224 -8 c-3 -8 -6 -5 -6 6 -1 11 2 17 5 13 3 -3 4 -12 1
-19z m1022 -73 c9 -12 4 -8 -11 7 -16 16 -28 34 -28 41 0 6 6 3 12 -8 6 -11
18 -29 27 -40z m-1155 -45 c14 -28 27 -60 29 -73 2 -12 11 -39 21 -59 9 -21
16 -40 16 -43 0 -3 14 -33 30 -67 17 -33 24 -56 17 -50 -21 18 -67 108 -72
140 -2 16 -8 38 -14 48 -13 22 -60 154 -55 154 1 0 14 -23 28 -50z m1124 27
c7 -6 12 -24 10 -41 -6 -64 -89 -65 -96 -1 -7 53 42 77 86 42z m197 3 c-3 -5
-12 -10 -18 -10 -7 0 -6 4 3 10 19 12 23 12 15 0z m-2700 -29 c3 -5 2 -12 -3
-15 -5 -3 -9 1 -9 9 0 17 3 19 12 6z m2628 2 c-7 -2 -19 -2 -25 0 -7 3 -2 5
12 5 14 0 19 -2 13 -5z m-3264 -58 c3 -16 -1 -15 -28 4 -17 13 -29 27 -25 32
8 14 48 -14 53 -36z m2758 -12 c-14 -15 -30 -23 -34 -19 -4 4 5 19 21 32 37
32 48 21 13 -13z m-1503 -160 c-11 -75 -21 -113 -29 -113 -18 0 -22 23 -24
130 -2 93 -2 93 31 127 l33 34 3 -32 c2 -18 -4 -84 -14 -146z m1611 72 c-16
-13 -31 -22 -34 -19 -3 3 8 16 24 29 17 13 32 21 35 18 3 -3 -8 -15 -25 -28z
m-2996 -35 c20 -14 22 -20 12 -38 -7 -12 -16 -22 -22 -22 -20 0 -98 63 -92 74
22 40 33 38 102 -14z m1771 -29 c16 -33 26 -62 22 -64 -4 -3 -29 -8 -55 -11
l-48 -7 4 28 c4 26 38 113 44 113 2 0 16 -27 33 -59z m-118 -92 c-4 -3 -20 -9
-36 -13 -24 -6 -27 -4 -22 9 3 9 2 13 -4 10 -15 -9 -12 0 9 38 10 18 22 49 27
68 7 33 8 31 21 -36 7 -38 10 -72 5 -76z m-428 74 c-17 -56 -17 -56 -43 -48
-20 6 -19 9 16 51 21 24 38 44 39 44 1 0 -4 -21 -12 -47z m-1321 -47 c16 -13
15 -46 -3 -46 -13 0 -100 41 -100 47 0 4 7 14 16 24 15 16 19 17 43 4 14 -8
34 -21 44 -29z m1394 -14 c-28 -5 -31 3 -10 27 l18 22 6 -23 c4 -17 0 -24 -14
-26z m1848 29 c-10 -17 -95 -60 -100 -51 -3 4 14 20 38 34 42 25 73 34 62 17z
m-1240 -82 c-5 -29 -10 -38 -16 -28 -13 21 -11 41 4 33 7 -5 7 -1 -2 10 -13
15 -13 19 -1 26 21 13 23 6 15 -41z m390 15 c9 -15 12 -23 6 -20 -11 7 -35 46
-28 46 3 0 12 -12 22 -26z m-1525 6 c0 -5 -5 -10 -11 -10 -5 0 -7 5 -4 10 3 6
8 10 11 10 2 0 4 -4 4 -10z m-933 -40 c5 0 33 -32 33 -38 0 -4 -4 -13 -9 -20
-7 -11 -17 -11 -60 4 -54 20 -57 24 -41 54 8 16 15 17 42 9 18 -5 34 -9 35 -9z
m3341 9 c-5 -14 -88 -51 -88 -39 0 9 67 49 83 50 5 0 7 -5 5 -11z m-1818 -24
c0 -8 -4 -15 -8 -15 -5 0 -9 7 -9 15 0 8 4 15 9 15 4 0 8 -7 8 -15z m272 -2
c4 -49 4 -59 -4 -75 -7 -15 -6 -16 19 -2 26 13 29 12 53 -14 14 -15 22 -23 18
-18 -11 14 -10 46 1 46 6 0 13 -4 16 -10 3 -5 20 -7 37 -3 28 5 31 4 25 -13
-6 -15 -3 -14 13 5 12 13 26 21 35 17 8 -3 15 0 15 6 0 6 3 9 6 5 12 -11 -8
-47 -34 -62 -15 -8 -20 -14 -12 -15 19 0 66 31 84 55 11 16 12 12 9 -31 -3
-43 -21 -119 -40 -171 -5 -14 0 -13 20 6 26 24 27 24 27 4 0 -29 -38 -119 -75
-178 -39 -60 -161 -179 -175 -170 -6 4 -9 1 -8 -5 2 -7 -6 -17 -17 -23 -11 -7
-24 -18 -28 -24 -4 -7 -14 -13 -22 -13 -7 0 -15 -5 -17 -12 -5 -13 -24 -18
-95 -24 -44 -4 -56 -1 -70 16 -10 11 -25 20 -35 20 -9 0 -24 10 -32 22 -9 12
-16 19 -16 15 0 -5 -7 -2 -15 7 -8 8 -15 20 -15 26 0 6 -4 9 -9 6 -5 -3 -15 2
-22 11 -12 14 -12 16 0 8 10 -5 12 -4 7 4 -4 6 -11 9 -16 6 -5 -3 -18 7 -29
21 -12 15 -21 23 -21 19 0 -8 -78 88 -103 128 -10 15 -15 32 -12 37 3 6 1 10
-5 10 -7 0 -9 8 -5 21 5 15 4 19 -4 15 -6 -4 -11 -4 -12 1 0 4 -2 16 -4 25 -3
15 0 16 16 8 24 -13 24 -12 -1 41 -11 24 -19 55 -19 69 0 23 2 22 39 -20 44
-50 49 -48 21 8 -10 20 -22 53 -26 72 l-7 35 21 -22 c12 -13 28 -23 36 -23 8
0 1 12 -17 30 -31 31 -33 53 -5 58 9 2 22 -9 31 -27 21 -40 34 -46 28 -13 -4
22 -2 25 9 15 16 -16 46 -17 51 -1 2 6 10 8 17 4 7 -5 10 -15 7 -25 -4 -10 1
-7 11 6 16 20 21 21 43 10 24 -12 25 -17 24 -92 l0 -79 23 52 c12 28 25 52 29
52 3 0 3 -19 -1 -42 l-7 -43 33 45 c19 25 43 62 53 83 11 20 22 35 25 31 3 -3
10 9 16 27 6 18 21 36 34 40 16 7 20 6 15 -4 -6 -9 -4 -9 8 1 8 7 24 9 33 5
13 -4 16 -3 11 5 -4 7 -2 12 3 12 6 0 12 -8 13 -17z m-2062 -23 c0 -11 -4 -20
-10 -20 -5 0 -10 9 -10 20 0 11 5 20 10 20 6 0 10 -9 10 -20z m3804 3 c7 -18
-19 -16 -34 1 -9 12 -8 15 9 13 11 -1 23 -7 25 -14z m76 5 c0 6 8 12 17 12 12
0 14 -3 6 -11 -14 -14 -73 -23 -73 -10 0 14 34 19 42 6 5 -6 8 -6 8 3z m-3845
-8 c-3 -5 -11 -10 -16 -10 -6 0 -7 5 -4 10 3 6 11 10 16 10 6 0 7 -4 4 -10z
m1118 -7 c-7 -2 -19 -2 -25 0 -7 3 -2 5 12 5 14 0 19 -2 13 -5z m93 -50 c-10
-26 -18 -8 -9 23 5 21 8 24 11 11 2 -10 1 -25 -2 -34z m44 12 c0 -7 -8 -23
-18 -35 -18 -22 -18 -22 -14 18 3 30 8 39 18 35 8 -3 14 -11 14 -18z m-271
-47 c-1 -35 -4 -53 -6 -40 -2 12 -8 22 -13 22 -6 0 -6 10 0 25 6 15 6 26 -1
30 -11 7 -3 25 12 25 5 0 8 -28 8 -62z m61 22 c0 -22 -3 -40 -7 -40 -5 0 -8
18 -8 40 -1 22 3 40 7 40 4 0 8 -18 8 -40z m92 1 c-3 -28 -1 -33 13 -28 12 5
14 3 6 -10 -6 -12 -4 -21 7 -31 10 -7 11 -11 5 -7 -9 4 -13 -1 -13 -14 0 -12
5 -21 10 -21 6 0 10 -16 10 -35 0 -19 3 -35 8 -36 4 0 17 -2 30 -5 19 -3 22 1
23 29 l1 32 8 -35 c5 -19 8 -36 7 -37 -2 -2 -115 -5 -134 -4 -17 1 -13 89 4
95 7 3 13 12 13 20 0 9 -6 13 -14 10 -11 -4 -16 6 -21 40 -9 55 -1 79 22 74
14 -3 17 -12 15 -37z m1490 -26 c7 -7 9 0 4 24 -7 41 1 36 13 -7 7 -24 6 -32
-6 -36 -25 -10 -33 3 -32 47 2 34 3 36 6 12 3 -16 9 -34 15 -40z m84 44 c1 -5
2 -18 3 -28 0 -12 10 -21 24 -24 12 -2 2 -5 -23 -5 -25 0 -39 2 -32 5 6 2 12
21 12 41 0 30 12 39 16 11z m86 -19 c2 -23 -1 -40 -7 -40 -5 0 -10 18 -10 40
-1 52 12 52 17 0z m-288 -17 c-8 -18 -11 -29 -13 -50 0 -6 -21 -38 -46 -71
-33 -43 -54 -62 -76 -67 -36 -8 -47 -1 -29 20 7 9 15 13 18 11 9 -10 43 15 36
26 -4 6 -3 8 3 5 5 -3 17 7 26 23 10 16 26 32 37 35 13 4 20 15 20 31 0 24 20
67 28 59 3 -2 1 -12 -4 -22z m86 -53 c0 -5 -5 -10 -11 -10 -5 0 -7 5 -4 10 3
6 8 10 11 10 2 0 4 -4 4 -10z m115 0 c-7 -12 -42 -13 -49 -2 -2 4 9 9 25 10
19 2 28 -2 24 -8z m90 0 c4 -6 -5 -10 -20 -10 -15 0 -24 4 -20 10 3 6 12 10
20 10 8 0 17 -4 20 -10z m55 0 c0 -5 -4 -10 -10 -10 -5 0 -10 5 -10 10 0 6 5
10 10 10 6 0 10 -4 10 -10z m86 -32 c4 -7 3 -8 -4 -4 -9 5 -12 -8 -12 -43 l0
-50 -35 1 c-22 1 -31 4 -23 9 7 5 13 14 14 21 0 7 2 23 2 36 2 19 15 30 49 41
1 1 5 -4 9 -11z m-2038 -53 l3 -47 -35 6 c-26 5 -36 3 -37 -6 0 -10 -2 -10 -6
0 -2 6 -9 9 -15 6 -5 -3 -4 3 4 15 7 12 14 17 16 11 7 -20 22 -10 22 14 0 37
10 54 28 52 13 -2 18 -15 20 -51z m82 15 c0 -29 4 -40 15 -40 8 0 15 -4 15
-10 0 -5 -11 -10 -24 -10 -21 0 -24 6 -28 43 -5 45 -2 57 13 57 5 0 9 -18 9
-40z m96 -40 c8 0 14 -4 14 -10 0 -13 -40 -13 -60 0 -13 8 -12 10 3 10 15 0
18 7 17 33 -3 50 3 57 7 10 3 -29 9 -43 19 -43z m264 40 c17 -22 38 -40 45
-40 7 0 18 -7 25 -15 25 -30 -30 -16 -58 14 -41 44 -54 61 -45 61 4 0 1 5 -7
10 -9 6 -10 10 -3 10 6 0 26 -18 43 -40z m1300 0 c0 -36 3 -40 25 -40 21 0 25
5 25 30 0 17 -4 30 -10 30 -5 0 -10 5 -10 10 0 6 6 10 14 10 10 0 16 -13 18
-37 2 -27 8 -39 21 -41 12 -2 17 3 17 18 0 30 18 60 35 60 11 0 15 -13 15 -49
l0 -49 -105 -1 c-95 -1 -129 7 -91 22 10 4 13 15 10 32 -5 30 2 45 22 45 10 0
14 -12 14 -40z m-2495 18 c15 -7 25 -19 25 -32 0 -38 -14 -48 -54 -41 -40 8
-41 9 -25 54 12 34 17 36 54 19z m3491 -24 c5 -26 3 -39 -7 -45 -27 -17 -47
-9 -58 23 -13 36 -13 34 19 47 37 15 39 14 46 -25z m-1100 -34 c8 0 12 -4 9
-10 -8 -12 -115 -13 -115 -1 0 5 7 14 16 22 13 10 17 10 24 -1 4 -7 15 -10 25
-7 9 4 13 11 10 17 -3 5 -3 16 2 23 5 8 9 3 11 -15 2 -17 9 -28 18 -28z
m-1216 -8 c0 -4 -11 -8 -25 -8 -14 0 -25 4 -25 8 0 4 11 8 25 8 14 0 25 -4 25
-8z m89 -136 c1 -23 -2 -27 -19 -23 -10 3 -21 0 -24 -7 -2 -6 -5 -1 -5 11 -1
16 3 21 14 17 12 -5 15 2 16 32 0 31 2 35 9 19 5 -11 9 -33 9 -49z m-1294 8
l40 -8 -42 -4 c-29 -2 -43 -8 -46 -20 -3 -9 -5 1 -6 23 0 22 3 35 7 29 4 -6
25 -15 47 -20z m2455 -80 c0 -14 -3 -14 -15 -4 -8 7 -15 14 -15 16 0 2 7 4 15
4 8 0 15 -7 15 -16z m-2360 -124 c0 -5 -7 -10 -16 -10 -8 0 -12 5 -9 10 3 6
10 10 16 10 5 0 9 -4 9 -10z m0 -37 c0 -28 -16 -48 -25 -33 -4 7 -1 16 6 21
11 7 11 9 1 9 -7 0 -10 5 -7 10 10 16 25 12 25 -7z m1411 -7 c5 3 9 -1 9 -8 1
-22 72 -112 79 -99 5 7 25 -5 57 -35 27 -25 61 -53 77 -62 15 -9 25 -22 22
-30 -2 -7 -1 -11 4 -7 5 3 21 1 36 -5 29 -11 71 5 111 42 12 10 26 18 33 16 6
-2 34 35 61 82 l50 85 0 -131 c0 -111 3 -134 17 -145 14 -12 16 -12 8 1 -5 8
12 -3 38 -24 26 -21 47 -46 47 -56 0 -45 -93 -139 -175 -176 -153 -70 -286
-71 -439 -1 -64 29 -162 121 -172 161 -7 29 21 60 63 72 14 4 20 11 16 18 -4
6 1 5 10 -3 10 -8 21 -11 25 -7 4 4 7 79 7 167 0 87 2 154 3 149 2 -6 8 -8 13
-4z m2009 4 c0 -5 -2 -10 -4 -10 -3 0 -8 5 -11 10 -3 6 -1 10 4 10 6 0 11 -4
11 -10z m-3544 -30 c8 0 14 5 14 12 0 9 3 9 12 0 7 -7 20 -12 31 -12 13 0 18
-6 15 -22 -2 -19 -11 -24 -50 -28 -26 -3 -55 -2 -63 3 -19 10 -20 47 0 47 8 0
15 6 16 13 0 10 2 10 6 0 2 -7 11 -13 19 -13z m3809 -47 c-9 -59 -11 -133 -4
-133 3 0 6 -7 6 -15 0 -8 -6 -15 -13 -15 -15 0 -17 169 -2 188 16 19 19 15 13
-25z m-3685 7 c0 -5 -4 -10 -10 -10 -5 0 -10 5 -10 10 0 6 5 10 10 10 6 0 10
-4 10 -10z m1269 -25 c-15 -8 -43 -36 -62 -62 -49 -66 -177 -191 -177 -172 0
20 22 51 92 131 61 69 70 85 41 70 -10 -6 -54 -19 -98 -31 -118 -32 -305 -101
-307 -115 0 -6 -2 -36 -3 -66 -4 -142 -1 -133 -50 -162 -27 -17 -52 -42 -65
-67 -13 -27 -27 -41 -40 -41 -34 0 -32 19 8 68 48 57 71 102 106 210 16 47 35
86 45 92 38 20 300 103 382 121 47 10 97 23 110 28 36 15 47 12 18 -4z m-499
-105 c0 -5 -5 -10 -11 -10 -5 0 -7 5 -4 10 3 6 8 10 11 10 2 0 4 -4 4 -10z
m2655 -80 c-3 -5 -11 -10 -16 -10 -6 0 -7 5 -4 10 3 6 11 10 16 10 6 0 7 -4 4
-10z m81 -57 c8 -3 14 -11 14 -19 0 -8 6 -14 13 -14 6 -1 3 -6 -9 -13 -12 -7
-19 -18 -17 -24 3 -7 0 -13 -5 -13 -6 0 -13 6 -15 13 -4 9 -8 9 -15 -2 -6 -8
-18 -11 -30 -7 -15 5 -22 2 -25 -11 -3 -11 -5 -6 -6 12 -1 17 -3 47 -5 68 l-3
39 38 -4 c30 -3 39 0 40 12 1 8 4 5 6 -8 3 -13 11 -26 19 -29z m-3776 27 c0
-5 -5 -10 -11 -10 -5 0 -7 5 -4 10 3 6 8 10 11 10 2 0 4 -4 4 -10z m205 -3 c1
-1 5 -17 8 -35 6 -28 3 -34 -18 -44 -14 -6 -25 -18 -25 -25 0 -8 -5 -11 -12
-7 -6 4 -17 -1 -25 -11 -12 -17 -13 -17 -13 -2 0 10 -8 17 -20 17 -14 0 -21 9
-26 37 -6 32 -4 39 20 58 20 16 37 20 68 18 23 -2 42 -4 43 -6z m3609 -92 c-4
-8 -8 -15 -10 -15 -2 0 -4 7 -4 15 0 8 4 15 10 15 5 0 7 -7 4 -15z m-3814 -51
c0 -35 -17 -30 -18 6 0 17 4 28 9 25 5 -4 9 -17 9 -31z m325 6 c3 -5 -1 -10
-10 -10 -9 0 -13 5 -10 10 3 6 8 10 10 10 2 0 7 -4 10 -10z m2565 -22 c0 -5
-7 -3 -15 6 -8 8 -15 18 -15 22 0 3 7 1 15 -6 8 -7 15 -17 15 -22z m-2834 -44
c9 3 14 -1 14 -14 0 -11 -4 -20 -9 -20 -5 0 -16 -3 -25 -6 -12 -5 -16 0 -16
19 0 14 3 34 7 44 7 16 8 15 11 -5 2 -16 8 -22 18 -18z m211 -66 c-3 -8 -6 -5
-6 6 -1 11 2 17 5 13 3 -3 4 -12 1 -19z m3679 -25 c-10 -10 -19 5 -10 18 6 11
8 11 12 0 2 -7 1 -15 -2 -18z m-927 0 c0 -11 -3 -13 -6 -5 -2 6 -10 9 -15 6
-7 -4 -8 -2 -4 4 11 18 26 14 25 -5z m-3019 -24 c0 -11 -4 -17 -10 -14 -13 8
-13 35 0 35 6 0 10 -9 10 -21z m37 -16 c-3 -10 -5 -4 -5 12 0 17 2 24 5 18 2
-7 2 -21 0 -30z m230 0 c-3 -10 -5 -4 -5 12 0 17 2 24 5 18 2 -7 2 -21 0 -30z
m568 27 c-4 -6 -37 -26 -74 -44 -50 -26 -84 -53 -135 -110 -84 -94 -97 -131
-100 -284 -1 -66 -7 -116 -13 -120 -6 -4 -14 -18 -18 -31 -6 -19 -9 -21 -17
-10 -6 9 -7 -2 -2 -31 15 -85 12 -105 -16 -109 -14 -1 -28 -8 -31 -13 -4 -6
-10 8 -14 31 -4 23 -8 41 -10 39 -1 -2 1 -79 5 -173 9 -169 5 -234 -11 -218
-18 18 -38 212 -28 271 45 280 134 564 198 636 37 40 134 114 195 147 52 29
82 37 71 19z m3025 -50 c0 -20 -4 -30 -8 -23 -9 14 -26 5 -36 -17 -3 -8 -3 3
0 25 8 54 23 82 35 64 5 -8 9 -30 9 -49z m50 27 c0 -18 -2 -19 -10 -7 -8 12
-10 11 -10 -7 0 -12 -5 -25 -11 -29 -8 -4 -9 4 -4 27 4 19 9 37 12 42 8 13 23
-4 23 -26z m38 6 c-2 -9 -8 -18 -15 -20 -7 -3 -9 3 -6 16 6 25 26 28 21 4z
m-3911 -90 c-3 -10 -5 -4 -5 12 0 17 2 24 5 18 2 -7 2 -21 0 -30z m-35 -3 c3
-21 0 -30 -9 -30 -9 0 -13 10 -11 30 1 17 5 30 9 30 4 0 9 -13 11 -30z m3691
-71 c49 -28 35 -49 -14 -23 -19 10 -38 18 -44 19 -5 0 -11 10 -13 23 -4 25 -6
26 71 -19z m-3653 -9 c0 -22 -3 -40 -7 -40 -5 0 -7 15 -6 32 2 47 2 48 8 48 3
0 5 -18 5 -40z m3777 -2 c-3 -8 -6 -5 -6 6 -1 11 2 17 5 13 3 -3 4 -12 1 -19z
m-3809 -30 l-1 -43 -4 38 c-2 20 -8 35 -14 32 -5 -4 -9 -1 -9 4 0 6 7 11 15
11 11 0 15 -11 13 -42z m82 27 c0 -8 -4 -15 -10 -15 -5 0 -10 7 -10 15 0 8 5
15 10 15 6 0 10 -7 10 -15z m-83 -142 c-2 -16 -4 -5 -4 22 0 28 2 40 4 28 2
-13 2 -35 0 -50z m3930 -5 c-3 -8 -6 -5 -6 6 -1 11 2 17 5 13 3 -3 4 -12 1
-19z m-3930 -70 c-3 -7 -5 -2 -5 12 0 14 2 19 5 13 2 -7 2 -19 0 -25z m3943
-28 c0 -5 -5 -10 -11 -10 -5 0 -7 5 -4 10 3 6 8 10 11 10 2 0 4 -4 4 -10z
m-3533 -41 c-12 -29 -16 -31 -22 -16 -5 11 -1 25 10 37 25 27 29 19 12 -21z
m3093 4 c0 -21 -3 -23 -14 -14 -8 6 -16 20 -19 30 -3 14 0 17 14 14 12 -4 19
-14 19 -30z m-3503 -5 c-3 -7 -5 -2 -5 12 0 14 2 19 5 13 2 -7 2 -19 0 -25z
m3511 -96 c2 -7 -2 -10 -12 -6 -9 3 -16 11 -16 16 0 13 23 5 28 -10z m-3329
-13 c-15 -9 -32 -2 -24 11 3 5 13 6 21 3 12 -4 13 -8 3 -14z m68 -1 c-3 -8 -6
-5 -6 6 -1 11 2 17 5 13 3 -3 4 -12 1 -19z m2570 -95 c-3 -10 -5 -4 -5 12 0
17 2 24 5 18 2 -7 2 -21 0 -30z m42 15 c-1 -7 -5 -24 -9 -38 -7 -22 -8 -21 -9
13 -1 20 4 37 9 37 6 0 10 -6 9 -12z m-139 -23 c0 -16 -6 -25 -15 -25 -15 0
-21 31 -8 43 13 14 23 6 23 -18z m45 15 c3 -5 1 -10 -4 -10 -6 0 -11 5 -11 10
0 6 2 10 4 10 3 0 8 -4 11 -10z m35 -9 c0 -11 -4 -23 -10 -26 -6 -4 -10 5 -10
19 0 14 5 26 10 26 6 0 10 -9 10 -19z m-63 -13 c-3 -8 -6 -5 -6 6 -1 11 2 17
5 13 3 -3 4 -12 1 -19z m140 -10 c-3 -7 -5 -2 -5 12 0 14 2 19 5 13 2 -7 2
-19 0 -25z m-2557 -22 c0 -2 -9 -6 -20 -9 -11 -3 -18 -1 -14 4 5 9 34 13 34 5z
m-79 -49 l-24 -22 19 27 c10 14 21 24 23 22 3 -3 -6 -15 -18 -27z m2465 -34
c-11 -11 -17 4 -9 23 7 18 8 18 11 1 2 -10 1 -21 -2 -24z m114 9 c0 -19 -5
-29 -15 -29 -18 0 -20 23 -2 42 16 19 17 19 17 -13z m17 -34 c-2 -13 -4 -5 -4
17 -1 22 1 32 4 23 2 -10 2 -28 0 -40z m40 5 c-3 -10 -5 -2 -5 17 0 19 2 27 5
18 2 -10 2 -26 0 -35z m120 -60 c-2 -21 -4 -4 -4 37 0 41 2 58 4 38 2 -21 2
-55 0 -75z m-140 60 c-3 -10 -5 -4 -5 12 0 17 2 24 5 18 2 -7 2 -21 0 -30z
m-2607 7 c6 -11 8 -20 6 -20 -3 0 -10 9 -16 20 -6 11 -8 20 -6 20 3 0 10 -9
16 -20z m2470 -35 c0 -8 -7 -15 -15 -15 -26 0 -18 20 13 29 1 1 2 -6 2 -14z
m1132 4 c13 -6 31 -21 41 -35 l18 -24 -30 0 c-30 0 -61 29 -61 57 0 16 3 16
32 2z m71 -24 c36 -45 21 -45 -23 0 -21 22 -28 35 -19 35 7 0 27 -16 42 -35z
m-1046 -27 c-3 -7 -5 -2 -5 12 0 14 2 19 5 13 2 -7 2 -19 0 -25z m-170 -45
c-3 -10 -5 -4 -5 12 0 17 2 24 5 18 2 -7 2 -21 0 -30z m120 -10 c-3 -10 -5 -4
-5 12 0 17 2 24 5 18 2 -7 2 -21 0 -30z m-27 7 c0 -11 -4 -20 -10 -20 -5 0
-10 9 -10 20 0 11 5 20 10 20 6 0 10 -9 10 -20z m158 13 c-16 -2 -40 -2 -55 0
-16 2 -3 4 27 4 30 0 43 -2 28 -4z m-2914 -28 c-4 -9 -1 -15 7 -15 27 0 -18
-31 -51 -35 l-33 -4 33 34 c36 37 53 45 44 20z m2956 -20 c0 -8 -7 -15 -15
-15 -13 0 -14 3 -3 15 16 18 18 18 18 0z m-123 -67 c-3 -7 -5 -2 -5 12 0 14 2
19 5 13 2 -7 2 -19 0 -25z m-167 -13 c0 -8 -4 -15 -10 -15 -5 0 -7 7 -4 15 4
8 8 15 10 15 2 0 4 -7 4 -15z m117 -42 c-3 -10 -5 -4 -5 12 0 17 2 24 5 18 2
-7 2 -21 0 -30z m-20 5 c-3 -8 -6 -5 -6 6 -1 11 2 17 5 13 3 -3 4 -12 1 -19z
m70 -15 c-3 -10 -5 -4 -5 12 0 17 2 24 5 18 2 -7 2 -21 0 -30z m1052 -27 c-2
-2 -29 -6 -59 -9 -34 -3 -47 -2 -35 3 19 8 103 14 94 6z m-139 -30 c0 -2 -8
-10 -17 -17 -16 -13 -17 -12 -4 4 13 16 21 21 21 13z m-3793 -28 c-3 -8 -6 -5
-6 6 -1 11 2 17 5 13 3 -3 4 -12 1 -19z m84 -25 c8 -9 9 -14 2 -10 -7 5 -13
-1 -16 -15 -3 -17 -5 -14 -6 10 -1 37 1 39 20 15z m99 -13 c0 -20 -5 -30 -15
-30 -10 0 -15 9 -14 28 0 24 1 25 9 7 8 -19 9 -19 9 3 1 33 11 27 11 -8z
m3693 14 c-3 -8 -11 -13 -18 -10 -7 2 -18 -1 -24 -7 -6 -6 -14 -8 -17 -4 -5 5
44 33 63 37 1 0 0 -7 -4 -16z m57 1 c0 -8 -4 -15 -10 -15 -5 0 -10 7 -10 15 0
8 5 15 10 15 6 0 10 -7 10 -15z m-30 -11 c0 -8 -5 -12 -10 -9 -6 4 -8 11 -5
16 9 14 15 11 15 -7z m-90 -49 c0 -8 -9 -19 -20 -25 -21 -11 -25 -4 -14 24 8
20 34 21 34 1z m90 -10 c-7 -9 -15 -13 -18 -10 -3 2 1 11 8 20 7 9 15 13 18
10 3 -2 -1 -11 -8 -20z m-35 -15 c4 -6 -1 -7 -11 -3 -13 5 -16 3 -11 -9 3 -10
0 -19 -9 -22 -9 -3 -12 -1 -9 4 9 15 -7 12 -29 -5 -25 -19 -36 -19 -36 0 0 9
12 18 30 22 17 3 33 10 36 14 7 12 31 11 39 -1z m-38 -57 c-14 -4 -15 -8 -7
-18 8 -9 7 -14 -3 -18 -8 -3 -14 4 -15 19 -1 19 3 24 21 23 17 -1 18 -2 4 -6z"/>
<path d="M1456 3892 c-2 -4 -2 -27 1 -50 6 -41 7 -43 37 -40 29 3 31 5 34 51
l3 47 -35 0 c-19 0 -37 -4 -40 -8z"/>
<path d="M2524 3845 c-3 -25 -4 -48 -2 -50 2 -3 19 -8 36 -11 28 -6 32 -4 37
22 4 16 9 36 11 45 3 12 -5 20 -27 28 -46 16 -47 15 -55 -34z"/>
<path d="M1828 3713 c7 -3 16 -2 19 1 4 3 -2 6 -13 5 -11 0 -14 -3 -6 -6z"/>
<path d="M1715 3700 c-13 -6 -15 -9 -5 -9 8 0 22 4 30 9 18 12 2 12 -25 0z"/>
<path d="M1645 3679 c-13 -5 0 -8 39 -8 33 -1 57 1 55 3 -9 9 -75 13 -94 5z"/>
<path d="M1578 3654 c-39 -21 -35 -28 5 -8 37 19 44 24 31 24 -5 -1 -21 -8
-36 -16z"/>
<path d="M1905 3610 c-3 -6 1 -7 9 -4 18 7 21 14 7 14 -6 0 -13 -4 -16 -10z"/>
<path d="M2327 3596 c-4 -10 -1 -13 8 -9 8 3 12 9 9 14 -7 12 -11 11 -17 -5z"/>
<path d="M1800 3580 c-8 -5 -10 -10 -5 -10 6 0 17 5 25 10 8 5 11 10 5 10 -5
0 -17 -5 -25 -10z"/>
<path d="M1714 3540 c-29 -16 -54 -27 -56 -25 -2 3 -18 -9 -34 -26 l-29 -31
45 24 c63 34 146 88 134 88 -5 0 -32 -13 -60 -30z"/>
<path d="M1749 3343 c-13 -16 -12 -17 4 -4 9 7 17 15 17 17 0 8 -8 3 -21 -13z"/>
<path d="M1184 3098 c-4 -7 -3 -8 4 -4 7 4 12 2 12 -4 0 -6 5 -8 10 -5 11 7 4
25 -10 25 -5 0 -12 -5 -16 -12z"/>
<path d="M1157 3808 c-23 -8 -27 -14 -22 -32 4 -11 9 -31 12 -43 6 -25 33 -32
33 -8 0 18 17 20 23 3 10 -29 17 2 8 38 -5 21 -9 33 -10 27 -1 -7 -6 -13 -12
-13 -6 0 -9 9 -6 20 3 11 4 20 4 19 -1 0 -15 -5 -30 -11z m43 -48 c0 -5 -5
-10 -11 -10 -5 0 -7 5 -4 10 3 6 8 10 11 10 2 0 4 -4 4 -10z"/>
<path d="M2751 3789 c-16 -47 -14 -56 19 -68 40 -13 56 -6 69 31 15 43 15 45
-20 57 -48 16 -56 14 -68 -20z"/>
<path d="M3574 3708 l-19 -23 23 19 c21 18 27 26 19 26 -2 0 -12 -10 -23 -22z"/>
<path d="M3140 3619 c-21 -39 -21 -41 -3 -54 37 -28 53 -25 73 15 21 41 19 45
-27 69 -20 10 -24 8 -43 -30z"/>
<path d="M973 3294 c-57 -43 -113 -95 -113 -105 0 -11 91 -109 101 -109 16 0
10 20 -17 58 l-27 37 36 -37 c33 -33 37 -35 50 -20 14 16 13 47 -2 38 -4 -3
-7 5 -7 16 0 18 2 18 23 -7 25 -29 29 -26 12 8 -12 22 -12 22 10 3 23 -21 27
-16 10 17 -12 22 -12 22 10 3 11 -11 21 -14 21 -8 0 7 4 11 9 10 5 -2 10 -1
12 2 4 7 -65 130 -73 130 -3 0 -28 -16 -55 -36z m107 -80 c0 -8 -5 -12 -10 -9
-6 4 -8 11 -5 16 9 14 15 11 15 -7z m-70 -80 c0 -8 -19 -13 -24 -6 -3 5 1 9 9
9 8 0 15 -2 15 -3z"/>
<path d="M783 3127 c-70 -73 -159 -181 -177 -215 l-15 -29 57 -36 c70 -45 101
-49 54 -7 -38 35 -33 38 14 9 31 -19 35 -19 40 -4 4 10 -3 26 -17 43 l-24 26
29 -18 c21 -14 31 -15 40 -6 8 8 3 19 -22 41 -36 33 -31 39 8 9 30 -24 40 -25
40 -5 0 8 5 14 12 13 22 -5 20 34 -3 58 -12 13 -17 24 -11 24 6 0 16 -8 21
-17 10 -17 11 -16 12 2 1 11 1 24 -1 30 -1 5 8 1 19 -9 12 -11 21 -15 21 -10
0 5 4 4 8 -3 5 -8 12 -3 19 17 6 17 8 28 3 25 -4 -3 -11 2 -14 11 -4 9 -2 13
5 8 17 -10 -5 26 -38 63 l-29 32 -51 -52z m73 -14 c-11 -11 -19 6 -11 24 8 17
8 17 12 0 3 -10 2 -21 -1 -24z"/>
<path d="M850 3023 c0 -6 8 -17 18 -24 16 -13 16 -13 2 6 -8 11 -16 22 -17 24
-2 2 -3 0 -3 -6z"/>
<path d="M515 2764 c-50 -91 -55 -107 -44 -121 12 -15 12 -16 -3 -10 -10 3
-18 2 -18 -4 0 -14 89 -51 103 -42 7 4 -5 14 -28 25 -47 21 -30 22 40 4 48
-13 51 -12 62 8 9 16 9 23 0 28 -20 13 -27 9 -28 -14 -1 -18 -3 -17 -8 7 -4
17 -6 31 -6 33 1 1 15 -2 30 -8 22 -8 30 -8 37 2 13 21 10 27 -22 43 -35 18
-44 19 -34 3 4 -7 3 -8 -5 -4 -6 4 -9 12 -6 17 4 5 -5 13 -19 19 -14 5 -26 14
-26 20 0 14 8 13 38 -8 24 -17 57 -33 72 -36 3 -1 10 -4 16 -8 6 -4 16 3 22
17 10 23 8 26 -49 61 -38 23 -58 41 -55 50 3 7 1 16 -3 18 -4 3 -34 -42 -66
-100z m115 5 c19 -16 31 -29 25 -27 -21 7 -75 43 -75 51 0 14 16 7 50 -24z
m-60 -139 c8 -5 11 -10 5 -10 -5 0 -17 5 -25 10 -8 5 -10 10 -5 10 6 0 17 -5
25 -10z"/>
<path d="M600 2853 c0 -13 26 -34 73 -61 51 -29 47 -11 -5 24 -24 15 -49 32
-55 37 -8 6 -13 6 -13 0z"/>
<path d="M443 2592 c-29 -18 -106 -353 -84 -360 6 -2 11 -10 11 -18 0 -10 12
-14 39 -14 37 0 39 2 35 25 -4 23 -2 24 26 19 26 -6 30 -4 30 15 0 16 -6 21
-24 21 -29 0 -42 15 -21 24 8 3 15 1 15 -5 0 -15 53 -6 58 10 3 10 0 12 -12 8
-9 -4 -16 -2 -16 3 0 6 -9 10 -20 10 -11 0 -20 4 -20 9 0 5 15 5 34 1 19 -4
37 -5 40 -2 16 15 2 30 -36 40 l-43 11 43 -5 c37 -5 42 -3 42 14 0 13 -10 24
-30 31 -38 13 -40 22 -2 12 31 -9 64 12 36 23 -10 4 -13 13 -8 31 5 19 1 30
-12 40 -17 13 -16 14 16 9 34 -6 35 -6 13 10 -30 23 -98 45 -110 38z m74 -108
c-3 -3 -12 -4 -19 -1 -8 3 -5 6 6 6 11 1 17 -2 13 -5z"/>
<path d="M1105 2312 c-16 -2 -34 -9 -38 -15 -6 -9 -10 -9 -14 1 -3 8 -27 12
-69 12 -66 0 -80 -11 -46 -36 16 -13 16 -13 0 -14 -11 0 -18 -8 -18 -19 0 -25
20 -38 20 -14 1 33 23 48 78 51 l52 4 0 -31 c0 -24 4 -31 19 -31 10 0 22 7 25
16 9 23 8 24 -14 24 -11 0 -20 4 -20 10 0 5 11 9 24 8 14 -1 22 -6 20 -10 -3
-4 0 -8 5 -8 6 0 11 4 11 8 0 4 10 8 21 9 27 2 33 8 22 25 -8 13 -26 16 -78
10z"/>
<path d="M1240 2296 c0 -8 13 -16 30 -18 24 -4 30 -1 30 14 0 13 -8 18 -30 18
-19 0 -30 -5 -30 -14z"/>
<path d="M990 2249 c0 -31 12 -49 32 -49 10 0 17 4 14 9 -3 5 1 11 9 15 23 9
7 33 -26 38 -23 4 -29 1 -29 -13z"/>
<path d="M1167 2240 c3 -11 7 -20 9 -20 2 0 4 9 4 20 0 11 -4 20 -9 20 -5 0
-7 -9 -4 -20z"/>
<path d="M1250 2248 c0 -21 14 -34 38 -35 17 -1 22 4 22 23 0 20 -5 24 -30 24
-17 0 -30 -5 -30 -12z"/>
<path d="M1330 2253 c1 -21 21 -35 53 -37 29 -1 38 3 46 21 10 22 9 23 -44 23
-30 0 -55 -3 -55 -7z"/>
<path d="M961 2224 c0 -11 3 -14 6 -6 3 7 2 16 -1 19 -3 4 -6 -2 -5 -13z"/>
<path d="M470 2215 c0 -8 7 -15 15 -15 8 0 15 4 15 9 0 5 -7 11 -15 15 -9 3
-15 0 -15 -9z"/>
<path d="M370 2155 c0 -22 4 -25 39 -25 33 0 39 3 43 25 5 24 3 25 -38 25 -40
0 -44 -2 -44 -25z"/>
<path d="M470 2160 c0 -12 7 -20 17 -20 9 0 13 3 10 7 -4 3 -2 12 4 20 9 10 7
13 -10 13 -14 0 -21 -6 -21 -20z"/>
<path d="M837 2163 c-16 -15 -4 -23 34 -23 36 0 40 2 29 15 -13 15 -51 20 -63
8z"/>
<path d="M938 2163 c-40 -10 -14 -23 42 -22 65 2 89 13 37 17 -18 1 -39 4 -47
6 -8 2 -23 1 -32 -1z"/>
<path d="M1125 2150 c-3 -5 -1 -10 4 -10 6 0 11 5 11 10 0 6 -2 10 -4 10 -3 0
-8 -4 -11 -10z"/>
<path d="M1403 2143 c9 -2 25 -2 35 0 9 3 1 5 -18 5 -19 0 -27 -2 -17 -5z"/>
<path d="M370 2100 c-21 -19 -22 -25 -18 -152 5 -130 12 -173 28 -163 4 3 11
-3 15 -12 3 -10 1 -19 -4 -21 -6 -2 -11 -8 -11 -13 0 -6 4 -8 9 -5 4 3 7 -5 6
-17 -2 -23 31 -62 40 -47 3 5 17 7 30 4 18 -3 25 0 25 11 0 9 -4 13 -10 10 -6
-3 -10 -2 -10 3 0 6 10 13 23 16 41 11 52 23 38 40 -10 11 -19 12 -41 4 -16
-5 -37 -8 -47 -5 -15 3 -14 6 7 15 l25 11 -25 1 c-14 1 -19 4 -12 7 17 7 15
33 -4 33 -30 0 -4 18 36 25 30 5 40 11 40 25 0 16 -5 17 -29 10 -15 -4 -34 -4
-40 0 -8 4 3 10 27 13 50 9 55 37 5 37 -18 0 -33 5 -33 10 0 6 5 10 10 10 15
0 12 16 -5 34 -9 9 -11 17 -5 21 16 10 12 35 -7 35 -15 0 -15 2 0 18 12 13 13
20 4 33 -20 26 -44 29 -67 9z"/>
<path d="M848 2113 c12 -2 30 -2 40 0 9 3 -1 5 -23 4 -22 0 -30 -2 -17 -4z"/>
<path d="M980 2110 c0 -5 10 -10 23 -10 18 0 19 2 7 10 -19 13 -30 13 -30 0z"/>
<path d="M1078 2103 c6 -2 18 -2 25 0 6 3 1 5 -13 5 -14 0 -19 -2 -12 -5z"/>
<path d="M780 2085 c9 -10 9 -15 1 -15 -15 0 -14 -77 2 -82 6 -3 38 -6 70 -7
l57 -2 0 45 c0 26 -5 46 -12 49 -10 4 -10 6 0 6 6 1 12 6 12 11 0 6 -30 10
-71 10 -62 0 -70 -2 -59 -15z"/>
<path d="M1590 2090 c0 -6 7 -10 15 -10 8 0 15 2 15 4 0 2 -7 6 -15 10 -8 3
-15 1 -15 -4z"/>
<path d="M470 2079 c0 -5 5 -7 10 -4 6 3 10 8 10 11 0 2 -4 4 -10 4 -5 0 -10
-5 -10 -11z"/>
<path d="M998 2083 c12 -2 30 -2 40 0 9 3 -1 5 -23 4 -22 0 -30 -2 -17 -4z"/>
<path d="M1078 2083 c6 -2 18 -2 25 0 6 3 1 5 -13 5 -14 0 -19 -2 -12 -5z"/>
<path d="M920 2050 c0 -11 7 -20 15 -20 8 0 15 9 15 20 0 11 -7 20 -15 20 -8
0 -15 -9 -15 -20z"/>
<path d="M980 2060 c0 -11 8 -16 43 -24 24 -6 28 -4 25 11 -2 12 -13 19 -36
20 -17 1 -32 -3 -32 -7z"/>
<path d="M1500 2060 c-8 -5 -10 -10 -5 -10 6 0 17 5 25 10 8 5 11 10 5 10 -5
0 -17 -5 -25 -10z"/>
<path d="M1070 2045 c0 -8 9 -15 20 -15 11 0 20 7 20 15 0 8 -9 15 -20 15 -11
0 -20 -7 -20 -15z"/>
<path d="M1156 2051 c-3 -5 0 -11 8 -14 15 -6 26 1 26 15 0 11 -27 10 -34 -1z"/>
<path d="M1256 2045 c-3 -9 0 -15 10 -15 9 0 12 5 8 12 -5 8 -2 9 9 5 10 -3
17 -2 17 3 0 16 -37 11 -44 -5z"/>
<path d="M1400 2045 c0 -12 4 -13 19 -6 10 6 22 7 26 3 5 -4 5 -1 1 6 -10 17
-46 15 -46 -3z"/>
<path d="M470 2024 c0 -9 5 -14 12 -12 18 6 21 28 4 28 -9 0 -16 -7 -16 -16z"/>
<path d="M920 2006 c0 -17 22 -26 65 -26 43 0 65 9 65 26 0 10 -12 14 -40 14
-22 0 -40 -4 -40 -10 0 -5 -5 -10 -11 -10 -5 0 -7 5 -4 10 3 6 -3 10 -14 10
-12 0 -21 -6 -21 -14z"/>
<path d="M1070 2000 c0 -15 7 -20 26 -20 20 0 25 4 20 16 -3 9 -6 18 -6 20 0
2 -9 4 -20 4 -13 0 -20 -7 -20 -20z"/>
<path d="M1133 2002 c-1 -15 4 -17 28 -14 37 5 38 27 1 30 -21 1 -28 -3 -29
-16z"/>
<path d="M1222 2008 c3 -7 23 -14 46 -16 33 -2 42 0 42 12 0 12 -11 16 -46 16
-32 0 -44 -4 -42 -12z"/>
<path d="M471 1973 c-1 -16 3 -21 14 -17 8 4 15 14 15 23 0 13 -2 13 -9 2 -7
-11 -9 -11 -14 0 -3 8 -6 5 -6 -8z"/>
<path d="M779 1942 c-8 -21 -6 -69 4 -78 6 -7 99 -13 113 -7 9 3 14 21 14 54
0 55 -10 61 -84 56 -30 -1 -40 -7 -47 -25z"/>
<path d="M922 1908 c2 -40 7 -54 20 -56 16 -3 20 20 5 34 -4 4 -7 22 -7 41 0
18 -5 33 -11 33 -6 0 -9 -20 -7 -52z"/>
<path d="M962 1925 c0 -16 2 -22 5 -12 2 9 2 23 0 30 -3 6 -5 -1 -5 -18z"/>
<path d="M300 1821 c0 -64 2 -72 18 -69 17 3 31 48 14 48 -5 0 -8 13 -7 29 1
15 -4 37 -12 47 -11 15 -13 8 -13 -55z"/>
<path d="M462 1813 c4 -19 35 -19 53 -1 7 8 6 9 -2 4 -7 -4 -13 -2 -13 5 0 8
-5 7 -17 -2 -11 -10 -14 -10 -9 -1 4 7 2 12 -4 12 -6 0 -10 -8 -8 -17z"/>
<path d="M848 1823 c7 -3 16 -2 19 1 4 3 -2 6 -13 5 -11 0 -14 -3 -6 -6z"/>
<path d="M888 1823 c7 -3 16 -2 19 1 4 3 -2 6 -13 5 -11 0 -14 -3 -6 -6z"/>
<path d="M962 1765 c0 -16 2 -22 5 -12 2 9 2 23 0 30 -3 6 -5 -1 -5 -18z"/>
<path d="M520 1708 c-15 -6 -20 -12 -12 -15 6 -3 9 -9 6 -15 -4 -6 -1 -9 7 -6
8 3 14 9 14 14 0 5 4 15 8 22 9 14 10 14 -23 0z"/>
<path d="M837 1684 c7 -18 64 -16 71 4 2 8 -9 12 -37 12 -32 0 -39 -3 -34 -16z"/>
<path d="M920 1685 c0 -17 2 -18 24 -9 23 9 20 24 -4 24 -11 0 -20 -7 -20 -15z"/>
<path d="M437 1619 c8 -31 94 -25 100 6 1 7 -21 11 -52 12 -47 1 -52 -1 -48
-18z"/>
<path d="M425 1580 c-6 -9 8 -14 28 -11 5 1 6 -3 2 -9 -3 -6 -11 -7 -17 -4
-12 8 -3 -27 19 -68 9 -18 22 -28 36 -28 27 0 70 28 62 41 -3 5 1 6 10 2 10
-3 21 0 26 8 12 19 11 29 -2 29 -5 0 -8 -4 -4 -9 3 -5 1 -12 -5 -16 -5 -3 -10
-2 -10 4 0 6 -7 8 -15 5 -18 -7 -20 17 -4 33 17 17 -7 26 -32 13 -24 -13 -41
-4 -19 10 11 7 3 10 -27 10 -23 0 -45 -4 -48 -10z"/>
<path d="M205 1477 c-4 -11 -3 -23 4 -30 15 -15 19 -7 11 23 -6 22 -8 23 -15
7z"/>
<path d="M622 1444 c-21 -14 -31 -44 -14 -44 18 1 51 36 44 47 -6 10 -13 9
-30 -3z"/>
<path d="M244 1320 c-35 -18 -40 -24 -36 -48 l4 -29 39 20 c33 16 39 24 37 48
-1 16 -2 29 -3 29 0 0 -18 -9 -41 -20z"/>
<path d="M328 1173 c-33 -22 -36 -27 -26 -49 14 -30 28 -31 28 -1 l1 22 12
-22 12 -21 29 23 c28 22 28 23 11 49 -21 31 -21 31 -67 -1z"/>
<path d="M3360 3525 c-19 -23 2 -65 32 -64 l23 0 -22 9 c-16 6 -23 18 -23 35
0 21 4 26 23 23 15 -2 24 -12 28 -33 5 -26 7 -27 14 -11 18 40 -46 76 -75 41z"/>
<path d="M2857 3263 c-20 -31 -34 -59 -31 -62 3 -3 10 1 15 9 8 12 9 10 4 -7
-4 -15 0 -25 12 -32 14 -7 23 -3 46 22 l29 32 -22 -38 -22 -38 23 -17 c13 -9
27 -16 32 -14 4 1 6 -1 5 -5 -2 -5 2 -10 7 -11 6 -2 14 12 18 32 11 44 23 47
25 6 4 -65 4 -65 44 -22 21 23 38 48 38 56 0 21 -70 76 -88 68 -9 -3 -13 -1
-9 5 8 12 -59 73 -79 73 -6 0 -27 -26 -47 -57z m130 -65 c-3 -8 -6 -5 -6 6 -1
11 2 17 5 13 3 -3 4 -12 1 -19z m-17 -22 c0 -3 -4 -8 -10 -11 -5 -3 -10 -1
-10 4 0 6 5 11 10 11 6 0 10 -2 10 -4z m-30 -31 c0 -8 -4 -15 -10 -15 -5 0 -7
7 -4 15 4 8 8 15 10 15 2 0 4 -7 4 -15z"/>
<path d="M3075 3128 c-43 -51 -65 -78 -65 -81 0 -11 53 3 70 18 11 10 20 13
20 8 0 -6 -7 -16 -16 -23 -22 -19 -36 -49 -28 -61 4 -7 13 -4 27 8 20 18 20
18 2 -9 -22 -35 -14 -35 33 -1 l37 27 -33 -36 c-39 -42 -28 -61 17 -29 43 31
51 25 11 -9 -19 -16 -29 -30 -22 -30 7 0 11 -4 8 -8 -9 -15 12 -35 29 -29 9 4
13 11 10 17 -3 5 0 7 8 4 8 -3 18 -1 22 5 3 6 11 11 17 11 6 0 1 -11 -12 -25
-13 -14 -30 -25 -37 -25 -11 0 -11 -4 -3 -21 11 -20 12 -20 58 6 l47 26 -38
-33 c-47 -42 -38 -55 14 -22 49 30 75 32 32 2 -18 -13 -33 -29 -33 -35 0 -7
-7 -13 -15 -13 -8 0 -15 -4 -15 -9 0 -13 17 -23 22 -14 1 5 29 22 61 38 32 17
61 33 64 38 9 14 -105 173 -184 257 l-79 83 -29 -35z m-14 -65 c-12 -20 -14
-14 -5 12 4 9 9 14 11 11 3 -2 0 -13 -6 -23z"/>
<path d="M3321 2777 c-55 -33 -81 -61 -68 -73 4 -4 24 0 45 10 l37 17 -33 -28
-33 -28 19 -35 c16 -28 25 -35 51 -35 35 0 41 -11 10 -20 -11 -4 -19 -9 -17
-11 7 -7 138 49 138 59 0 13 -82 177 -89 177 -3 0 -30 -15 -60 -33z m10 -118
c-18 -11 -35 -18 -38 -15 -5 5 46 35 62 36 6 0 -5 -9 -24 -21z m44 -29 c-3 -5
-12 -10 -18 -10 -7 0 -6 4 3 10 19 12 23 12 15 0z"/>
<path d="M3428 2591 c-46 -21 -54 -28 -30 -26 27 2 82 26 82 36 0 12 -9 10
-52 -10z"/>
<path d="M3408 2537 c-56 -31 -75 -57 -42 -57 8 0 13 3 11 8 -3 4 10 7 29 8
19 0 34 -1 34 -3 0 -2 -18 -12 -40 -21 -28 -12 -37 -21 -31 -30 6 -10 14 -10
36 -2 15 6 30 8 33 5 3 -3 -9 -10 -26 -16 -21 -7 -32 -18 -32 -30 0 -26 29
-24 40 4 7 18 9 19 9 4 1 -14 6 -17 24 -12 20 6 21 5 5 -8 -25 -20 -22 -37 5
-37 21 -1 21 -1 3 -12 -11 -6 -29 -11 -40 -12 -11 -1 -22 -9 -24 -18 -3 -16 3
-17 45 -13 l48 5 -42 -16 c-62 -23 -59 -48 5 -41 l47 5 -38 -11 c-49 -14 -42
-31 15 -35 38 -2 47 0 51 15 4 17 5 17 6 1 0 -10 8 -18 16 -18 19 0 19 13 -1
125 -25 149 -54 245 -73 245 -9 -1 -42 -15 -73 -33z"/>
<path d="M2730 2384 c0 -8 5 -12 10 -9 6 3 10 10 10 16 0 5 -4 9 -10 9 -5 0
-10 -7 -10 -16z"/>
<path d="M2852 2370 c0 -19 2 -27 5 -17 2 9 2 25 0 35 -3 9 -5 1 -5 -18z"/>
<path d="M3390 2355 c0 -17 2 -18 24 -9 23 9 20 24 -4 24 -11 0 -20 -7 -20
-15z"/>
<path d="M2761 2334 c0 -11 3 -14 6 -6 3 7 2 16 -1 19 -3 4 -6 -2 -5 -13z"/>
<path d="M3097 2251 c-1 -9 1 -23 7 -32 9 -15 11 -15 29 1 10 10 17 24 15 31
-6 18 -47 18 -51 0z"/>
<path d="M2504 2244 c3 -9 6 -23 7 -32 0 -11 2 -12 6 -4 2 6 11 12 18 12 8 0
11 7 8 20 -3 12 -14 20 -25 20 -14 0 -18 -5 -14 -16z"/>
<path d="M2570 2245 c0 -8 2 -15 4 -15 2 0 6 7 10 15 3 8 1 15 -4 15 -6 0 -10
-7 -10 -15z"/>
<path d="M2813 2253 c-7 -3 -13 -14 -12 -26 0 -15 2 -17 6 -7 3 8 11 18 17 22
13 9 5 17 -11 11z"/>
<path d="M3450 2165 c0 -8 -8 -15 -17 -16 -15 0 -15 -2 2 -8 28 -11 49 -3 35
14 -8 9 -7 14 2 18 8 4 7 6 -4 6 -10 1 -18 -6 -18 -14z"/>
<path d="M3507 2160 c-4 -15 0 -20 15 -20 17 0 18 3 8 15 -10 12 -10 15 0 15
6 0 14 -9 17 -20 3 -11 13 -20 22 -19 9 0 11 3 5 5 -7 3 -10 14 -7 24 4 17 0
20 -25 20 -21 0 -31 -6 -35 -20z"/>
<path d="M2460 2150 c0 -5 14 -10 30 -10 17 0 30 4 30 8 0 4 -13 9 -30 10 -16
1 -30 -2 -30 -8z"/>
<path d="M2620 2148 c0 -4 14 -8 30 -8 17 0 30 4 30 8 0 5 -13 8 -30 8 -16 0
-30 -3 -30 -8z"/>
<path d="M2838 2153 c7 -3 16 -2 19 1 4 3 -2 6 -13 5 -11 0 -14 -3 -6 -6z"/>
<path d="M2870 2150 c0 -6 43 -10 105 -10 58 0 105 4 105 9 0 4 -47 9 -105 10
-63 0 -105 -3 -105 -9z"/>
<path d="M3100 2150 c0 -5 11 -10 25 -10 14 0 25 5 25 10 0 6 -11 10 -25 10
-14 0 -25 -4 -25 -10z"/>
<path d="M3551 2104 c-1 -17 -6 -20 -26 -16 -18 3 -25 0 -25 -11 0 -9 4 -18
10 -22 5 -3 7 -12 3 -20 -6 -18 -40 -20 -45 -3 -3 7 -12 9 -22 5 -15 -6 -16
-9 -3 -21 7 -8 25 -16 38 -19 16 -3 12 -5 -14 -6 -31 -1 -38 -4 -35 -18 2 -12
14 -19 36 -21 46 -5 40 -22 -8 -22 -54 0 -53 -24 3 -38 l42 -11 -42 2 c-27 2
-44 -2 -47 -10 -6 -16 0 -19 46 -28 34 -7 36 -9 27 -32 -8 -22 -7 -24 13 -21
20 3 24 10 29 63 5 57 6 58 8 15 1 -25 6 -54 10 -65 7 -16 10 -11 15 25 3 25
6 54 5 65 0 11 2 67 6 125 4 68 3 100 -3 91 -8 -11 -10 -11 -15 0 -3 9 -6 6
-6 -7z"/>
<path d="M2648 2103 c7 -3 16 -2 19 1 4 3 -2 6 -13 5 -11 0 -14 -3 -6 -6z"/>
<path d="M2898 2103 c12 -2 32 -2 45 0 12 2 2 4 -23 4 -25 0 -35 -2 -22 -4z"/>
<path d="M3023 2103 c9 -2 25 -2 35 0 9 3 1 5 -18 5 -19 0 -27 -2 -17 -5z"/>
<path d="M3095 2090 c-4 -6 8 -10 31 -10 40 0 39 12 -1 17 -13 2 -26 -1 -30
-7z"/>
<path d="M2808 2083 c7 -3 16 -2 19 1 4 3 -2 6 -13 5 -11 0 -14 -3 -6 -6z"/>
<path d="M2898 2083 c12 -2 32 -2 45 0 12 2 2 4 -23 4 -25 0 -35 -2 -22 -4z"/>
<path d="M2982 2070 c0 -14 2 -19 5 -12 2 6 2 18 0 25 -3 6 -5 1 -5 -13z"/>
<path d="M3028 2083 c12 -2 30 -2 40 0 9 3 -1 5 -23 4 -22 0 -30 -2 -17 -4z"/>
<path d="M3446 2075 c-3 -9 0 -15 8 -15 8 0 16 7 20 15 3 9 0 15 -8 15 -8 0
-16 -7 -20 -15z"/>
<path d="M2515 2060 c-16 -7 -17 -9 -3 -9 9 -1 20 4 23 9 7 11 7 11 -20 0z"/>
<path d="M2880 2051 c0 -15 8 -19 40 -19 33 -1 40 3 40 19 0 16 -7 19 -40 19
-32 0 -40 -4 -40 -19z"/>
<path d="M3010 2050 c0 -16 7 -20 35 -20 28 0 35 4 35 20 0 16 -7 20 -35 20
-28 0 -35 -4 -35 -20z"/>
<path d="M3090 2056 c0 -8 5 -18 11 -22 8 -5 8 -8 0 -14 -18 -11 -1 -40 23
-40 46 0 55 32 11 43 -18 4 -18 5 3 6 15 1 22 7 22 21 0 16 -7 20 -35 20 -24
0 -35 -5 -35 -14z"/>
<path d="M2653 2053 c9 -2 23 -2 30 0 6 3 -1 5 -18 5 -16 0 -22 -2 -12 -5z"/>
<path d="M2798 2033 c7 -3 16 -2 19 1 4 3 -2 6 -13 5 -11 0 -14 -3 -6 -6z"/>
<path d="M2610 2006 c0 -17 18 -22 93 -25 52 -2 57 -1 57 18 0 19 -6 21 -75
21 -57 0 -75 -3 -75 -14z"/>
<path d="M2782 2001 c5 -23 53 -24 55 -1 1 14 -5 18 -28 18 -22 -1 -29 -5 -27
-17z"/>
<path d="M2875 2010 c-14 -23 11 -30 106 -30 92 0 99 1 99 20 0 19 -7 20 -99
20 -56 0 -103 -4 -106 -10z"/>
<path d="M3009 1959 c-6 -3 -9 -19 -8 -35 2 -16 -1 -35 -5 -43 -5 -8 -3 -17 5
-22 17 -11 71 -1 81 15 6 8 8 7 8 -1 0 -8 13 -13 29 -13 28 0 30 3 37 46 5 34
3 49 -7 55 -24 16 -53 5 -60 -21 l-7 -25 -1 28 c-1 24 -5 27 -31 25 -17 -1
-36 -5 -41 -9z"/>
<path d="M2852 1925 c0 -16 2 -22 5 -12 2 9 2 23 0 30 -3 6 -5 -1 -5 -18z"/>
<path d="M3433 1824 c9 -3 17 -12 17 -20 0 -8 5 -14 11 -14 23 0 3 35 -21 37
-15 1 -18 0 -7 -3z"/>
<path d="M3010 1760 l0 -50 50 1 c45 2 50 5 60 32 5 17 10 36 10 43 0 17 -27
18 -33 2 -4 -10 -8 -9 -16 2 -5 8 -24 16 -40 18 -31 3 -31 3 -31 -48z"/>
<path d="M3471 1776 c2 -2 14 -9 27 -15 18 -10 22 -9 22 4 0 10 -9 15 -27 15
-14 0 -24 -2 -22 -4z"/>
<path d="M3418 1748 c5 -5 16 -8 23 -6 8 3 3 7 -10 11 -17 4 -21 3 -13 -5z"/>
<path d="M3390 1741 c0 -6 12 -14 28 -17 32 -8 54 -23 47 -34 -3 -4 2 -10 10
-14 17 -6 20 -26 4 -26 -5 0 -7 5 -4 10 3 6 -1 10 -9 10 -10 0 -13 -6 -10 -15
4 -8 1 -15 -5 -15 -6 0 -11 -10 -11 -21 0 -17 4 -20 23 -15 12 3 27 6 33 6 6
0 10 17 10 38 0 20 2 51 5 67 4 27 1 30 -25 33 -23 3 -28 0 -23 -12 5 -13 1
-15 -21 -10 -15 4 -33 11 -39 17 -9 6 -13 6 -13 -2z"/>
<path d="M3387 1704 c3 -7 9 -14 15 -14 5 0 7 -4 4 -9 -3 -5 0 -11 8 -14 8 -3
13 2 12 15 -1 12 -11 24 -23 29 -17 6 -21 5 -16 -7z"/>
<path d="M3002 1688 c7 -19 78 -22 78 -3 0 11 -11 15 -41 15 -28 0 -39 -4 -37
-12z"/>
<path d="M3385 1641 c-7 -12 29 -33 39 -24 12 12 6 25 -10 19 -8 -3 -12 -2 -9
4 3 6 2 10 -4 10 -5 0 -12 -4 -16 -9z"/>
<path d="M3547 1595 c-5 -11 0 -15 16 -15 12 0 18 4 12 8 -5 4 -13 11 -16 15
-4 4 -9 1 -12 -8z"/>
<path d="M3360 1559 c0 -5 5 -7 10 -4 6 3 10 8 10 11 0 2 -4 4 -10 4 -5 0 -10
-5 -10 -11z"/>
<path d="M3317 1526 c-4 -11 4 -21 24 -32 l30 -15 -3 28 c-3 32 -41 45 -51 19z"/>
<path d="M3553 1485 c0 -8 4 -15 9 -15 4 0 8 7 8 15 0 8 -4 15 -8 15 -5 0 -9
-7 -9 -15z"/>
<path d="M3559 1309 c-6 -30 -3 -49 8 -49 8 0 12 4 9 9 -4 5 -1 11 5 13 7 2 5
9 -5 17 -9 7 -16 12 -17 10z"/>
<path d="M3580 1168 c0 -39 7 -51 38 -67 20 -11 23 -9 32 14 14 36 13 42 -7
54 -14 7 -21 5 -30 -12 -12 -22 -12 -22 -14 3 -1 14 -1 28 0 33 0 4 -3 7 -9 7
-5 0 -10 -15 -10 -32z"/>
<path d="M3833 3322 c-14 -9 -15 -102 -2 -102 5 0 9 19 9 41 l0 42 34 -6 c33
-5 34 -5 18 14 -17 20 -39 24 -59 11z"/>
<path d="M3853 3275 c0 -8 4 -15 9 -15 4 0 8 7 8 15 0 8 -4 15 -8 15 -5 0 -9
-7 -9 -15z"/>
<path d="M3890 3251 c0 -18 4 -30 9 -26 6 3 8 15 6 27 -7 34 -15 34 -15 -1z"/>
<path d="M3850 3230 c0 -19 11 -26 23 -14 8 8 -3 34 -14 34 -5 0 -9 -9 -9 -20z"/>
<path d="M3169 3253 c-13 -16 -12 -17 4 -4 16 13 21 21 13 21 -2 0 -10 -8 -17
-17z"/>
<path d="M395 2969 c-4 -6 -5 -11 -4 -13 32 -23 79 -45 83 -37 6 9 -1 16 -46
44 -18 11 -29 13 -33 6z"/>
<path d="M310 2865 c0 -6 56 -35 67 -35 13 1 -41 40 -54 40 -7 0 -13 -2 -13
-5z"/>
<path d="M260 2761 c0 -16 58 -43 65 -31 3 6 -6 15 -21 20 -15 6 -31 13 -35
16 -5 3 -9 1 -9 -5z"/>
<path d="M2014 2732 c4 -7 2 -21 -5 -30 -12 -15 -11 -15 6 0 16 15 17 20 6 30
-11 11 -13 10 -7 0z"/>
<path d="M1863 2253 c15 -2 39 -2 55 0 15 2 2 4 -28 4 -30 0 -43 -2 -27 -4z"/>
<path d="M2013 2253 c15 -2 39 -2 55 0 15 2 2 4 -28 4 -30 0 -43 -2 -27 -4z"/>
<path d="M1202 2655 c0 -16 2 -22 5 -12 2 9 2 23 0 30 -3 6 -5 -1 -5 -18z"/>
<path d="M1205 2610 c-3 -5 -1 -10 4 -10 6 0 11 5 11 10 0 6 -2 10 -4 10 -3 0
-8 -4 -11 -10z"/>
<path d="M2982 2505 c0 -16 2 -22 5 -12 2 9 2 23 0 30 -3 6 -5 -1 -5 -18z"/>
<path d="M962 2510 c0 -19 2 -27 5 -17 2 9 2 25 0 35 -3 9 -5 1 -5 -18z"/>
<path d="M2712 2510 c0 -19 2 -27 5 -17 2 9 2 25 0 35 -3 9 -5 1 -5 -18z"/>
<path d="M2850 2508 c0 -36 9 -33 16 6 2 14 0 26 -6 26 -5 0 -10 -14 -10 -32z"/>
<path d="M192 2515 c-15 -32 -15 -31 1 -33 6 0 21 -2 32 -4 26 -4 33 31 9 49
-25 18 -29 17 -42 -12z"/>
<path d="M3675 2520 c-9 -15 5 -52 18 -47 19 6 21 57 3 57 -8 0 -18 -5 -21
-10z"/>
<path d="M210 2050 c0 -5 5 -10 10 -10 6 0 10 5 10 10 0 6 -4 10 -10 10 -5 0
-10 -4 -10 -10z"/>
<path d="M153 2043 c9 -2 23 -2 30 0 6 3 -1 5 -18 5 -16 0 -22 -2 -12 -5z"/>
<path d="M0 2582 c0 -8 28 -25 65 -41 6 -2 -3 8 -18 23 -28 26 -47 33 -47 18z"/>
<path d="M0 2476 c0 -8 4 -17 9 -20 5 -4 7 3 4 14 -6 23 -13 26 -13 6z"/>
<path d="M3966 2477 c-19 -14 -19 -15 -2 -32 21 -21 29 -15 24 20 -3 24 -5 25
-22 12z"/>
<path d="M77 2263 c-12 -11 -8 -23 8 -23 8 0 15 7 15 15 0 16 -12 20 -23 8z"/>
<path d="M20 2250 c0 -5 9 -10 20 -10 11 0 20 5 20 10 0 6 -9 10 -20 10 -11 0
-20 -4 -20 -10z"/>
<path d="M1910 1033 c-37 -7 -47 -19 -43 -50 l5 -28 94 0 94 0 0 32 c0 17 -4
34 -9 37 -13 9 -113 15 -141 9z"/>
<path d="M1789 990 c-51 -27 -123 -101 -148 -154 -58 -118 -50 -261 20 -365
38 -57 117 -121 167 -136 20 -6 22 -3 22 28 0 31 -6 40 -50 71 -83 59 -120
136 -120 245 0 84 30 150 93 209 26 23 51 42 57 42 5 0 10 18 10 40 0 45 -2
46 -51 20z"/>
<path d="M2090 972 c0 -31 5 -41 26 -53 47 -25 103 -99 120 -157 38 -130 -11
-260 -129 -345 -23 -16 -30 -67 -11 -74 18 -7 106 50 140 89 121 145 114 367
-16 496 -37 37 -106 82 -125 82 -3 0 -5 -17 -5 -38z"/>
<path d="M1913 923 c-13 -2 -23 -10 -23 -16 0 -9 23 -13 75 -13 50 0 75 4 75
12 0 19 -69 28 -127 17z"/>
<path d="M1823 881 c-48 -35 -60 -51 -44 -60 14 -9 95 63 89 79 -2 7 -20 -1
-45 -19z"/>
<path d="M2055 901 c-6 -12 76 -91 87 -85 5 3 8 11 8 19 0 18 -87 78 -95 66z"/>
<path d="M1813 808 c-24 -26 -43 -69 -43 -99 0 -17 7 -19 58 -19 53 0 60 2 70
26 14 29 7 46 -35 87 l-29 27 -21 -22z"/>
<path d="M2051 789 c-30 -35 -33 -44 -25 -67 9 -25 14 -27 72 -30 69 -3 70 -2
48 61 -14 37 -43 78 -55 76 -3 0 -21 -19 -40 -40z"/>
<path d="M1741 779 c-13 -38 -15 -89 -2 -89 7 0 34 77 35 104 2 25 -23 13 -33
-15z"/>
<path d="M2154 788 c4 -13 10 -40 13 -60 4 -25 11 -38 21 -38 12 0 13 8 8 41
-4 23 -11 50 -17 60 -14 27 -33 24 -25 -3z"/>
<path d="M1744 634 c9 -44 35 -95 54 -102 19 -6 14 16 -13 56 -14 20 -25 44
-25 54 0 9 -5 20 -11 24 -9 5 -10 -4 -5 -32z"/>
<path d="M1770 660 c0 -31 77 -140 99 -140 5 0 11 -9 14 -20 4 -15 14 -20 44
-21 81 -3 123 6 123 26 0 8 11 22 25 31 29 19 75 92 75 117 0 15 -20 17 -190
17 -125 0 -190 -4 -190 -10z"/>
<path d="M2170 650 c0 -5 1 -11 2 -12 1 -2 -12 -24 -29 -49 -29 -42 -33 -59
-12 -59 4 0 16 15 27 33 25 40 38 97 23 97 -6 0 -11 -4 -11 -10z"/>
<path d="M1817 523 c-13 -12 -7 -23 24 -38 29 -15 31 -15 27 1 -4 19 -41 47
-51 37z"/>
<path d="M2077 515 c-10 -7 -17 -21 -15 -30 3 -16 5 -15 28 3 30 24 17 50 -13
27z"/>
<path d="M1896 453 c28 -20 144 -16 144 6 0 3 -36 6 -81 6 -67 1 -77 -1 -63
-12z"/>
<path d="M2025 389 c-16 -6 -60 -8 -97 -4 l-68 5 0 -34 c0 -39 14 -46 102 -46
85 0 108 12 108 55 0 38 0 38 -45 24z"/>
<path d="M1604 203 c-22 -4 -44 -40 -44 -71 0 -9 8 -28 18 -42 14 -21 24 -25
56 -23 45 3 49 5 40 26 -3 9 -16 15 -32 14 -24 -2 -27 2 -27 28 0 25 5 31 29
35 30 5 49 30 23 30 -9 0 -21 2 -29 4 -7 2 -23 1 -34 -1z"/>
<path d="M1690 189 c0 -12 7 -19 20 -19 17 0 20 -7 20 -48 0 -53 5 -63 26 -55
9 3 14 21 14 54 0 43 3 49 21 49 14 0 19 5 17 17 -2 12 -16 17 -60 19 -52 2
-58 0 -58 -17z"/>
<path d="M1824 196 c-3 -7 -4 -40 -2 -72 2 -45 7 -60 19 -62 11 -2 18 7 22 28
5 24 12 30 32 30 16 0 25 6 25 15 0 9 -9 15 -25 15 -14 0 -25 5 -25 10 0 6 14
10 31 10 24 0 30 4 27 18 -4 22 -96 30 -104 8z"/>
<path d="M1972 194 c-16 -11 -22 -25 -22 -54 0 -51 20 -70 76 -70 l44 0 0 40
c0 38 -2 40 -30 40 -30 0 -43 -24 -17 -33 6 -2 9 -8 5 -12 -15 -16 -39 5 -36
32 2 23 8 29 36 31 51 5 37 42 -17 42 -9 0 -27 -7 -39 -16z"/>
<path d="M2103 203 c-18 -6 -17 -94 1 -118 15 -21 67 -25 90 -5 11 9 16 30 16
72 0 51 -2 59 -17 56 -13 -2 -19 -15 -21 -48 -6 -80 -42 -78 -42 2 0 39 -7 48
-27 41z"/>
</g>
</svg>
